<?xml version="1.0" encoding="utf-8"?>
<svg xmlns="http://www.w3.org/2000/svg" version="1.0" viewBox="0 0 434 251">
	<title>Second-floor plan of Riddlesdale Lodge.</title>
	<path d="M387.034.104c-.16.183-10.789.366-18.148.32-1.646-.023-3.498-.023-4.069 0-4.754.114-13.623.206-16.091.183-4.183-.023-3.68-.023-11.52.183-5.417.137-33.577.16-48.48.046-.869 0-2.857 0-4.434.022-2.995 0-7.223 0-8.892-.022-.525 0-2.788 0-5.028.022-4.663.046-9.28.046-18.491-.022-6.172-.046-6.492-.023-7.018.434-.594.548-.96 2.057-1.005 4.32-.046 1.326-.069 8.663-.069 9.486.183 7.885.343 18.697.434 26.765.046 5.669.138 15.497.206 21.828.069 6.332.114 12.229.114 13.075-.022.868-.022 2.331-.045 3.245 0 .938 0 4.64.045 8.275.046 5.874.023 6.628-.342 6.88-.595.434-3.086.594-8.64.571-2.766-.023-10.423-.023-17.029-.023-6.606.023-13.257-.046-14.788-.114-2.88-.16-4.206.046-4.8.754-.617.754-.869 3.909-.686 8.503.114 2.651.114 4.846-.023 5.44-.137.617-.137 3.131 0 6.606.114 3.085.206 6.514.183 7.634-.023 1.12.046 2.811.16 3.748.137 1.486.114 1.76-.297 2.263l-.48.594-8.594-.09c-13.326-.138-20.617-.16-23.246-.07-3.108.115-8.32-.182-8.64-.48-.228-.228-.228-21.6 0-35.61.069-3.818.114-9.052.114-11.635-.045-19.406-.022-28.228.092-33.005.068-3.04.206-8.595.274-12.366.069-3.749.137-7.109.137-7.429.046-1.554-.251-20.57-.343-22.857-.228-5.12-.777-5.782-5.257-6.171-1.348-.114-5.143-.206-8.457-.16-3.291.023-7.131-.046-8.503-.16-2.285-.183-42.674-.503-47.04-.366-2.216.069-5.394.069-25.85 0-8.87-.045-16.389 0-16.686.069-.297.091-1.486 0-2.606-.183C41.665.356 39.905.31 36.02.401 33.163.493 30.1.47 29.163.356 28.248.24 26.67.218 25.688.31c-.983.09-5.258.137-9.486.09C2.122.264 3.219.218 2.488.973c-.709.708-.754 1.257-.32 4.16.137.914.206 2.605.137 3.703-.069 1.12-.114 5.76-.091 10.308 0 4.571-.023 8.731-.046 9.257-.046 1.28-.069 7.886-.046 11.863.046 3.314-.251 12.846-.526 17.166-.182 2.857-.525 27.337-.64 46.925-.045 7.406.16 29.097.298 30.125.045.252-.023 1.6-.115 2.995-.114 1.394-.251 5.005-.32 8.045-.068 3.04-.137 6.172-.16 6.949-.023.8 0 2.948.023 4.8.069 3.268-.023 6.697-.32 11.886-.091 1.394-.137 4.525-.137 6.948.023 2.446.023 4.617.023 4.8 0 .206-.069 1.623-.183 3.154-.114 1.737-.091 3.132.069 3.657.137.526.205 5.783.16 14.24-.16 23.772-.183 23.292.937 24.137.617.457 2.377.526 10.057.412h2.514c.937 0 5.577-.023 10.331-.046 4.755-.023 10.903-.023 13.669.023 2.788.023 5.326.046 5.646.046.457-.023 8.617.16 12.48.274h7.794c3.977 0 13.737.046 21.737.091 7.977.069 15.2.115 16.068.092.869-.023 2.149-.046 2.88-.046h4.8c1.92-.023 6.172 0 9.486 0 3.291.023 13.6.023 22.925.023h18.103c.663 0 2.126.114 3.246.228 1.12.138 5.074.275 8.754.275 18.788.091 58.171.045 69.6-.069 7.131-.091 16.754-.16 21.37-.16 4.618-.023 10.104-.137 12.207-.297 2.857-.206 4.16-.183 5.28.023 1.44.274 11.268.457 16.594.32 3.474-.092 15.497-.114 31.2-.092 14.33.023 18.582.023 26.994-.045 3.222-.023 7.405.045 9.234.16 3.748.205 7.543-.092 8.388-.64.457-.297.549-.297.755 0 .182.297 1.645.343 9.234.32 4.937-.023 9.486-.023 10.08-.023.571 0 3.383.046 6.24.114 6.583.183 10.08.206 19.497.183 7.223-.023 7.703-.046 8.823-.526.937-.411 1.211-.663 1.371-1.257.206-.708.206-7.383 0-52.96-.023-8.777 0-19.04.069-22.81.045-3.75.045-7.75-.046-8.87-.092-1.12-.229-4.8-.297-8.16-.092-3.36-.206-8.433-.297-11.29-.069-2.835-.092-5.646-.046-6.24.068-.983 0-11.269-.137-21.029-.046-3.634-.115-4.206-.503-4.64-.572-.617-1.943-.663-2.24-.069-.389.755-.503 2.88-.274 4.412.274 1.691.068 2.126-1.006 2.126-.777 0-.914-.503-.32-1.303.411-.549.48-2.72.091-3.566-.16-.32-.525-.709-.845-.846-.778-.365-3.109-.343-3.68.023-.343.206-.595.206-1.075 0-.365-.16-1.371-.297-2.285-.297-1.783 0-1.92.137-1.92 1.714 0 .366-.115.937-.252 1.303-.343.914-.8.434-1.303-1.326-.274-.982-.548-1.462-.845-1.577-.663-.205-1.326.229-1.692 1.052-.388.96-.868 1.12-1.074.365-.069-.32-.503-1.005-.96-1.508l-.846-.914.595-.549c.342-.32.617-.709.617-.869 0-.457-.915-.868-1.463-.685-.48.16-1.189-.229-1.189-.64 0-.115.252-.206.549-.206 1.326 0 1.897-1.463.64-1.646-1.006-.137-1.074-.457-.137-.914.685-.32.868-.548.868-1.074v-.686l7.749.092c4.251.045 7.771.114 7.817.114.046.023-.092.297-.297.617-.206.343-.389 1.074-.389 1.623 0 1.44-.297 1.851-.8 1.12-.228-.297-.388-.754-.388-1.006 0-.663-.458-1.371-1.052-1.577-.571-.229-1.348.069-1.371.526 0 .16-.252.617-.549.983-.64.8-1.12.685-1.12-.298 0-.342-.183-.891-.388-1.188-.595-.869-1.28-.594-1.989.8-.343.663-.731 1.188-.868 1.166-.115-.023-.458-.435-.732-.938-.8-1.417-1.783-1.668-2.194-.502-.229.662-.069 4.228.206 4.777.342.64.845.502 1.12-.32.297-.823.64-.915 1.05-.229.412.64 1.098.617 1.624-.046l.434-.525.412.64c.228.365.64.64.89.64.618 0 1.647-.549 2.218-1.166.64-.709 1.257-.617 1.691.206.206.411.503.731.663.754.983.068 2.515-.092 2.766-.32.229-.183.457-.114.869.251.914.892 3.131.549 3.862-.571.458-.709.938-.732 1.418-.069.868 1.235 2.697 1.532 3.634.572.891-.869.8-1.875-.252-2.697-.891-.709-1.097-1.349-.411-1.235.686.115 1.051-.228.777-.754-.388-.708-2.126-.868-3.268-.297-.983.503-1.143.48-2.56-.389-.915-.571-1.075-.937-.64-1.394.274-.251.297-1.371.251-8.594 0-2.126-.023-13.463-.023-25.211 0-11.749-.068-24.115-.16-27.475-.068-3.36-.183-8.502-.206-11.405-.045-2.903-.091-5.577-.091-5.966-.023-.434-.297-.914-.754-1.371l-.755-.686-7.84-.023c-4.297-.023-8.274-.046-8.8-.046-.525-.022-1.828 0-2.88.046-1.05.069-4.09.023-6.765-.091-3.543-.137-5.029-.137-5.532.068-.502.206-1.097.229-2.354.023-2.971-.434-4.068-.526-4.274-.32zm13.417 3.383c5.806.091 12.069.137 13.92.091 3.611-.045 8 .298 8.754.709.389.206.457.48.434 1.737-.022.823.046 4.092.16 7.246.366 10.971.458 26.034.206 35.314-.114 4.434-.068 5.463.252 6.4.297.891.342 1.463.16 2.857-.138.96-.229 2.583-.252 3.589 0 2.148-.251 2.49-1.76 2.445-.548-.023-10.011-.091-21.028-.183-11.04-.091-20.366-.183-20.777-.205-.389-.023-3.703 0-7.36.022-6.56.046-6.652.046-7.292.595-.822.731-.64 1.417.572 2.034.571.297 1.097.846 1.486 1.554.662 1.212 2.72 3.452 5.097 5.509 1.76 1.554 2.057 2.148 1.348 2.811-.617.572-3.863 1.943-4.617 1.943-.891 0-1.486.709-1.783 2.08-.205.914-.205 1.463 0 2.057.435 1.28.663 1.44 1.76 1.28.754-.114 1.074-.068 1.303.206.183.206.869.549 1.531.731 2.515.732 3.452 1.783 2.766 3.063-.32.594-3.108 3.086-4.343 3.886-.365.228-1.142 1.097-1.737 1.897-.594.823-1.394 1.829-1.805 2.263-.869.914-.938 1.828-.183 2.24.411.228 3.748.274 13.737.228 7.268-.045 16.457-.045 20.411 0 8.434.115 12.137.138 15.108.023 1.19-.045 2.698.023 3.36.115.663.114 1.875.182 2.675.16.96-.046 1.577.045 1.737.251.274.32.777 3.063.594 3.337-.068.114-.068 7.749 0 15.063 0 .457-.023 2.354-.046 4.206-.091 5.234.206 16.434.458 17.76.251 1.348.274 3.154.182 11.93-.045 4.366-.16 6.24-.365 6.446-.412.435-2.309.64-4.869.572-12.297-.366-19.68-.457-28.434-.434-5.691.022-12.16.045-14.4.045-12.937-.023-13.76 0-14.514.389-.891.457-.914.686-.137 1.463.526.525.777.594 3.063.64 1.348.023 3.154.045 4.023.023 4.434-.046 22.56-.046 36.365.022 9.234.046 15.977-.022 16.548-.137 1.28-.297 2.218.046 2.469.937.091.366.16 1.623.16 2.812-.091 8.777-.091 21.188 0 39.062.069 17.6.046 20.846-.251 21.075-.503.434-16.343.777-19.292.434-1.417-.16-3.36-.183-5.165-.069-1.578.092-5.738.16-9.235.115-3.497-.023-10.514-.023-15.588.022-5.097.023-9.783.046-10.446.023-.663-.023-2.925-.068-5.051-.114-2.606-.046-4.114-.183-4.732-.411-.731-.275-1.142-.298-2.4-.046-2.88.548-5.874.663-15.36.663-8.708-.023-9.554-.069-9.942-.435-.389-.388-.412-1.325-.457-10.81a1916.16 1916.16 0 0 0-.206-16.87c-.092-3.565-.16-7.222-.16-8.16.023-2.24.023-18.49 0-19.565-.069-4.64.091-7.337.434-7.726.434-.48 1.303-.548 2.057-.16.595.298 7.932 7.658 8.48 8.503.32.48.297.617-.183 1.417-.48.823-.48.915-.137 1.28.32.32.503.32.937.092 1.006-.526 2.309-1.577 2.858-2.309.297-.411.891-1.097 1.302-1.577.892-.937 2.629-4.274 2.835-5.44.091-.548.023-.914-.297-1.303-.435-.548-.48-.548-.938-.137-.251.252-.594.937-.754 1.577-.16.617-.64 1.646-1.074 2.309-.434.663-.96 1.508-1.189 1.874-.8 1.326-1.348.983-7.2-4.731-1.851-1.783-3.725-3.429-4.205-3.657-.778-.389-1.875-.435-9.989-.549-10.24-.114-10.148-.114-19.543-.069-3.771.023-7.885 0-9.12-.045-1.257-.023-2.514.045-2.765.183-.595.274-4.686 4.411-4.686 4.708 0 .137-.48.526-1.074.869-.595.343-1.075.731-1.075.845 0 .458-2.468 2.126-3.13 2.126-.732 0-1.76-.983-2.035-1.966-.366-1.302-1.623-3.52-2.057-3.657-.846-.274-1.029.069-.869 1.669.297 3.177 1.737 5.737 4.229 7.497 1.142.823 1.668.937 2.422.549.32-.183.48-.503.48-1.098 0-1.211.458-1.965 2.195-3.474.823-.708 2.217-1.966 3.085-2.743 3.452-3.2 2.858-2.88 5.463-2.925 3.063-.046 7.703-.046 21.097 0 11.017.045 11.109.045 11.612.548.502.526.502.572.297 5.737-.16 3.429-.137 5.6.023 6.377.16.823.16 1.509-.023 2.195-.32 1.28-.206 25.417.137 27.885.183 1.326.16 2.057-.092 3.2-.274 1.12-.297 1.783-.114 2.743.366 1.989.412 14.446.046 14.88-.274.32-2.903.366-21.349.297-11.588-.046-21.988-.16-23.108-.274-2.148-.206-8.457-.206-22.583.068-7.291.137-8.571.092-8.8-.205-.411-.48-.708-4.526-.525-6.812.183-2.057.091-10.171-.183-18.56-.183-5.897-.206-8.891-.114-14.765.022-2.103.045-7.086.045-11.04 0-8.8.092-11.589.435-11.909.228-.228 5.942-.365 21.188-.525 3.109-.046 3.589-.092 4.023-.503.663-.572.64-1.006-.023-1.44-.411-.252-1.577-.343-4.731-.389-6.629-.091-30.4.183-31.406.366-.503.091-1.211.046-1.577-.114-.457-.16-3.68-.229-9.349-.206-4.777.023-9.44.023-10.354 0-1.646-.046-1.714-.023-2.651.846-.526.48-1.76 1.577-2.743 2.422-.983.869-2.011 1.852-2.286 2.195-.274.365-.891 1.005-1.394 1.44-.48.434-.891.937-.891 1.097 0 .183-.366.548-.823.846-.663.388-.937.457-1.303.251-.754-.389-1.417-1.371-1.852-2.72-.594-1.806-1.44-2.857-2.217-2.766-.617.069-.64.137-.64 1.395.046 2.102.48 3.085 2.766 6.08 1.554 2.057 2.194 2.56 3.2 2.56.823 0 1.12-.458 1.12-1.76 0-1.189.023-1.235 1.737-2.903.96-.937 2.331-2.217 3.017-2.835.663-.64 1.234-1.234 1.234-1.348 0-.114.686-.617 1.509-1.143l1.486-.937 12.251-.069c17.051-.091 16.96-.091 17.257.206.183.16.274 3.726.32 11.451.046 6.172.069 11.657.046 12.183-.069 1.417-.023 2.332.183 5.394.114 1.509.114 3.932.023 5.349-.069 1.44-.092 6.194-.023 10.56.228 14.377.183 17.691-.252 18.125-.343.32-1.234.39-5.965.458-3.086.045-7.155.16-9.075.274-1.92.114-4.182.114-5.028.023-.869-.092-2.172-.092-2.88 0-1.417.183-33.989.114-46.308-.069-5.623-.091-7.36-.183-7.589-.434-.48-.503-.8-6.789-.434-8.526.205-1.028.228-2.491.068-5.371-.114-2.172-.114-4.549-.023-5.28.092-.709.092-1.806 0-2.4-.09-.594-.182-4.16-.205-7.909-.023-3.771-.046-7.222-.046-7.68-.023-.457 0-2.788.023-5.165.023-2.377 0-6.743-.069-9.714-.091-6.309.183-10.789.709-11.178.228-.182 4.686-.251 15.268-.182 13.852.068 14.995.045 15.475-.343.777-.64.914-1.395.342-1.966-.434-.434-.845-.503-3.314-.549a154.112 154.112 0 0 0-4.617 0c-1.006.046-3.269.046-5.051 0-3.36-.068-12.206-.045-19.909.046-2.445.023-4.96-.023-5.577-.114-.891-.137-1.303-.069-2.217.388-.594.298-1.143.732-1.234.96-.069.229-.457.686-.892 1.006-.434.32-1.851 1.646-3.177 2.949-3.108 3.085-4.228 3.863-5.028 3.52-.8-.366-1.258-1.166-1.783-3.04-.526-1.852-1.029-2.537-1.943-2.537-.549 0-.732.16-1.052.937-.342.868-.342 1.051.023 2.08 1.097 3.268 4.092 6.811 5.715 6.811.662 0 .891-.114 1.188-.686.206-.411.366-.937.366-1.211s.571-1.029 1.348-1.737c.732-.709 2.126-2.034 3.109-2.949 2.057-1.988 3.68-3.405 4.183-3.748.411-.252 4.114-.023 5.005.297.55.206.55.251.412 2.423-.069 1.234-.137 5.623-.16 9.783 0 4.16 0 8.685-.023 10.08v3.474c.023.525.023 2.743.023 4.914-.023 4.937-.023 4.96.114 11.657.069 3.04.137 8.96.137 13.166.046 8.868.16 8.411-2.262 8.205-.8-.068-2.103-.228-2.88-.365-.8-.138-3.2-.229-5.349-.229-2.126 0-4-.069-4.137-.16-.229-.137-41.988-.389-46.926-.297-1.965.046-4.182.023-12-.16a560.153 560.153 0 0 0-9.965-.114c-2.332 0-4.412-.069-4.64-.16-.274-.092-.389-.435-.389-1.235 0-1.92-.708-2.994-3.657-5.6-.64-.548-1.143-1.142-1.143-1.302 0-.16-.502-.709-1.142-1.212-1.28-1.028-2.629-2.4-2.949-3.017-.457-.846 1.554-2.149 4.823-3.086.983-.274 2.057-.571 2.354-.663 1.531-.457 1.989-2.674 1.714-8.342-.091-1.966-.114-6.56-.068-10.195.068-3.634.137-11.382.16-17.21.023-6.424.137-10.72.274-10.835.274-.274 8.594-.366 16.8-.183 3.154.069 7.04.091 8.64.069 1.577-.023 8.228 0 14.766.068 26.605.229 25.714.229 26.696-.16.71-.32.892-.503.892-1.028 0-.8-.32-1.075-1.554-1.395-1.395-.365-19.909-.594-43.086-.525-11.017.022-20.457.045-20.96.022-1.44-.022-2.194-.502-2.285-1.394-.046-.663.114-.96 1.211-2.011a29.09 29.09 0 0 1 2.286-1.966c.571-.411 1.028-.846 1.028-1.006 0-.411 2.812-3.131 3.749-3.634.571-.297.914-.366 1.143-.206 1.348.983 1.6 1.098 2.08.96 1.257-.411.96-1.76-.823-3.771a119.383 119.383 0 0 1-2.057-2.377c-.892-1.029-1.532-1.486-3.543-2.423-2.034-.96-2.56-1.12-2.972-.914-.251.16-.777.228-1.12.205-.617-.091-.662-.182-.777-1.531-.137-1.623.069-2.971.48-3.246.412-.228 9.029-.411 10.743-.228.777.091 2.857.091 4.64.023 1.76-.092 4.183-.092 5.371.022 1.189.115 3.68.138 5.532.046 1.851-.068 3.566-.137 3.84-.137.251.023 5.76.091 12.228.183 6.469.091 12.206.16 12.732.183.525 0 2.583 0 4.548-.046 1.989-.023 4.8 0 6.24.046 1.509.068 3.269-.023 4.069-.183a6.952 6.952 0 0 1 2.743-.069c2.057.32 17.257.48 44.685.457 3.611 0 27.817.183 33.234.252.526 0 4.572-.069 9.006-.16 7.451-.137 18.514-.206 27.36-.16 2.034.023 6.034-.092 8.845-.229 2.835-.137 5.486-.183 5.897-.068.389.091 3.109.183 6.012.228 12.457.137 12.548.115 13.76-1.188.571-.595.571-.64.434-4.892-.069-2.354-.137-4.365-.16-4.502-.183-.892.046-5.143.297-5.486.252-.343.914-.434 4.503-.549 4.594-.16 6.034-.503 6.446-1.577.114-.297.16-3.337.091-6.766-.137-8.32-.206-8.502-3.749-8.205-1.074.068-3.13.206-4.594.297-3.405.183-3.383.183-3.063-2.857.229-1.943.252-4.183.115-5.829-.046-.457-3.086-3.748-5.212-5.645-.525-.48-1.44-1.44-2.034-2.149-.594-.708-1.371-1.554-1.737-1.874-1.714-1.554 0-2.972 4.891-4.137 2.72-.64 3.726-1.097 3.977-1.76.092-.275.138-2.515.115-4.983-.069-3.086 0-4.64.183-5.006.274-.503.434-.526 3.2-.457 3.588.069 17.348-.411 18.17-.64 1.304-.366 1.624-1.257.64-1.897-.502-.32-1.462-.366-7.016-.252a551.9 551.9 0 0 1-7.063.092c-.32-.023-.983-.023-1.44 0-4.8.274-23.863.297-36.594.068-1.029-.022-17.143.23-18.011.275-.389 0-1.235 0-1.852-.023-1.006-.046-1.166-.137-1.554-.823-.389-.731-.434-1.92-.48-15.794-.046-15.909-.183-28.366-.412-36.526-.068-2.834-.022-5.234.092-5.577.137-.32.526-.777.891-1.005.595-.412 1.532-.458 10.629-.549 5.485-.046 11.268-.046 12.845 0 3.36.091 2.766.091 12.96.023 4.366-.023 9.417.068 11.223.206 1.829.137 3.772.16 4.32.045.823-.16 10.194-.16 13.509-.023.388.023 3.085.046 5.988.046 12.389 0 19.52-.114 20.617-.32 1.577-.297 2.149-.297 2.652.092.411.297.434 1.074.525 12.297.069 6.582.115 17.645.092 24.57 0 6.95.114 13.487.228 14.538.115 1.051.16 3.177.069 4.731-.16 3.543-.343 3.772-2.56 3.772-.846 0-1.806-.092-2.103-.206-.594-.229-3.886-3.2-7.703-6.948l-2.354-2.286.068-1.212c.069-1.005 0-1.211-.365-1.28-.846-.182-1.532.183-2.995 1.555-1.462 1.394-2.56 3.017-3.885 5.76-.914 1.92-.96 2.88-.092 3.085.755.206.869.069 1.395-1.462 1.028-2.926 2.422-4.915 3.451-4.915.229 0 .686.183 1.006.412.525.365 4.937 4.754 6.4 6.354a83.792 83.792 0 0 0 2.057 2.057l1.554 1.486 6.012-.092c4.57-.091 6.217-.205 6.857-.457.982-.411 1.714-1.051 5.165-4.48 3.04-3.017 4.937-4.571 5.6-4.571.595 0 1.829 1.303 2.035 2.148.068.343.388.892.662 1.212.298.343.686.96.846 1.394.412 1.051 1.12 1.44 1.646.914.343-.32.343-.502.068-1.394-.16-.571-.434-1.463-.571-2.011-.366-1.212-1.577-2.926-3.291-4.617-1.555-1.555-2.652-2.103-3.383-1.692-.503.252-.526.457-.092 1.852.183.548-.457 1.28-3.245 3.794a35.956 35.956 0 0 0-1.326 1.326c-.274.32-1.394 1.37-2.514 2.33l-2.012 1.76-1.531-.09c-2.514-.16-2.446.022-2.514-7.612-.023-3.497-.023-6.88 0-7.474.182-4.297.182-20.32-.023-24.823-.275-6.583-.229-18.514.091-19.108.114-.229.526-.48.914-.572.64-.137 25.074-.434 32.8-.388 1.966.023 4.252-.069 5.029-.206.8-.114 2.263-.16 3.245-.091.983.068 6.56.182 12.366.251zm-357.232.777c4.023.137 7.908.252 8.64.274l41.623-.045c22.17-.046 43.176-.023 46.696.045 3.497.069 7.429.069 8.755-.022 2.514-.16 4.022.045 4.754.685.366.32.434.732.388 2.789-.045 3.474-.068 7.291-.022 8.411.022.526.022 6.903.045 14.149 0 9.097-.091 13.645-.274 14.651-.206 1.051-.206 1.874-.023 3.086.16.914.206 1.76.137 1.874-.137.229-.411 60.182-.297 63.542a94.514 94.514 0 0 1 0 7.2c-.046 1.143-.023 3.726.069 5.76.091 2.355.068 3.863-.092 4.092-.16.228-.617.343-1.371.343-.64-.023-5.76-.092-11.36-.206-5.6-.092-10.469-.183-10.789-.183-1.028-.023-10.17 0-11.04.023-7.977.16-47.976.091-48.342-.092-.411-.205-.48-.548-.549-2.514-.114-2.948-.662-3.885-2.125-3.52-1.029.275-1.372 1.532-1.235 4.709.069 1.508.183 2.948.275 3.154.274.686 3.223 1.486 4.64 1.257.48-.068 1.165-.023 1.531.114.594.229.64.366.709 2.012.045.96 0 2.08-.115 2.491-.411 1.395.755 2.697 2.789 3.223.434.092 1.646.526 2.697.914 1.051.389 2.309.8 2.811.869.48.069 1.052.32 1.258.526.342.32.32.434-.16 1.12-.298.411-2.012 2.194-3.795 3.931-3.931 3.886-3.405 3.337-4.548 4.709-.777.914-.96 1.348-.96 2.08 0 1.165-.526 1.714-1.44 1.531-1.12-.229-2.743.686-4.892 2.766-1.074 1.051-2.537 2.377-3.268 2.948-.709.572-1.943 1.646-2.72 2.423-.777.754-1.509 1.372-1.6 1.372-.914 0-2.469-2.446-2.926-4.572-.206-1.051-.366-1.28-1.006-1.554-.685-.297-.8-.274-1.325.206-.64.617-.572 1.302.365 3.748 1.098 2.812 1.578 3.566 3.155 4.983 1.737 1.577 4.023 3.2 4.48 3.177.183 0 .571-.183.868-.434l.549-.457-.434-.983c-.252-.549-.595-1.12-.778-1.257-.182-.16-.32-.549-.32-.869 0-.663 1.463-2.583 2.309-3.017.297-.16 1.234-1.12 2.08-2.149 2.149-2.582 3.177-3.337 5.12-3.657 1.463-.228 1.806.229 1.668 2.126-.068.8-.182 2.331-.274 3.383-.068 1.051-.183 6.994-.251 13.188-.046 6.195-.183 11.36-.274 11.452-.092.091-2.766.068-5.943-.069-3.155-.114-6.24-.183-6.835-.16-4.754.229-54.696-.274-55.222-.548-.549-.275-1.051-3.2-.846-5.075.252-2.583.183-8.914-.114-10.125-.229-.869-.229-1.349 0-2.08.183-.595.297-2.857.297-5.966.023-6.103-.091-5.874 3.04-5.943 1.143-.023 5.486-.114 9.646-.206 12.868-.297 28.205-.16 32.937.275.891.091 2.377.068 3.314-.023 1.371-.137 1.76-.274 2.034-.709.206-.297.297-.685.229-.868-.229-.617-1.555-1.166-2.835-1.189-2.08 0-2.262-.114-2.582-1.623-.16-.845-.206-2.263-.115-3.862.183-3.109.32-8.069.343-13.783l.046-4.252.754-.411c1.92-1.029 2.812-2.834 2.789-5.691 0-1.852-.8-4.138-1.509-4.252-1.371-.251-1.6.114-1.828 2.926-.183 2.217-.412 3.337-.732 3.771-.183.206-2.194.229-7.84.137-8.365-.137-8.457-.137-18.4.092-7.977.16-7.794.16-12.16-.092-2.514-.137-3.382-.274-3.725-.594-.229-.206-.892-.571-1.44-.8-.915-.366-.983-.457-1.189-1.623-.091-.685-.16-2.285-.114-3.543.046-1.234-.046-2.925-.206-3.725-.206-1.189-.183-1.669.137-2.72.297-1.075.32-1.623.115-3.246a35.191 35.191 0 0 1-.252-3.749v-3.84c-.023-1.12.046-3.108.137-4.434.069-1.325.137-2.72.137-3.108-.09-4.503.046-20.069.275-31.2.434-20.617.754-44.64.685-48.617-.137-5.508-.09-13.691.046-14.217.092-.366.366-.754.617-.846.64-.228 27.634-.091 36.503.183zm358.603 61.783c.618.251 2.218.297 7.635.182 7.2-.114 9.097-.114 12.594 0l2.148.092.069 6.194c.046 4.549-.023 6.309-.229 6.56-.228.297-.937.32-4.022.206-2.058-.069-3.84-.137-3.978-.16-.137 0-1.645.091-3.36.228-1.714.138-3.177.206-3.245.16-.092-.045-5.532-.16-12.137-.228-6.583-.069-12.343-.206-12.777-.274-.457-.069-2.423 0-4.389.16-2.766.228-3.794.228-4.526.022-.525-.16-.96-.365-.96-.48 0-.274.846-1.12 1.852-1.874 1.623-1.166 2.24-1.828 2.24-2.4 0-.571-.229-.708-1.76-1.188-1.509-.48-6.286-5.418-6.126-6.309.16-.777 1.166-1.006 3.794-.891 3.269.16 20.32.228 23.223.091 1.234-.069 2.309-.183 2.377-.274.252-.229.732-.183 1.577.183zm-119.633.388c4.594-.023 8.548-.046 8.823-.046.251 0 1.554.069 2.88.138 2.103.114 2.445.182 2.834.662.274.343.366.709.251 1.029-.091.274-.205 1.851-.228 3.52-.046 1.669-.206 3.314-.343 3.68-.274.709-1.28 1.234-2.926 1.486-1.257.205-2.24.663-4.8 2.354-2.903 1.92-4.274 3.474-4.274 4.869 0 .96.366 1.005 1.646.274 1.463-.846 1.531-.8 6.514 3.794 1.12 1.029 2.56 2.537 3.177 3.337 1.074 1.394 1.143 1.554 1.143 2.949 0 2.103-.229 2.194-4.069 1.92-5.462-.412-18.148-.526-20.8-.206-1.097.137-2.01.137-2.605-.023-.64-.183-1.234-.183-2.012.023-.731.16-2.491.206-5.074.114-2.171-.091-4.388-.16-4.914-.183-.526-.022-2.766.023-4.983.115-3.2.114-4.046.091-4.274-.183-.183-.229-.252-2.286-.206-6.88.046-3.589 0-9.829-.091-13.829-.137-6.034-.092-7.428.183-8.091l.342-.823 11.543.023c6.354.023 11.634-.046 11.703-.137.091-.092.64-.092 1.211 0 .549.068 4.778.137 9.349.114zM392.77 81.567c1.966.022 3.703 0 3.84-.023.389-.092 2.766.297 2.88.48.046.114-.16.434-.503.731-1.006.96-.594 2.377.96 3.177 1.189.594.754.823-.708.389-1.12-.32-1.212-.48-1.098-1.943.069-.8-.617-1.874-1.188-1.874-.617 0-.937.731-.937 2.103 0 1.28-.297 1.737-1.097 1.737-.458 0-.549-.16-.663-1.395-.092-.754-.229-1.577-.32-1.782-.206-.55-.732-.526-1.052.068-.365.663-.754.594-1.485-.251-.549-.617-.8-.709-1.897-.709-1.189 0-1.303.069-2.286 1.143l-1.052 1.12v-.777c0-1.189-.617-1.257-1.531-.16-.914 1.051-1.646 1.006-2.034-.137-.343-.983-1.12-.96-1.326.045-.229 1.098-.183 4.115.069 4.48.32.526 1.051.229 1.302-.548.298-.983.618-1.326 1.166-1.326.457 0 .526.114.777 1.28.183.846.732 1.051 1.326.526.457-.412.503-.389 1.211.183.389.342.938.685 1.189.777.846.251 2.354-.32 3.063-1.212.754-.937 1.166-1.051 1.371-.365.092.251.412.617.754.845.71.457.71.549-.022 1.44-.549.686-.572.686-1.052.275-.777-.709-1.165-.343-1.348 1.211-.183 1.829-.48 2.469-1.052 2.469-.708 0-1.051-.846-.891-2.08.068-.595.023-1.28-.092-1.532-.297-.548-1.097-.617-1.28-.091-.205.503-.502.434-1.325-.252-2.103-1.783-5.577.526-4.846 3.223.137.503.48 1.189.731 1.532.275.342.48.662.48.731 0 .526-10.125.64-11.108.137-.732-.411-.457-1.028 1.234-2.743.892-.937 1.737-1.851 1.852-2.034.137-.206.64-.731 1.12-1.189.777-.708 1.074-.822 1.965-.8 1.28.069 1.646-.297 1.532-1.508-.069-.823-.229-1.006-2.103-2.286-1.966-1.371-4.389-2.377-5.692-2.377-.525 0-.594-.068-.365-.297.228-.229 1.623-.32 4.891-.366 2.537-.023 4.64-.114 4.709-.183.068-.045 1.965-.068 4.228 0 2.24.069 5.715.115 7.703.138zm12.069.365c.205.183-.275.572-.686.572-.252 0-.594.228-.754.48-.343.525-.915.663-.915.205 0-.16-.183-.48-.411-.731-.343-.389-.366-.48-.069-.686.32-.183 2.606-.068 2.835.16zm19.245.343c0 .137-.091.229-.228.229a.466.466 0 0 1-.366-.229c-.092-.137.023-.251.228-.251.206 0 .366.114.366.251zm-33.897 2.057c.64.435.686.983.16 1.737-.434.617-1.211.686-1.828.137-.549-.502-.549-1.234-.046-1.805.503-.549 1.006-.572 1.714-.069zm37.326-.068c.64.48.754 1.44.205 1.942-.708.64-1.325.412-1.485-.57-.229-1.418.365-2.08 1.28-1.372zm-24.297.525c0 .777-.412.983-.983.48-.366-.32-.412-.502-.206-.754.48-.548 1.189-.388 1.189.274zm27.314.595a5.459 5.459 0 0 0 1.486.662c1.005.275 1.097.87.137.983a1.332 1.332 0 0 1-1.143-.411c-.252-.274-.663-.503-.914-.503-.549 0-.823-.366-.64-.846.182-.457.297-.457 1.074.115zm-30.423 3.131c.617.183 2.286 0 2.766-.297.137-.092.548.046.937.32.389.251.96.457 1.257.457.297 0 .549.091.549.229 0 .114-.252.297-.549.388-.297.092-.868.412-1.257.709l-.709.571-.777-.708c-1.051-.915-2.217-1.12-3.565-.595-.96.366-1.098.366-1.783.023-.937-.503-.937-.937.045-1.531.709-.412.846-.435 1.623-.115.457.206 1.12.435 1.463.549zm-14.765 2.263c.274.183.8.366 1.188.411.846.092 1.166 1.075.434 1.303-.251.069-.845.343-1.325.594-1.166.618-1.783.595-2.24-.114-.457-.708-.252-1.691.457-2.171.617-.457.868-.457 1.486-.023zm10.422.366c0 .137-.091.251-.228.251-.115 0-.297-.114-.366-.251-.091-.115.023-.229.229-.229.205 0 .365.114.365.229zm10.995.297c.365.388.365 1.44-.023 1.92-1.12 1.44-2.72-.092-1.852-1.737.297-.526 1.417-.64 1.875-.183zm15.588 1.485c.069.983.023 1.143-.526 1.395-.914.411-1.325-.069-1.325-1.509 0-.846.091-1.211.411-1.394.731-.412 1.371.228 1.44 1.508zm-19.383-1.074c0 .274-.091.526-.228.617-.252.16-.457-.343-.32-.777.183-.457.548-.343.548.16zm13.577-.091c-.525.388-.891.365-1.051-.092-.046-.183.206-.274.708-.274.755.023.778.023.343.366zm-18.034 3.383c.252.182.389.388.32.48-.183.16-7.383.137-7.657-.046-.343-.229-.228-.549.252-.686.25-.091.594-.48.754-.868.366-.892.663-.915.754-.046.091.891 1.189.96 1.394.068.16-.64.412-.822 1.852-1.188.571-.16 1.165-.434 1.325-.617.252-.252.32-.046.435 1.12.068 1.051.228 1.531.571 1.783zm2.172-1.6c-.069.137-.252.251-.366.251-.137 0-.229-.114-.229-.251 0-.115.16-.229.366-.229s.32.114.229.229zm-12.846 1.005c.434.595.48.777.229.96-.366.206-1.898.023-2.24-.297-.183-.16.96-1.394 1.325-1.417.069 0 .366.343.686.754zm29.051-.297c.526 1.029.32 1.417-.891 1.623-1.577.251-2.537.206-2.652-.091-.045-.138.252-.343.663-.435.457-.091.846-.411 1.097-.845.412-.846 1.395-.96 1.783-.252zm-13.554.457c.137.092.411.389.64.663.434.48.411.503-1.074.389-1.395-.092-2.583-.526-1.44-.526.274 0 .617-.16.8-.366.32-.388.685-.457 1.074-.16zm8.663.457c.846.64.846.64.297.846-.503.183-2.217.046-2.674-.228-.32-.183.594-1.28 1.074-1.28.251 0 .846.297 1.303.662zm-3.452.343c.389.206.412.297.16.457-.754.503-1.92.115-1.531-.502.183-.298.754-.298 1.371.045zm-148.89 3.2c.023.046.16.823.297 1.715.297 2.125.411 2.491.823 2.491.48 0 .686-.411 1.074-2.4.366-1.806.663-2.171 1.394-1.714.183.114.412.868.503 1.691.206 1.714.503 2.149 1.075 1.577.205-.205.434-.617.48-.914.48-2.491.434-2.446 1.508-2.514 1.006-.069 1.006-.069 1.28.96.526 2.057.617 2.24.96 2.24.206 0 .412-.366.503-.96.274-1.577.663-2.332 1.097-2.24.594.114.709 1.028.594 4.914-.091 3.817-.16 3.931-1.622 3.177-1.463-.754-2.606-.8-3.772-.183-.868.48-1.44.549-4.228.64-1.783.046-3.383.206-3.543.343-.183.137-.297.48-.297.777 0 .754.548.869 4.457.869 2.514 0 3.383.068 3.817.365.434.275 1.097.343 2.88.298l2.308-.092.092 2.994c.137 3.749.023 4.32-.732 4.32-.64 0-.777-.32-.891-2.034-.046-.708-.183-.983-.503-1.028-.663-.138-.868.205-1.006 1.485-.068.64-.182 1.257-.251 1.372-.069.114-.617.205-1.211.205-.915 0-1.098-.068-1.303-.594-.115-.343-.229-1.028-.229-1.531 0-.823-.32-1.463-.754-1.463-.503 0-.869.777-.754 1.623.137 1.051-.252 2.217-.755 2.217-.685 0-1.097-.732-1.097-1.92 0-1.189-.411-1.92-1.074-1.92-.549 0-.732.526-.732 2.148v1.578h-1.92l-.114-1.578c-.068-.845-.206-1.691-.32-1.851-.32-.48-1.074-.343-1.508.297-.297.48-.32.732-.115 1.349.389 1.097.32 1.417-.274 1.645-.937.343-1.303-.251-1.44-2.331-.16-2.126-.343-2.697-.823-2.697-.503 0-.823 1.097-.96 3.086-.114 2.011-.183 2.194-.8 2.194-.64 0-.8-.366-.983-2.126-.182-1.737-.685-2.468-1.371-2.034-.32.183-.411.617-.434 1.806-.023 1.988-.16 2.354-.937 2.354-.869 0-1.418-1.326-1.189-2.926.183-1.326-.091-1.874-.983-1.874-.823 0-1.074.686-.823 2.217.297 1.874.137 2.331-.845 2.331-.435 0-.892-.114-1.006-.297-.137-.16-.32-1.12-.412-2.125-.091-1.006-.32-2.035-.502-2.286-.458-.617-.435-.732.182-.937.298-.092.938-.617 1.44-1.143.778-.869.892-.937 1.029-.503.297.914.526 1.189 1.166 1.257.503.069.731-.068 1.051-.663.229-.388.526-.731.663-.731s.526.388.914.846c.366.457.777.822.892.822.137 0 .525-.274.868-.594l.617-.617.572.526c.526.503.571.503 1.166.114.342-.206.617-.503.617-.617 0-.457.708-.229 1.097.366.777 1.188 2.491.502 2.491-.983 0-1.303-.503-3.314-.914-3.634-.457-.366-1.006 0-1.006.662 0 .64-.388.778-.754.275-.571-.777-1.509-1.257-2.469-1.235-1.188 0-1.462.16-1.805 1.006-.32.846-.869.846-1.257 0-.389-.823-1.258-.983-1.692-.32-.388.64-.617.64-1.303-.023a1.829 1.829 0 0 0-1.325-.48c-.435.023-1.372-.068-2.058-.205-1.531-.32-2.765.022-3.337.868-.48.754-.64.732-1.851-.137-.754-.549-1.326-.754-2.217-.777-1.875-.092-2.012.137-1.966 3.085.023 2.995.137 3.132 2.446 2.88 1.097-.114 1.6-.297 2.103-.777.662-.64 1.485-.64 1.737.023.068.16.503.457.983.617.777.229.868.343.708.8-.114.275-.206 1.44-.206 2.606-.022 1.669-.114 2.171-.434 2.514-.388.389-.48.389-1.097.046s-.64-.457-.663-2.149c0-.982-.091-2.011-.183-2.308-.251-.709-.868-.892-1.394-.412-.343.298-.434.823-.503 2.469-.068 2.034-.068 2.057-.708 2.149-.846.091-1.143-.48-1.326-2.538-.137-1.76-.366-2.24-1.052-2.24-.662 0-.914.709-.96 2.629-.045 1.943-.41 2.606-1.188 2.171-.686-.365-.914-1.76-.8-4.662.069-1.463.091-3.178.069-3.84-.046-.663-.092-2.972-.092-5.12 0-3.657.023-3.955.48-4.275.252-.182.754-.32 1.074-.274.595.069.595.114.526 1.76-.068 1.44 0 1.737.412 2.126.708.64 1.165.16 1.348-1.509.251-1.965.48-2.445 1.166-2.445 1.051 0 1.394.617 1.211 2.171-.183 1.554.137 2.4.869 2.4.617 0 .96-.709.96-2.034 0-1.577.548-2.583 1.371-2.492.64.092.663.115.777 2.126.137 2.24.275 2.629.96 2.629.64 0 .709-.183.96-2.4.252-2.126.503-2.629 1.303-2.629.846 0 1.097.48 1.12 2.149.046 2.148.252 2.994.777 3.085.869.16 1.12-.388 1.12-2.491 0-2.446.115-2.743.96-2.743.96 0 1.28.503.983 1.554-.251.937-.114 3.086.252 3.795.182.32.32.365.662.182.663-.342.823-.891.96-3.131.138-1.806.206-2.057.618-2.103 1.028-.137 1.21.274 1.21 2.629v2.24h1.44l.16-1.92c.207-2.652.48-3.292 1.327-3.2.662.068.662.091.731 1.988.091 2.766.183 3.063.96 2.972l.64-.092v-2.354c.023-1.806.091-2.377.389-2.56.297-.183 1.097-.114 1.394.114zm31.634-.114h5.783l.297.709c.16.411.229 1.005.137 1.348-.091.389-.023.846.183 1.166.32.457.663.571 2.354.731a84.73 84.73 0 0 0 4.686.229c1.646.046 2.834.183 3.04.343.366.297.571 2.057.731 6.4.092 2.537-.205 5.005-.663 5.371-.388.32-5.28.823-6.697.686-.64-.069-1.302-.275-1.485-.457-.229-.229-.366-1.669-.48-5.486-.183-5.874-.572-7.566-1.509-6.423-.434.549-.548 1.714-.64 7.657-.046 3.246-.137 6.012-.228 6.149-.069.137-.709.297-1.395.365-.8.069-1.348.252-1.554.526-.457.64 0 1.28 1.074 1.44 1.692.274 2.08.457 2.08 1.074 0 .458-.183.64-1.005.915-1.326.434-1.372 1.051-.138 1.668 1.235.595 1.395 1.577.32 2.172-.937.525-1.005 1.417-.114 1.645.686.16 1.12.846.914 1.395-.205.525-.937.891-1.394.708-.434-.16-2.103.343-2.354.732-.457.685-.114.937 2.103 1.462l.708.183-.708.297c-.777.343-9.12.298-12-.045l-1.44-.16.983-.206c1.097-.229 2.057-.983 1.874-1.486-.137-.365-3.36-.777-4.16-.525-.732.228-.777.777-.137 1.531l.594.709-2.217.114c-2.994.137-4.503-.023-4.343-.457.069-.16.412-.32.754-.32 1.646-.023 2.286-.64 1.486-1.44-.343-.343-.8-.48-1.691-.48-.983 0-1.28-.114-1.715-.594-1.12-1.28-1.76-.55-1.668 1.85.046.755-.023 1.395-.137 1.395-.092 0-10.103.046-22.217.092l-22.034.114-.206-.526c-.572-1.44-.937-9.188-.48-10.285.251-.595.343-.618 2.948-.8 1.463-.092 7.543-.229 13.486-.298 5.943-.045 13.874-.16 17.646-.228 3.748-.069 7.702-.114 8.754-.114 2.011.022 3.246-.252 3.703-.8.183-.206.297-3.223.365-9.532.046-5.051.092-9.371.115-9.6 0-.228.205-.594.434-.823.366-.365.891-.388 5.92-.251 3.04.091 8.137.16 11.337.16zm-68.388.366c.891.205 1.028 1.28 1.028 8.045-.022 3.497-.045 6.675-.045 7.063-.023.412.045 1.097.137 1.554.114.595.068.983-.16 1.303-.32.435-.823.457-9.554.503-9.555.046-11.886-.091-12.389-.754-.366-.48-.297-17.234.069-17.577.114-.114.434-.274.708-.343.595-.137 19.474.046 20.206.206zm5.691.777c.275 1.28-.045 16.845-.343 17.234-.365.411-1.051.457-1.371.046-.457-.595-.503-1.395-.297-6.583.137-3.36.114-6.034-.046-7.474-.32-2.949-.046-3.886 1.12-3.886.686 0 .823.091.937.663zm13.76 7.794c.617 1.28-.731 2.697-1.76 1.851-.411-.342-.457-1.942-.046-2.354.503-.503 1.463-.228 1.806.503zm-6.148-.137c.525.48.571 1.486.091 2.126-.503.708-1.189.182-1.28-.96-.137-1.555.297-1.966 1.189-1.166zm-12.275 12.8a1.6 1.6 0 0 1 .229.777c0 .411-.549.411-9.417.32-10.24-.114-12.549-.251-12.754-.754-.115-.32.091-.412 1.417-.64.274-.046 4.937-.092 10.4-.069 8.525 0 9.943.046 10.125.366zm-.022 3.657c.251.411.297.731.137.869-.457.457-4.663.685-11.269.594-3.703-.069-7.703-.183-8.891-.274-2.012-.16-2.149-.206-2.24-.709-.16-1.28-.343-1.257 11.2-1.189l10.72.046.343.663zm-14.012 3.109c1.714 0 4.206-.023 5.509-.046 3.36-.046 8.114.251 8.457.548.503.389.366 1.12-.229 1.235-.297.068-1.463.114-2.583.114s-2.262.023-2.514.023c-.274.023-4.023-.046-8.365-.092-7.909-.137-8.549-.205-8.549-1.005 0-.183.229-.503.526-.709.457-.32.891-.366 2.583-.251 1.12.091 3.45.16 5.165.183zm9.646 3.77c3.223.024 3.908.092 3.908.367a.742.742 0 0 1-.228.502c-.206.115-4.48.138-9.12.046-.48 0-2.423.046-4.32.114-3.429.138-7.543-.068-7.84-.365-.091-.092-.046-.297.091-.457.252-.298 3.2-.343 17.509-.206zM13.55 133.156c.434 0 .914.137 1.051.32.297.343.32 3.405.114 9.165a266.032 266.032 0 0 0-.091 8.869c.068 6.423.251 6.08-3.132 5.691-1.371-.16-3.497-.297-4.708-.297h-2.24l.183-2.217c.114-1.211.16-3.177.114-4.366-.251-6.331-.023-16.64.366-16.96.16-.137 1.6-.274 3.2-.32 1.6-.045 2.971-.137 3.04-.205.068-.069.388-.023.731.091.32.137.937.229 1.372.229zm9.257.228c.297.206.343 1.006.32 5.075-.046 2.674-.137 4.937-.252 5.028-.091.092-.434.252-.731.343-.434.114-.549.046-.709-.526-.091-.365-.137-1.394-.114-2.285.091-2.583.091-3.063.023-5.189-.046-1.737 0-2.057.388-2.354.526-.389.595-.389 1.075-.092zm-3.497 1.806c-.023.937-.046 3.177-.069 4.983-.046 3.657-.114 4.023-.777 4.023-1.006 0-1.12-.686-1.006-5.715.092-3.131.206-4.777.389-4.914.16-.091.548-.137.891-.114.572.068.594.114.572 1.737zm27.085-1.44c.96.411 1.12 1.28 1.052 5.851-.046 2.4-.138 4.412-.23 4.503-.09.092-.456.16-.822.137-.777-.022-18.514-.022-19.725.023-.526 0-.915-.137-1.12-.411-.503-.686-.686-3.36-.32-4.274.205-.503.342-1.715.342-3.315v-2.514l1.44-.114c2.217-.206 18.903-.092 19.383.114zM22.58 146.823c.274.183.366 1.075.48 4.617.069 2.423.046 4.572-.068 4.8-.206.435-1.075.823-1.326.572-.549-.549-.754-8.274-.252-9.554.275-.686.549-.8 1.166-.435zm4.572 1.097c.09.526.09 1.486-.023 2.149-.092.663-.206 2.4-.229 3.84-.023 1.44-.16 2.766-.297 2.948-.366.435-1.097.366-1.394-.16-.32-.594-.32-9.028 0-9.6.183-.342.388-.41 1.005-.274.686.137.8.275.938 1.097zm-8-.548c.114.297.16 1.897.114 3.543-.16 5.805-.389 6.88-1.349 6.171-.343-.251-.457-.869-.617-3.246-.091-1.622-.114-3.337 0-3.817.457-2.217.549-2.605.777-2.88.366-.48.892-.365 1.075.229zm11.474-.274c.091.16.16 2.4.137 4.982-.023 4.183-.069 4.755-.457 5.029-.96.708-1.12.343-1.326-3.063-.16-2.743-.137-3.337.206-4.046.228-.502.343-1.097.251-1.531-.228-1.166.663-2.194 1.189-1.371zm3.885.045c.138.16.32.915.412 1.669.16 1.371.16 1.371-.64 1.851-1.417.869-1.623.732-1.623-1.211 0-.914.091-1.897.229-2.149.297-.525 1.257-.617 1.622-.16zm4.138.549c0 1.143 1.554 1.166 2.057.023.251-.595 1.394-.823 1.92-.389.183.16.343.526.343.8 0 .777.662 1.6 1.142 1.417.755-.274 1.258-.845 1.258-1.508 0-1.097.891-1.532 1.76-.892.388.275.434.777.41 4.503 0 2.309-.113 4.503-.205 4.914-.183.64-.297.709-1.143.709-.822 0-.96-.069-1.005-.594-.137-1.258-.32-1.646-.8-1.806-.503-.16-1.257.274-1.052.617.069.114-.068.594-.297 1.074-.366.777-.48.846-1.257.777-.709-.045-.869-.182-1.051-.777-.48-1.554-.709-2.011-1.052-2.148-.48-.183-1.006.525-1.028 1.325 0 .892-.526 1.486-1.212 1.372-.503-.069-.594-.206-.663-1.166-.091-1.371.183-1.623 2.332-2.263 1.143-.32 2.354-.457 4.365-.48 2.812 0 3.589-.228 3.589-.982 0-.686-1.074-.938-4.023-.938-2.834-.022-2.971-.045-3.611-.662-.366-.343-.983-.663-1.372-.71-.708-.068-.731-.113-.8-1.439-.068-1.143 0-1.371.366-1.44.686-.16 1.029.046 1.029.663zm-4.48 5.714c.457.366.891 1.577.891 2.537 0 1.12-1.28 1.874-1.897 1.12-.32-.366-.64-3.063-.434-3.611.182-.457.845-.48 1.44-.046zm-17.6 39.223c2.308-.046 4.8-.046 5.531 0 .709.023 4.389.091 8.16.114 3.749.046 7.314.16 7.909.274.594.092 1.302.16 1.554.16.274 0 7.817-.045 16.754-.091 12.046-.069 16.366-.023 16.663.183.205.16.365.594.365.983-.068 8.89-.114 9.92-.365 10.262-.16.183-.869.48-1.554.617-3.338.686-9.76 5.258-10.24 7.269-.115.503-.023.8.365 1.166.572.571 1.326.503 2.4-.275.96-.685 1.6-.32 4.023 2.24 1.143 1.212 2.812 2.949 3.703 3.886 1.417 1.463 1.623 1.783 1.623 2.583 0 1.371-.412 1.463-4.663 1.28-5.349-.229-5.417-.229-7.223-.16-5.028.16-55.885-.229-56.274-.434-.868-.48-1.44-6.08-.823-8.206.297-.983.32-1.463.115-2.103-.526-1.851-.777-13.257-.343-17.714l.137-1.509.937-.251c.526-.137 1.143-.206 1.349-.114.228.068.731.023 1.142-.115.389-.114 1.578-.182 2.629-.114 1.051.069 3.817.092 6.126.069zm357.003 31.954c.069.137.023.251-.114.251a.254.254 0 0 1-.252-.251c0-.115.046-.229.115-.229.045 0 .16.114.251.229z"/>
	<path d="M268.909 17.91c-.389.251-.8 1.12-1.211 2.468-.183.64-.48 1.166-.64 1.166-.16 0-.732-.754-1.258-1.691-1.028-1.783-1.76-2.263-2.445-1.578-.297.298-.366.915-.343 3.269.023 1.577.114 3.04.183 3.223.228.617.777.617 1.463.046l.662-.572.526.572c.709.777 1.417.731 2.24-.115l.709-.685.365.571c.229.343.618.571.983.571.457 0 .617-.16.732-.708.091-.389.297-.846.48-1.006.274-.206.343-.137.343.457 0 1.44 1.28 1.897 1.577.572.297-1.326.388-1.486.983-1.623.868-.229 1.76.343 2.102 1.303.343 1.051.915 1.371 1.44.845.32-.32.366-.64.229-1.622a29.591 29.591 0 0 1-.206-2.583c-.023-1.097-.137-1.486-.594-1.966-1.074-1.143-3.634-1.463-5.006-.617-.983.594-1.143.594-1.92-.023-.64-.503-.983-.571-1.394-.274zm6.857 2.08c.457.548-.114 1.074-1.12 1.074-.846 0-1.211-.389-.96-1.074.092-.206.457-.366.96-.366.457 0 .96.183 1.12.366zm-4.64.663c-.068.16-.114.022-.114-.298s.046-.457.114-.297a.884.884 0 0 1 0 .595zm43.611-2.355c-.868.389-1.051.869-1.051 3.132 0 1.257-.069 1.6-.274 1.394-.16-.183-.252-.937-.229-1.874.069-1.852-.366-2.766-1.28-2.766-.663 0-1.509.937-1.737 1.92-.183.754-.777 1.691-1.074 1.691-.115 0-.526-.64-.915-1.44-.777-1.53-1.6-2.262-2.285-2.01-.709.273-.892 1.28-.709 3.976.229 3.474.663 3.863 1.92 1.714.251-.388.32-.342.731.526.618 1.303 1.28 1.372 2.355.206.868-.96.823-.96 1.211.274.137.434.846.457 1.692.069.548-.252.685-.229.937.114.503.686 1.257.503 1.554-.343.137-.411.274-.937.274-1.166 0-.777 1.6-1.005 2.195-.297.205.229.502.8.662 1.303.32 1.029 1.052 1.326 1.692.663.457-.434.48-.434 1.486.114 1.28.686 2.902.96 3.61.595 1.075-.549 1.624-1.235 1.624-2.035 0-1.508-.366-2.011-2.035-2.765-.914-.412-1.554-.846-1.554-1.052 0-.48.96-.48 1.554-.023.55.412 1.463.48 1.67.137.25-.388-.64-1.645-1.464-2.034-.526-.251-1.12-.32-1.92-.228-.96.114-1.325.32-1.943 1.028-.8.869-.8.869-1.211.389-.229-.275-.709-.686-1.074-.915-.869-.525-3.429-.708-4.412-.297zm3.429 1.966c.32.846-1.463 1.417-2.08.686-.229-.275-.229-.435 0-.709.411-.503 1.897-.48 2.08.023zm4.823 2.24c.388 0 2.217 1.029 2.217 1.257 0 .229-1.006.914-1.372.914-.16 0-.662-.32-1.12-.731-.594-.526-1.028-.709-1.508-.663-.549.069-.686-.023-.754-.48-.046-.32-.023-.846.068-1.166l.137-.594 1.006.732c.549.411 1.143.731 1.326.731zm-23.474-3.543c-.366.686-.618.846-1.692 1.143-.48.137-1.051.457-1.303.731-.548.618-.8.595-1.485-.045-.458-.435-.915-.572-2.355-.64-1.577-.069-1.783-.023-2.08.411-.388.64-.503.64-1.577-.091-1.074-.732-2.171-.755-3.017-.092-.64.503-.846 1.257-.389 1.532.16.114.069.457-.251.96-.48.8-.617 1.92-.297 2.445.114.16.457.389.777.526.754.274 3.909 0 4.366-.388.183-.16.571-.229.845-.138.686.16 1.258-.731 1.235-1.897-.046-.983.343-1.623 1.005-1.623.48 0 .709.64.709 2.035 0 .525.114 1.12.229 1.325.205.32.32.298.937-.068.685-.389.708-.389 1.6.32.503.388 1.028.708 1.188.708.8 0 2.789-.8 2.995-1.188.274-.503.297-2.972.045-5.052-.137-1.12-.228-1.325-.685-1.394-.343-.046-.618.114-.8.48zM287.4 21.795c-.068.138-.297.229-.48.229-.205 0-.343-.091-.343-.229 0-.137.206-.251.48-.251.275 0 .435.114.343.251zm12.092.915c.137 1.417-1.143 2.08-1.692.891-.411-.937.092-1.851.937-1.76.572.069.686.206.755.869zm-19.886 2.103c0 .205.114.297.251.228.115-.091.23-.251.23-.388a.246.246 0 0 0-.23-.229c-.137 0-.25.183-.25.389zm48.868-.229c-.068.091-.137.366-.137.617 0 .503.754.594 1.143.114.434-.525-.503-1.211-1.006-.731zm72.64 4.343c-.526.526-.823 2.926-.663 5.28.091 1.463.183 1.646.846 1.828.64.16 1.143-.365 1.325-1.417.183-1.005.48-1.165 1.578-.891.662.183.868.411 1.188 1.28.32.846.526 1.074.96 1.074.549 0 .572-.068.617-1.874.023-1.029.092-2.24.183-2.674.137-.755.046-.938-.823-1.806-.868-.869-1.074-.983-2.125-.983-.64 0-1.509-.046-1.898-.137-.525-.114-.845-.023-1.188.32zm3.406 1.828c.64.48.251.869-.823.869-.983 0-1.349-.251-1.12-.846.16-.434 1.348-.457 1.943-.023zm-41.463-1.28c-.343.389-.891 1.555-1.234 2.583-.892 2.675-1.12 2.926-2.515 2.926-1.782 0-2.034-.297-2.125-2.72-.092-2.309-.343-3.269-.892-3.269-.708 0-.914.96-.8 3.863.137 3.749.046 3.657 3.497 3.52l2.72-.091.915-1.006c.525-.548 1.12-1.006 1.348-1.006.229 0 .777.389 1.212.869.685.754.983.891 1.965.96a56.98 56.98 0 0 1 2.446.229c1.669.205 2.88-.183 4-1.235l.891-.823-.16-1.714c-.228-2.834-1.302-3.794-4.137-3.794-.982 0-1.805.114-1.965.274-.183.183-.297 1.12-.297 2.583 0 1.257-.092 2.446-.23 2.629-.342.571-.936.091-1.21-.983-.618-2.309-1.943-4.526-2.72-4.526-.069 0-.389.343-.709.731zm8.617 1.098c1.143.32 1.394 2.308.411 3.451-.525.64-.777.754-1.485.686-.777-.069-.869-.16-1.052-1.029-.274-1.188-.091-2.766.343-3.04.366-.228 1.052-.251 1.783-.068zm13.577-1.395c-.32.595.046 6.492.412 6.857.228.229.411.138.868-.388.343-.366.594-.869.594-1.074.023-.252.229-.046.48.457.275.503.686.96.96 1.051.526.16 1.623-.411 1.989-1.006.297-.48.571-.388.754.252.16.708.732.96 1.395.594.342-.183.64-.183 1.097.023.594.274.685.229 1.485-.686 1.12-1.303 1.76-1.303 2.903.023.617.686.983.937 1.257.846.572-.229.755-.823.457-1.44a6.25 6.25 0 0 1-.434-1.143c-.183-.709-1.668-3.771-2.057-4.229-.64-.777-2.126.16-2.469 1.555-.25 1.005-1.37 3.405-1.6 3.405-.228 0-.365-.822-.57-3.108-.092-1.12-.275-1.692-.618-2.034-.663-.686-1.143-.32-2.057 1.554-.983 2.034-1.417 2.034-2.194.114-.32-.8-.686-1.577-.823-1.737-.366-.457-1.577-.389-1.829.114zm1.166 2.812a.376.376 0 0 1-.366.365c-.388 0-.48-.274-.206-.571.275-.274.572-.16.572.206zm-11.52-2.423c0 .32.388 1.143.846 1.828.822 1.189 1.302 2.332 1.645 3.909.115.48.297.64.709.64.64 0 .868-.389.868-1.463 0-.754.389-1.668 1.326-3.2 1.234-2.011.389-3.063-1.097-1.371-.503.548-1.051 1.005-1.257 1.005-.206 0-.617-.342-.914-.777-.686-.96-.915-1.143-1.6-1.143-.412 0-.526.138-.526.572zm32.983-.16c-.503.503-.435.868.274 1.531.8.755 1.714 2.56 1.92 3.772.183 1.211.434 1.6.914 1.417.457-.183.869-1.143.869-2.012 0-.342.297-1.12.663-1.737.617-1.005 1.257-2.468 1.257-2.903 0-.114-.183-.251-.389-.342-.228-.092-.686.205-1.28.845-1.028 1.143-1.531 1.12-2.286 0-.548-.823-1.44-1.074-1.942-.571zm-142.857.96c-.823.16-1.005.777-1.165 3.863-.092 2.354-.069 2.88.251 3.131.594.503 1.189.229 1.349-.64.228-1.12.868-1.737 1.805-1.737 1.189 0 1.966-.366 2.469-1.189.228-.388.503-.64.594-.548.092.068.16 1.051.16 2.148 0 1.806.046 2.012.549 2.332 1.234.777 4.251.64 4.891-.229.48-.64 0-.983-1.623-1.165-1.508-.183-1.965-.55-1.417-1.212.16-.206.686-.366 1.189-.366.48 0 1.074-.137 1.325-.32.732-.548.298-1.051-1.12-1.28-.868-.137-1.302-.32-1.348-.594-.046-.297.228-.411 1.417-.526.823-.091 1.623-.274 1.806-.411.228-.206.571-.183 1.211.023.503.16 1.052.343 1.212.366.32.091.48 1.988.365 4.182-.068 1.166.366 1.76 1.097 1.509.663-.251.755-.571.755-2.834 0-1.372.114-2.286.297-2.469.411-.388 2.88-.366 3.451.046.389.297.457.731.549 2.88.068 2.217.137 2.537.503 2.537.891 0 1.257-.823 1.417-3.269l.16-2.354 1.028-.343c.572-.16 1.097-.251 1.166-.183.091.092.183 1.372.183 2.88.046 2.903.16 3.269.868 3.269.526 0 .732-.274.938-1.28.182-.914.502-.937.914-.137.388.846 1.074 1.417 2.103 1.783.708.228 1.143.228 2.514-.092.914-.228 1.76-.503 1.897-.64.114-.114.252-.845.343-1.6.114-1.211.069-1.463-.389-1.897-.434-.388-.708-.457-1.577-.32-.571.092-1.211.206-1.394.274-.571.229-.343.8.526 1.212.457.228.823.457.823.526 0 .297-.366.685-.915.96-.868.457-1.76-.298-2.148-1.806-.366-1.44-.229-2.126.571-2.652.594-.388.663-.365 2.034.298 1.349.64 1.463.662 1.852.274.526-.549.228-1.052-1.052-1.783-1.531-.891-3.177-.64-4.8.731-.411.343-.822.64-.891.64-.069 0-.251-.388-.389-.845-.251-.686-.411-.846-.982-.846-.366 0-.755.114-.846.274-.092.16-.252.16-.457-.023-.206-.16-1.76-.297-3.886-.342-1.966-.046-4.48-.16-5.6-.252-1.874-.16-2.08-.137-2.491.32-.457.503-.457.503-1.12.023-1.189-.846-4.526-.503-5.303.526-.366.48-.503.525-.846.274-1.691-1.166-2.948-1.463-4.823-1.097zm2.355 1.76c.594.32.594.617 0 .937-.572.32-1.692-.069-1.692-.571 0-.572.914-.778 1.692-.366zm33.119-1.349c-.365.457-.502 5.372-.182 6.446.297.914 1.005.846 1.37-.137.755-2.012.664-1.92 1.624-1.737 1.143.205 1.508.525 1.508 1.257 0 .777.412 1.508.823 1.508.709 0 1.074-1.028 1.029-2.811-.046-.937.023-1.783.137-1.897.366-.389.64.548.64 2.331 0 2.4.228 2.606 2.743 2.606 2.011 0 2.788-.251 2.788-.937 0-.526-.457-.732-1.668-.732-1.715 0-2.332-1.234-.755-1.531.412-.091 1.052-.206 1.463-.297.549-.092.709-.252.709-.686 0-.617-.412-.846-1.532-.846-.868 0-1.737-.525-1.508-.891.091-.137.731-.297 1.463-.366.708-.045 1.485-.251 1.714-.434.366-.297.343-.366-.137-.754-.412-.343-.96-.435-2.537-.435-2.08 0-2.743.275-2.743 1.166-.023 1.029-.412 1.052-1.349.069-.914-.96-.96-.96-3.108-1.12-1.829-.137-2.217-.092-2.492.228zm3.452 1.577c.8.298.823 1.143.045 1.326-1.165.297-2.08-.32-1.76-1.166.183-.457.8-.502 1.715-.16zm9.988-.548c0 1.143 1.029 4.937 1.532 5.714.754 1.143 1.6.663 2.491-1.394.732-1.669 1.143-1.463 1.646.914.183.846.274.96.983 1.029.731.068.823 0 1.28-1.075.251-.64.617-1.462.823-1.828.205-.389.365-1.006.365-1.372 0-.388.092-.982.229-1.325.343-.915.091-1.555-.594-1.555-.64 0-1.555 1.006-1.555 1.692 0 .846-.457.686-1.074-.366-.663-1.143-1.577-1.6-2.263-1.166-.206.138-.526.686-.708 1.258-.183.548-.435.982-.549.937-.114-.046-.457-.572-.754-1.166-.412-.823-.686-1.097-1.212-1.143-.617-.068-.64-.023-.64.846zm9.875 2.926c-.183.114-.298.411-.252.662.069.343.297.435 1.166.435.983 0 1.074-.046 1.074-.595 0-.502-.114-.617-.823-.662-.48-.023-1.005.022-1.165.16zm-47.909 6.377c-.48.342-1.143.914-1.463 1.257l-.571.663-.914-.892c-1.052-1.006-2.035-1.394-3.726-1.394-1.783 0-2.011.366-2.217 3.703-.114 2.057-.092 2.903.114 3.154.64.777 1.44.16 1.669-1.28.114-.777.228-.891.914-.96 1.12-.114 1.646.274 1.829 1.371.091.526.251 1.029.388 1.098.457.274 1.143-.138 1.44-.846.32-.777.594-.892.8-.366.229.594 2.012 1.577 3.132 1.737 1.188.16 3.017-.525 3.725-1.394l.434-.549.412.778c.411.8 1.463 1.485 2.263 1.485 1.211 0 3.268-.754 3.817-1.371.366-.434.617-.572.686-.366.594 1.417 1.6 1.554 2.08.297.342-.914.548-.914.731 0 .32 1.555 1.486 1.075 1.783-.731.274-1.509.731-1.463 2.057.251.617.777 1.257 1.44 1.417 1.44.137 0 .572-.274.937-.64l.663-.64.846.755c1.806 1.577 4.96 1.165 5.554-.709.206-.686.731-.526 1.44.389.663.868 1.737 1.325 3.177 1.325 1.006 0 1.646-.32 2.606-1.348.434-.435.868-.8.96-.8.114 0 .366.343.571.754.183.434.48.8.64.869.366.114 1.257-1.349 1.257-2.058.023-.891.64-.617 1.418.618 1.165 1.805 2.422 2.217 2.88.96.114-.298.274-1.623.365-2.926.16-2.492.023-3.04-.823-3.04-.571 0-.777.366-.937 1.577-.16 1.234-.685 1.303-1.44.206-1.005-1.44-1.417-1.783-2.171-1.783-.549 0-.8.183-1.074.731-.206.389-.458.709-.549.709-.091 0-.503-.32-.891-.732-.389-.434-1.029-.89-1.44-1.074-.892-.366-2.698-.114-3.612.48-.823.549-2.011 1.852-2.034 2.24 0 .16-.252.297-.549.297-.48-.023-.48-.045-.114-.251 1.394-.823-.914-3.086-3.154-3.109-.64 0-1.006.206-1.692.96-.502.526-1.005.96-1.142.96-.138 0-.389-.343-.526-.731-.183-.572-.366-.732-.8-.663-.297.046-.549.229-.594.434-.229 1.829-.343 2.149-.8 2.149-.252 0-.618-.274-.8-.64-.572-1.097-1.578-1.989-2.172-1.989-.343 0-.777.252-1.051.595l-.457.594-.503-.594c-1.006-1.143-1.76-.549-1.829 1.44-.023 1.371-.183 1.714-.594 1.462-.32-.205-.343-1.165-.023-1.462.137-.16-.069-.572-.549-1.166-.754-.892-.868-.937-2.491-1.052-2.263-.16-2.903.023-3.109.846-.25 1.074-.342 1.074-1.37-.023-1.532-1.645-3.315-2.011-4.824-1.005zm-4.823 2.034c.183.297-.731.548-1.302.366-.595-.183-.618-.503-.069-.8.411-.229 1.097-.023 1.371.434zm7.795-.48c.64.343 1.051 1.714.754 2.468-.549 1.418-2.286 1.829-3.269.755-.32-.366-.594-.709-.594-.777 0-.503.526-1.852.869-2.218.434-.502 1.531-.594 2.24-.228zm31.542.594c1.303 1.234.457 3.497-1.325 3.497-.96 0-1.875-.823-1.875-1.668 0-2.035 1.852-3.086 3.2-1.829zm-24.868-.046c-.114.343-1.372.572-1.372.229 0-.343.275-.526.892-.526.343 0 .548.115.48.297zm17.28.069c.777.549.685.914-.229.754-1.005-.205-1.531-.64-1.097-.914.434-.297.731-.251 1.326.16zm-3.794.937c.16.183 1.05.64 2.01 1.006 2.104.8 2.218.891 1.715 1.371-.457.48-1.348.343-2.331-.343-.343-.251-.96-.457-1.372-.457-.571 0-.754-.114-.868-.594-.274-1.097.251-1.691.846-.983zm-12.938 1.692c0 .251-.274.365-.845.365-.595 0-.846-.114-.846-.365 0-.252.251-.366.846-.366.571 0 .845.114.845.366zm59.314 50.308c-.571.274-1.12.731-1.234 1.028-.32.823-.32 4.572-.046 8.778.183 2.56.183 4.73.023 6.857-.137 1.737-.183 5.462-.114 8.297.091 2.811.137 5.325.137 5.554-.068.96-.068 2.606-.023 7.931 0 .16.046 3.109.115 6.537.274 12.412.228 15.795-.206 16.617-.823 1.623-.183 2.218 2.24 2.035l1.645-.115 2.012 1.875c1.097 1.028 2.491 2.468 3.086 3.2.594.708 1.691 1.988 2.468 2.811 1.44 1.6 1.623 2.057.983 2.766-.206.228-.32.594-.251.8.411 1.028 2.56-.297 4.731-2.926 2.126-2.56 2.926-4.137 2.994-5.851.069-1.577-.251-2.103-1.051-1.669-.457.229-.869 1.143-1.486 3.36-.32 1.143-1.92 2.857-2.651 2.88-.206 0-2.126-1.714-4.252-3.817-3.177-3.154-4.16-3.977-5.554-4.686-.937-.457-1.691-.937-1.691-1.028-.023-.092-.069-8.549-.115-18.789-.045-10.217-.182-21.988-.297-26.148-.205-8.411-.205-12.137.023-13.051.206-.778 1.646-1.212 3.451-1.029l1.258.137 4.32 4.343c2.377 2.4 4.32 4.457 4.32 4.594 0 .115-.229.549-.526.914-.412.595-.457.778-.206 1.075.389.48.594.48 1.577 0 .96-.457 3.955-3.932 4.777-5.554 1.943-3.863 2.058-5.12.48-5.12-.205 0-.525.411-.731.914-.206.503-.549 1.28-.731 1.737-1.258 2.926-2.378 4.297-3.155 3.863-.228-.114-2.423-2.24-4.914-4.686-2.469-2.468-4.777-4.571-5.097-4.708-.343-.115-1.669-.229-2.949-.229-1.805.023-2.56.114-3.36.503z"/>
	<path d="M361.937 117.658c-.823.228-1.143.457-1.349 1.005-.16.366-.228.8-.16.915.069.114.138 1.28.16 2.605.023 2.858.183 3.04 2.446 3.04 1.852 0 2.606-.274 3.452-1.234.708-.8 1.21-.754 1.21.16 0 1.394 1.464 1.349 1.92-.068.39-1.212.664-1.486 1.44-1.486.755 0 1.44.754 1.44 1.577s.618 1.211 1.464.891c.548-.205.845-.205 1.348.069.96.503 4.937.48 5.349-.023.48-.571-.183-1.074-1.852-1.394-1.142-.229-1.394-.366-1.394-.754 0-.366.183-.503.709-.572.411-.023 1.143-.16 1.645-.297 1.166-.297 1.12-.96-.091-1.234a52.393 52.393 0 0 0-1.417-.343c-1.143-.274-1.052-1.029.114-1.029.846-.023 2.217-.503 2.354-.823.252-.685-.251-.891-2.354-.982-2.377-.092-3.246.114-3.246.822 0 .64-.365.8-.731.343-.709-.823-2.08-1.303-3.909-1.303-1.92 0-2.377.252-2.697 1.509-.228.914-.64.823-1.714-.389-.754-.891-1.074-1.074-1.988-1.165-.595-.069-1.555 0-2.149.16zm2.491 1.805c.412.16.686.526.892 1.212.251.868.228 1.097-.137 1.783-.412.777-1.235 1.325-1.966 1.325-.503 0-.8-1.005-.8-2.628 0-1.097.091-1.463.411-1.669.526-.297.846-.297 1.6-.023zm7.2.046c.777.366.8.869.046 1.052-1.257.32-2.126-.503-1.166-1.075.526-.297.412-.297 1.12.023zm3.04 1.966c-.183.183-.251.16-.251-.114 0-.48.32-.8.434-.435.046.137-.023.389-.183.549zm.229 1.257c0 .343-.114.549-.252.457-.137-.068-.228-.411-.228-.731 0-.343.091-.549.228-.457.138.068.252.411.252.731zm8.754-5.142c-1.531.845-2.24 2.445-1.463 3.29.343.39 1.989 1.235 3.086 1.578.663.205.8.868.274 1.257-.594.434-1.485.228-2.331-.594-.526-.503-.754-.572-1.074-.366-.572.343-.663 1.234-.16 1.783.228.251.982.64 1.691.868 1.097.343 1.394.343 2.24.069.526-.16 1.143-.503 1.371-.754.549-.595 1.28-.549 1.943.137.777.823 2.88 1.143 3.977.594.275-.137.755-.549 1.052-.891l.525-.64.71.685c.89.846 1.302.732 1.919-.594l.457-1.006.16.937c.229 1.166.503 1.509 1.097 1.372.457-.137.892-.96 1.006-1.989.114-.983.8-.891 1.234.183.435 1.097 1.417 1.966 2.24 1.966.412 0 .64-.229.915-.846.182-.457.411-.846.502-.846.092 0 .64.435 1.189.96 1.211 1.12 2.103 1.326 4.16 1.006 1.989-.32 2.194-.526 2.194-2.08 0-1.166-.068-1.326-.868-1.988-.755-.64-.96-.686-1.577-.48-1.006.365-1.12.891-.366 1.531.8.686.823 1.006.068 1.303-.594.228-1.485.091-1.988-.297-.457-.366-.412-3.406.046-3.772.434-.365 1.851-.16 2.788.412.869.503 1.463.251 1.372-.572-.115-1.005-1.052-1.531-3.018-1.691l-1.737-.16-1.12 1.051-1.143 1.052-.228-.755c-.229-.845-.937-1.234-1.463-.8-.16.138-.389.846-.48 1.578-.183 1.417-.411 1.622-.869.777a3.43 3.43 0 0 0-.731-.869c-.251-.16-.617-.617-.823-1.006-.868-1.691-2.468-.937-2.537 1.189l-.023 1.097-.16-1.211c-.183-1.417-.571-2.035-1.348-2.035-.709 0-.823.389-.823 2.538 0 .96-.115 1.828-.252 1.92-.137.068-.594-.229-1.028-.663-.435-.435-1.372-.983-2.057-1.235-.686-.251-1.212-.571-1.166-.708.137-.434 1.074-.457 1.669-.046.708.48 1.554.457 1.828-.068.343-.618-.069-1.166-1.417-1.852-1.051-.526-1.326-.571-2.149-.366-1.005.275-2.057 1.349-2.308 2.332-.252.983.548 1.806 2.263 2.354 1.44.457 1.965.937 1.508 1.394-.434.435-1.485.229-2.148-.388-.366-.366-.892-.64-1.166-.64-.297 0-1.029-.434-1.623-.96-.617-.526-1.211-.96-1.348-.96-.138 0-.618-.16-1.052-.343-.594-.251-.8-.457-.708-.731.205-.503.96-.458 1.554.114.663.686 1.668.64 1.668-.069 0-1.623-2.445-2.88-3.954-2.057zm-13.783 11.428c-.457.388-.502.685-.525 3.451-.023 1.691.045 3.154.137 3.314.091.137.366.252.617.252.48 0 .8-.526 1.051-1.737.137-.595.252-.663 1.097-.663.892 0 1.006.068 1.35.891.662 1.554.73 1.623 1.325 1.623.434 0 .617-.183.823-.8.228-.686.297-.731.571-.411.16.205.8.685 1.394 1.097.823.548 1.372.708 2.195.708 1.28 0 1.874-.297 2.765-1.371.777-.937 1.372-.983 1.806-.183.366.686 2.446 1.806 3.337 1.806.32 0 1.28-.389 2.126-.846.846-.457 1.577-.846 1.646-.846.068 0 .228.275.342.617.16.412.412.595.846.595.411 0 .686-.183.869-.595.342-.754.731-.777 1.051-.068.457 1.051 2.034.823 2.674-.366l.412-.777.251.891c.252 1.052.937 1.418 1.554.8.32-.32.389-.914.389-3.382 0-2.72-.046-3.063-.48-3.36-1.12-.823-2.034-.137-2.514 1.897-.275 1.165-.412 1.371-.8 1.303-.343-.046-.64-.458-.983-1.418-.914-2.422-1.669-2.834-2.926-1.622l-.823.8-.685-.663c-.915-.869-2.56-1.372-3.772-1.12-1.44.274-1.737.457-1.988 1.211-.275.777-1.143.983-1.395.366-.068-.206-.617-.709-1.234-1.12-1.006-.663-1.257-.731-2.423-.617-.868.091-1.577.343-2.24.8-.548.366-1.12.777-1.325.914-.252.183-.412.114-.618-.228-.822-1.372-1.234-1.578-3.36-1.578-1.577 0-2.148.115-2.537.435zm3.772 1.805c.091.503-.8.892-1.715.709-1.257-.229-.548-1.326.8-1.211.572.045.87.205.915.502zm7.405-.205c.526.16.8.982.8 2.377-.022 1.028-.8 1.92-1.691 1.92-.411 0-.96-.229-1.326-.572-.548-.525-.617-.731-.525-1.783.091-.914.274-1.302.777-1.737.365-.32.823-.525 1.051-.457.206.069.617.183.914.252zm8.138.48c.457.457.594.845.594 1.691 0 1.394-.777 2.286-1.966 2.286-1.188 0-1.874-.8-1.874-2.149 0-1.166.251-1.691 1.074-2.126.777-.434 1.532-.32 2.172.298zM94.99 182.937c-.48.16-1.234.617-1.668.96l-.778.663-.685-.868c-.686-.846-.732-.869-2.446-.869-2.354 0-3.177.549-3.771 2.469-.366 1.234-.389 1.485-.046 2.56.754 2.582 2.994 3.748 5.074 2.697.526-.275 1.189-.777 1.44-1.097.594-.732.8-.778 1.189-.138.503.8 2.08 1.44 3.52 1.44 1.668 0 2.422-.342 3.062-1.371.595-.96.938-1.006.938-.114 0 1.143.662 1.531 2.651 1.508 1.166 0 1.92-.137 2.331-.411.435-.274.732-.32 1.098-.16.662.297 1.12.137 1.12-.412 0-.548-.64-.8-1.235-.48-.32.183-.594.183-.914 0-.251-.137-.891-.251-1.394-.251-.503 0-1.052-.091-1.212-.183-.16-.114-.388-1.166-.525-2.491-.138-1.257-.32-2.469-.389-2.675-.229-.617-1.234-.48-1.691.206l-.412.617-.617-.594c-.663-.64-2.377-1.349-3.223-1.349-.297.023-.914.16-1.417.343zm-4.548 2.172c.388.343.937.594 1.211.594.434 0 .526.16.526.823 0 .663-.115.846-.595.96-.32.091-.822.48-1.097.868-1.074 1.509-2.88.48-2.88-1.6 0-1.325.115-1.531.96-1.92.869-.411 1.097-.388 1.875.275zm7.36-.229c.502.526.502 2.926 0 3.657-.572.8-1.67.709-2.56-.205-.686-.663-.732-.823-.595-1.852.115-.731.343-1.28.663-1.554.64-.503 1.989-.526 2.491-.046zm35.382-1.348c-.503.388-.503.502-.297 3.748.183 3.2.229 3.36.731 3.429.343.045.663-.137.938-.549l.411-.617.617.594c.96.915 1.829.823 2.469-.251l.525-.892.343.755c.435.914.823 1.074 1.623.708.457-.205.663-.205.869.023.16.137.594.274.96.274.525 0 .685-.137.8-.594.068-.343.16-.868.228-1.188.252-1.143 2.286-.96 2.286.228 0 .869.983 1.897 1.623 1.692.274-.092.571-.366.663-.64.182-.572.708-.595 1.12-.023.754 1.074 2.925 1.577 4.114.983 1.76-.915 2.126-2.423.937-3.863-.846-1.029-1.006-1.143-1.783-1.143-.891-.023-1.394-.252-1.394-.64 0-.526 1.28-.412 1.897.183.457.434.64.457 1.143.228.868-.388.686-1.394-.366-2.125-.617-.389-1.166-.549-2.171-.549-1.257 0-1.44.091-2.263.914-.48.503-.869 1.097-.869 1.326 0 .846 1.006 1.851 2.263 2.24 1.554.48 2.149.914 1.966 1.394-.252.64-1.532.457-2.24-.274-.457-.503-.846-.663-1.486-.663h-.868v-1.577c-.023-1.966-.435-2.674-1.92-3.246-1.44-.548-3.772-.365-4.549.366l-.526.503-.571-.617c-.32-.32-.64-.595-.754-.595-.549 0-1.852 1.532-2.172 2.56-.205.618-.48 1.166-.617 1.212-.137.068-.48-.412-.754-1.006-1.029-2.354-1.966-3.086-2.926-2.308zm12.229 1.988c-.092.617-1.303 1.052-1.806.64-.617-.503.023-1.074 1.326-1.143.434-.023.525.092.48.503zm-18.263-1.531c-.366.365-1.143.8-1.737.983-.617.182-1.212.525-1.349.777-.32.617-.731.571-1.646-.275-.457-.388-.982-.708-1.188-.708-.869 0-2.56.526-2.971.891-.343.32-.526.343-.846.115-1.097-.778-2.309-1.28-2.789-1.166-.297.068-.845.411-1.211.754-.503.48-.617.777-.526 1.257.069.366-.023 1.006-.206 1.417-.434 1.029-.137 2.012.755 2.538.617.365.983.388 3.108.16 3.292-.32 3.474-.412 3.474-1.852 0-.663.138-1.348.343-1.623.366-.457.366-.457.732 0 .183.252.365.823.365 1.257 0 1.738.892 2.56 1.829 1.646.297-.32.457-.274 1.303.274.846.549 1.097.618 2.308.458 2.218-.252 2.309-.458 2.149-3.886-.091-1.6-.206-3.086-.297-3.292-.229-.594-.892-.48-1.6.275zm-11.931 2.834c0 .046-.298.091-.663.091-.48 0-.572-.068-.32-.228.297-.183.983-.092.983.137zm11.748 1.303c0 .754-.526 1.074-1.211.708-.572-.32-.595-1.142-.069-1.897l.389-.571.457.548c.228.298.434.823.434 1.212zm224.456.274c-.823.412-.686 1.12.297 1.532.983.411 1.326.96 1.143 1.851-.16.891.388 3.451.823 3.817.64.526.982-.274 1.165-2.56.092-1.188.252-2.286.389-2.446.251-.32 1.6-.685 1.806-.48.068.069.16 1.12.228 2.355.137 2.811.229 3.245.686 3.405.503.206 1.326-.662 1.326-1.348 0-.937.662-1.623 1.554-1.623.754 0 .846.091 1.051.914.137.503.275 1.12.32 1.372.115.64 1.143.8 1.555.228.182-.251.32-.777.32-1.211 0-.434.091-.846.205-.914.229-.138.526.982.526 2.057 0 1.005.8 1.257 3.36 1.005 1.966-.182 2.034-.228 2.103-.845.091-.686.251-.617-2.469-1.052-.594-.091-.845-.251-.845-.548 0-.343.297-.48 1.37-.663 1.258-.183 1.395-.274 1.464-.846.068-.548-.046-.686-.732-.891a10.442 10.442 0 0 0-1.371-.32c-1.097-.137-.686-.732.663-1.052 1.417-.32 1.851-.617 1.646-1.143-.16-.434-3.063-.754-4.115-.457-.731.206-.891.503-1.211 2.103-.137.686-.16.686-.503.252a2 2 0 0 1-.32-.983c0-1.326-1.417-1.395-1.76-.115-.297 1.166-.594 1.44-1.509 1.44-.914 0-1.531-.525-1.531-1.28 0-.845-.571-1.462-1.189-1.302-.297.091-1.462 0-2.605-.206-2.446-.389-3.109-.389-3.84-.046zm24.662.366c-1.142.206-1.188.411-1.188 3.68 0 2.354.068 3.154.343 3.428.183.183.983.412 1.783.503 1.805.206 3.337-.365 4-1.508.525-.892.982-.96 1.28-.206.617 1.554 3.017 2.309 4.891 1.531.869-.365 1.189-.822 1.486-2.148.183-.869.708-.732.8.206.114 1.12.548 2.01.983 2.01.617 0 .982-.48.982-1.348 0-1.211.869-1.097 2.012.275.891 1.097 1.485 1.325 2.011.8.457-.457.343-.983-.411-1.92-1.349-1.6-1.349-2.286-.092-3.475.64-.617.732-1.462.183-1.691-.411-.137-2.011.503-2.011.846 0 .297-1.417 1.051-1.692.891-.137-.091-.228-.343-.228-.594 0-.229-.183-.572-.389-.754-.32-.275-.503-.252-1.12.091-.708.411-.754.411-1.325-.114l-.572-.549-.457.572c-.457.548-.526 1.005-.571 3.565-.046 1.349-.298 1.737-1.258 1.737-.274 0-.754-.205-1.051-.457-.503-.388-.571-.617-.503-2.194.069-1.966-.274-3.109-.937-3.109-.503 0-1.189.869-1.189 1.486s-.365.526-.685-.183c-.503-1.12-2.88-1.76-5.075-1.371zm2.88 1.988c.686.686.846 1.623.458 2.743-.298.892-.412.983-1.258 1.052-1.371.114-1.645-.229-1.508-2.035.046-.845.228-1.691.388-1.874.412-.503 1.349-.457 1.92.114zm10.332.48c0 .755-.412.983-.64.366-.114-.32.251-1.097.548-1.097.046 0 .092.343.092.731zm9.828-2.4c-.32.115-.96.206-1.417.206-1.28.046-1.44.48-1.463 3.772 0 3.725.046 3.794 3.063 3.725 2.354-.023 2.949-.16 2.949-.594 0-.663-.869-1.12-2.103-1.12-.823 0-1.372-.114-1.623-.389-.503-.48-.137-.8.983-.8 1.188 0 2.263-.457 2.263-.982 0-.572-.709-.938-1.875-.938-1.005 0-1.531-.342-1.325-.868.068-.206.503-.343 1.12-.343 1.554 0 2.08-.206 2.08-.823 0-.411-.206-.64-.777-.823-.846-.297-1.029-.297-1.875-.023zm-140.182.343c-1.303.549-2.103 1.349-2.468 2.469-.503 1.417-.48 1.554.114 2.948.32.755.823 1.395 1.44 1.806.823.572 1.097.64 2.08.503.617-.091 1.554-.366 2.103-.64l.96-.457.388.503c.343.48.458.503 1.143.228.412-.183.755-.411.755-.525 0-.366 1.028-1.189 1.531-1.189.274 0 .869.457 1.371 1.029.869 1.028.892 1.028 1.555.64.525-.32.777-.343 1.12-.138.594.389 1.234-.068 1.325-.982.092-.983.549-1.303 1.623-1.212.846.069.937.137 1.303 1.28.412 1.234.937 1.6 1.577 1.052.297-.23.32-.71.206-2.629-.091-1.28-.091-2.606-.023-2.949l.16-.594 1.029.389c.548.205 1.074.411 1.142.48.046.045.16 1.165.23 2.491.113 1.989.205 2.469.593 2.743.389.274.503.274.869-.046.343-.32.411-.777.388-2.628-.022-1.257.07-2.355.206-2.492.114-.114.663-.251 1.189-.297l.96-.091.023 1.851c.045 2.583.297 4.046.731 4.206.503.183.869-.274 1.166-1.44.274-1.212 1.165-1.783 2.217-1.44.503.183.686.434.846 1.211.365 1.829 1.508 1.92 1.668.115.069-.96.549-1.303.777-.549.275.869 1.395 1.966 2.469 2.446.96.411 1.12.411 1.897.091a8.214 8.214 0 0 0 1.577-.983l.732-.617.525.64.526.663.823-.709c.457-.411 1.188-.8 1.623-.891.708-.137.914-.046 1.6.663.731.777.845.823 2.194.777.8-.046 1.554-.137 1.714-.229.137-.091.32-.64.412-1.234.182-1.257.502-1.417 1.577-.891.617.297.891.663 1.143 1.417.32 1.028.731 1.348 1.348 1.12.549-.206.686-1.166.389-2.4-.275-1.074-.16-2.834.205-3.406.115-.228.366-.228.983-.023 1.303.457 1.417.64 1.463 2.355.023 2.057.229 2.902.732 3.222.32.206.525.183.8-.114.297-.274.388-.914.388-2.697v-2.331l.892-.412c1.051-.48 1.188-1.257.274-1.508-.32-.092-1.417-.183-2.4-.183-1.417-.023-1.966.068-2.606.457l-.777.48-.617-.48c-.526-.412-.983-.503-2.834-.503-2.743 0-2.972.183-2.972 2.354 0 .846-.068 1.737-.16 1.989-.16.526-.823.64-.823.137 0-.183-.205-.571-.457-.891-.228-.32-.617-1.098-.846-1.715-.57-1.531-1.6-2.057-2.377-1.28-.32.32-1.234 2.355-2.102 4.617l-.275.686-.32-.777c-.434-1.006-.891-1.006-1.691.046-1.097 1.44-2.583 1.074-3.246-.777-.206-.64-.183-.938.183-1.669.617-1.28 1.44-1.509 2.811-.823 1.646.823 2.355.274 1.303-1.051-.708-.892-1.92-1.372-3.017-1.166-1.074.206-2.468 1.029-2.971 1.783l-.343.548-.549-.891c-.525-.914-.937-1.029-1.234-.366-.731 1.555-.891 1.783-1.463 1.852-1.097.137-1.828-.32-1.988-1.257-.206-1.029-.275-1.075-1.806-1.212-.663-.068-1.486-.228-1.829-.366-.343-.137-1.348-.251-2.263-.251-1.302 0-1.76.114-2.262.526-.64.48-.663.48-1.143.045-.64-.571-4.389-.777-5.074-.274-.526.389-.869 1.783-.892 3.474 0 .686-.091 1.303-.206 1.395-.342.183-1.645-2.012-1.851-3.086-.183-1.029-.846-1.829-1.486-1.829-.983.023-2.011 1.486-2.56 3.589-.457 1.806-.503 1.897-1.051 1.509-.8-.595-1.006-.572-1.737.045-.823.686-2.515.869-3.063.32-.412-.388-.366-2.605.068-3.223.526-.754 1.715-.891 2.698-.32.868.503 1.76.64 1.76.252 0-.366-.435-1.303-.846-1.783-.434-.571-2.423-.891-3.269-.526zm15.497 1.806c.64.251.846 1.074.298 1.257-.48.183-1.875-.274-2.012-.686-.274-.685.617-.982 1.714-.571zm35.406.48c.32.206.32.274 0 .594-.343.32-1.029.457-1.989.412-.48-.046-.571-.892-.114-1.075.526-.205 1.714-.16 2.103.069zm-118.994-2.126c-.434.092-.96.389-1.143.663l-.365.503-1.006-.526c-.731-.411-1.531-.571-2.971-.617-2.537-.114-2.72.092-2.72 3.246 0 1.646-.069 2.217-.297 2.217-.32 0-1.623-2.994-1.623-3.68 0-.594-1.029-1.531-1.829-1.691-.983-.206-1.211.114-2.331 3.2-1.257 3.497-1.257 3.542-.663 3.84.411.228.617.137 1.417-.572 1.303-1.166 2.263-1.166 2.949 0 .525.869.891 1.006 1.691.572.343-.183.571-.183.8.022.183.16.594.252.891.206.435-.068.572-.274.709-1.028.183-1.166.777-1.646 1.76-1.44 1.051.228 1.143.32.983 1.005a1.05 1.05 0 0 0 .251 1.052c.503.548 1.486.594 1.692.068.114-.32.205-.297.662.115.275.25.96.548 1.509.617 3.314.434 2.903.503 4.16-.846l1.143-1.234.686 1.051c.571.869.868 1.074 1.782 1.257.892.16 1.28.115 2.195-.297 1.531-.663 1.943-1.394 2.034-3.611.091-2.309.16-2.537.777-2.195.252.138.732.229 1.052.229.548 0 .617.137.754 1.28.068.686.16 1.897.183 2.697.045 1.28.114 1.44.594 1.509.731.114 1.029-.595 1.189-2.675.182-2.605.228-2.72 1.188-3.04 1.189-.411 1.28-.182 1.189 2.812-.069 1.828 0 2.514.228 2.72.64.526 1.189.137 1.646-1.143.48-1.349 1.074-1.691 2.171-1.28.503.206.617.389.617 1.097 0 1.623.755 2.217 1.806 1.463.412-.297.526-.297.869 0 .228.206.663.343.96.297.457-.068.617-.32.845-1.371.16-.686.343-1.326.412-1.395.274-.297.868.183 1.303 1.052.663 1.28 1.303 1.806 2.125 1.714.549-.068.686-.228.755-.754.091-.823.594-.846 1.44-.046 1.143 1.097 1.92 1.372 3.474 1.257 1.303-.091 1.509-.183 2.331-1.051 1.006-1.074 1.372-2.514 1.075-4.229l-.16-.983.8.16c.434.092.891.252.982.366.115.114.206 1.189.23 2.4.022 2.286.296 3.109.982 2.857.526-.205.891-1.668.891-3.565v-1.578l.983-.388c.709-.274.96-.503.892-.823-.183-1.006-3.84-1.371-5.6-.571-.96.434-1.006.434-1.806 0-1.303-.686-3.086-.595-4.206.228-.525.366-1.097.846-1.28 1.074-.365.458-.731.32-.731-.32 0-.525-.617-1.211-1.097-1.211-.206 0-.503.549-.732 1.326-.205.731-.48 1.325-.617 1.325-.343 0-1.577-1.371-1.76-1.942-.183-.549-1.234-.869-1.76-.526-.206.114-.503.571-.64 1.028l-.274.8-.526-.891c-.663-1.12-1.44-1.12-1.806-.023-.365 1.143-.64 1.349-1.69 1.257-.938-.068-.984-.114-1.167-1.051-.274-1.326-.708-1.714-1.485-1.303-.503.274-.755.251-1.577-.069-1.35-.548-4.48-.548-5.098 0-.365.343-.525.366-.914.138-1.234-.778-1.668-.092-1.668 2.651 0 2.194-.206 2.629-1.463 2.926-1.052.274-1.417-.526-1.417-3.132 0-2.423-.252-2.925-1.303-2.651-.549.137-.595.274-.663 1.646-.069 1.142-.16 1.508-.434 1.508-.275 0-.343-.251-.275-1.12.069-1.006 0-1.166-.548-1.531-1.006-.663-3.497-1.257-4.412-1.052zm-4.342 1.897c.25.138.457.48.457.732 0 .388-.16.457-.96.457-1.075 0-1.463-.457-.96-1.074.343-.412.8-.457 1.463-.115zm6.788.138c.526.205.229.571-.457.571-.594 0-.937-.274-.663-.549.183-.205.64-.205 1.12-.022zm36.48.64c.411.342.686.914.777 1.554.137.937.091 1.074-.617 1.737-.594.549-1.006.731-1.692.731-.8 0-.982-.114-1.44-.845-.662-1.075-.548-2.652.252-3.292.731-.594 1.988-.548 2.72.115zm-12.412.96c-.068.16-.114.022-.114-.298s.046-.457.114-.297a.884.884 0 0 1 0 .595zm-27.52.8c0 1.76-.57 1.691-.662-.092-.046-.983 0-1.257.297-1.257.274 0 .366.32.366 1.349zm3.566.571c.503.297.137.96-.548.96-.663 0-.96-.32-.777-.846.16-.388.822-.457 1.325-.114zM155.675 190c-.205.32.503.823.938.663.228-.091.342-.274.297-.457-.115-.366-1.052-.526-1.235-.206zm-3.177 5.074c-.708.298-1.531 1.395-1.531 2.103 0 1.303 1.188 2.446 2.537 2.446.869 0 1.554.434 1.554.983 0 .663-1.508.663-2.171-.023-.594-.572-1.372-.594-1.989-.046-.434.389-.48.366-.914-.183-1.349-1.691-1.394-2.034-.457-3.131.274-.297.48-.846.48-1.234 0-.572-.092-.663-.663-.663-.366 0-1.029.32-1.486.708-.868.755-1.691.938-1.691.412 0-.183-.16-.526-.343-.777-.297-.412-.411-.435-1.189-.16-.754.274-.914.274-1.257-.069-.457-.457-.571-.457-1.234 0-.434.297-.526.617-.526 1.577 0 .64-.091 1.166-.205 1.166-.252 0-1.532-1.394-1.852-2.011-.137-.275-.525-.64-.891-.846-.594-.343-.686-.32-1.257.206-.549.525-.595.777-.595 2.33 0 .96-.114 1.807-.228 1.875-.137.092-.663-.754-1.166-1.828-1.12-2.377-1.668-2.949-2.491-2.629-.663.252-1.646 1.966-2.149 3.703-.183.617-.411 1.12-.526 1.12-.297 0-.685-1.189-.754-2.331-.091-1.212-.663-2.149-1.486-2.469-.891-.343-4.022-.297-4.388.069-.16.16-.8.297-1.417.297-1.029 0-1.12.068-1.326.731-.366 1.212-.549 1.44-1.211 1.509-.823.091-1.28-.275-1.463-1.143-.092-.366-.366-.869-.617-1.097-.457-.412-.48-.412-.937 0-.412.365-.48.754-.48 2.423v1.988l-.755-.297c-.685-.252-.777-.206-1.371.526-.434.525-.937.822-1.509.914-.8.137-.914.068-1.394-.709-.457-.731-.503-.983-.274-1.76.548-2.034 1.6-2.537 2.925-1.394.572.48.823.549 1.189.343.526-.274.549-.434.229-1.28-.686-1.783-4.64-1.806-5.943-.023l-.48.663-.663-.754c-.366-.412-1.052-.869-1.486-1.006-.937-.297-4.091-.091-4.571.297-.206.183-.297 1.074-.297 2.857 0 2.217-.069 2.583-.366 2.469-.206-.092-.366-.252-.366-.412 0-.137-.206-.685-.457-1.234a27.283 27.283 0 0 1-.869-2.126c-.502-1.325-1.485-2.034-2.262-1.6-.48.252-1.577 2.355-2.035 3.909-.16.503-.388.914-.502.914-.138 0-.298-.868-.39-1.92-.228-2.445-.456-2.903-1.553-2.903-.8 0-.869.069-1.532 1.555-.388.868-.8 1.554-.914 1.554-.389 0-1.051-.937-1.234-1.714-.206-1.052-1.143-1.6-2.035-1.212l-.64.297.069 3.429.069 3.406.64.068c.502.069.685-.068.914-.64.183-.411.388-.754.503-.754.091 0 .411.388.685.846.572.982 1.326 1.12 2.149.342.503-.457.571-.48 1.12-.114.343.229 1.097.389 1.851.389 1.189 0 1.326-.069 2.126-1.006.731-.846.96-.983 1.486-.846.343.092.777.343.937.549 1.006 1.234 1.097 1.257 2.583 1.234 1.6-.023 1.645-.046 2.194-1.623.32-.891.48-1.097 1.051-1.165.778-.092 1.555.685 1.555 1.554.023 1.12 1.714 1.394 2.057.32.206-.64.526-.594 1.234.251.754.915 2.149 1.303 3.383.983 1.303-.366 1.966-.914 2.446-2.034l.434-.983.16.96c.229 1.28.48 1.691 1.006 1.6.8-.16 1.051-.549 1.051-1.623 0-.914.069-1.074.571-1.188 1.258-.32 1.67-.069 2.08 1.302.435 1.44.915 1.852 1.692 1.44.388-.182.663-.205 1.097 0 .983.458 3.703.32 4.754-.228 1.143-.572 1.463-.594 1.646-.114.251.617 1.051.411 1.76-.458.366-.457.96-.914 1.303-.982.526-.138.8.022 1.554.822.823.915 1.006.983 2.149.983 1.394 0 2.034-.457 2.034-1.508 0-1.463.229-1.44 1.783.205 1.531 1.623 1.851 1.715 2.788.915.32-.275.457-.275.846.023 1.029.777 2.034.297 2.034-.983 0-.435.115-.846.252-.937.137-.092.868.388 1.645 1.051.778.686 1.509 1.234 1.646 1.234.114 0 .412-.205.64-.48.434-.457.434-.457 1.143.115.96.822 3.269.868 4.411.068 1.075-.731 1.349-1.394.983-2.4-.503-1.348-.96-1.783-2.4-2.194-.868-.251-1.371-.526-1.371-.754 0-.457 1.166-.457 1.783.023 1.074.8 2.194.045 1.577-1.075-.549-1.028-2.812-1.554-4.229-.983zm-25.325 2.103c-.069.252-.32.412-.686.412-.366 0-.617-.16-.686-.412-.045-.32.092-.434.686-.434.594 0 .731.114.686.434zm-21.326.069c.297.206.274.297-.183.708-.685.549-1.577.32-1.691-.457-.069-.434.046-.503.708-.503.458 0 .96.115 1.166.252zm38.08 2.331c-.046.229-.114.092-.114-.297 0-.411.045-.594.114-.434.068.16.068.48 0 .731zm-16.846.343c.777.343.777.823.023 1.006-.754.205-1.326-.046-1.326-.549 0-.777.343-.891 1.303-.457zM34.145 61.795c-.892.457-1.326 1.577-1.052 2.652.137.525.549.845 1.852 1.508 1.234.617 1.668.96 1.668 1.326 0 .823-1.12.754-2.011-.16-.617-.64-.846-.754-1.189-.526-.251.16-.411.549-.411 1.074 0 .709.137.869.937 1.258.526.251 1.486.525 2.126.571 1.028.114 1.257.046 2.125-.64l.96-.777.686.731c.594.64.846.732 1.874.732 2.195 0 3.383-.252 3.566-.755.206-.685-.091-.868-1.828-1.074-1.372-.183-1.578-.274-1.646-.731-.069-.503.023-.549.891-.549 1.555 0 2.24-.366 2.149-1.143-.069-.594-.183-.663-1.28-.777-.892-.091-1.212-.228-1.28-.548-.046-.343.114-.412 1.12-.412 1.691 0 2.651-1.051 1.508-1.668-.525-.275-4.32-.343-4.731-.069-.457.32-1.006 1.669-.777 2.011.274.458.251 2.058-.046 2.263-.137.069-.457-.137-.731-.48-.275-.343-.64-.617-.823-.617-.434 0-2.263-1.006-2.263-1.234 0-.343.869-.229 1.76.183.983.48 1.6.297 1.577-.435-.023-1.12-.937-1.782-2.766-1.988-.845-.091-1.417 0-1.965.274zm12.663.023c-.549.457-.595.64-.618 3.086-.045 2.834.183 4.045.8 4.274.503.206.732-.046 1.098-1.326.274-.96.365-1.051 1.12-1.12.777-.068.89.023 1.508 1.143 1.074 1.989 2.354 1.417 1.851-.846-.182-.8-.16-1.371.023-2.057.343-1.143.846-1.211 1.075-.16.274 1.28 1.6 3.817 2.194 4.206.434.274.686.297 1.143.114.32-.16.937-.205 1.371-.137.663.092.914 0 1.509-.617.891-.96 1.874-.983 2.811-.114.549.525.937.663 2.08.731 1.692.092 1.897-.091 1.989-1.714.114-1.669.617-1.669 1.508-.069.366.686.846 1.463 1.052 1.692.365.411 1.828.571 2.057.228.068-.114.183-1.371.274-2.834.092-1.44.274-2.743.389-2.903.228-.274 1.485-.068 1.851.297.091.069.206 1.303.274 2.697l.115 2.56.64.092c.891.091 1.12-.457 1.188-2.812.046-2.24.366-2.857 1.532-2.97.548-.047.731.045.8.41.251 1.532.8 2.035 3.222 2.972.412.16.663.434.663.731 0 .96-1.577.846-2.491-.183-.572-.64-1.029-.662-1.349-.045-.32.594-.045 1.188.869 1.92.48.365.983.48 1.988.48 1.532 0 2.286-.32 2.972-1.235.434-.594.457-.754.183-1.645-.343-1.189-1.28-2.149-2.103-2.149-.732 0-1.554-.434-1.372-.731.206-.366 1.212-.275 1.555.137.754.914 1.92-.046 1.394-1.189-.503-1.074-2.377-1.394-4.366-.708-1.074.365-1.165.365-1.6-.046-.434-.366-.845-.411-3.84-.274-1.828.068-3.565.251-3.84.411-.388.206-.48.503-.48 1.44 0 .869-.091 1.189-.342 1.189-.343 0-2.058-1.76-2.058-2.149 0-.114-.274-.411-.617-.617-.457-.32-.731-.343-1.165-.16-.503.229-.549.457-.663 2.4-.183 3.109-.457 3.406-1.143 1.211-.846-2.72-1.006-3.085-1.623-3.497-.549-.342-.663-.342-1.417.069-.64.343-.892.366-1.097.16-.755-.754-2.355.251-2.355 1.486-.022.685-.617 1.44-1.051 1.28-.183-.069-.64-.732-1.006-1.486-.754-1.531-1.325-1.989-1.874-1.44-.183.183-.389.48-.434.617-.069.183-.435.069-1.052-.32-.708-.457-1.463-.663-2.765-.777-1.577-.16-1.852-.114-2.377.297zm3.748 2.011c.183.32-.526.938-1.097.915-.617 0-1.051-.389-.891-.8.16-.457 1.714-.549 1.988-.115zm40.96-1.234c-.297.137-.549.252-.549.297 0 .275.823 3.932 1.12 5.029.435 1.6.755 1.943 1.692 1.828.571-.068.731-.251 1.143-1.462.25-.755.617-1.372.777-1.372.16 0 .411.457.571 1.029.343 1.303.846 1.851 1.691 1.851.823 0 1.235-.594 1.623-2.286.343-1.44 1.075-2.697 1.349-2.285.091.16.091.96 0 1.783-.252 2.4.434 3.36 1.783 2.491.365-.229.594-.206 1.051.023.937.526 1.463.274 1.692-.8.434-2.012.434-2.012 1.668-.412.96 1.235 1.28 1.486 1.852 1.486.571 0 .822-.183 1.211-.846l.503-.845 1.028 1.097c.732.777 1.212 1.074 1.715 1.097 2.514.069 4.503-.274 4.823-.869.16-.297.365-.228 1.097.275 1.074.777 2.765.983 4.137.525.708-.228 1.051-.525 1.394-1.188.389-.8.389-.96.069-1.737-.389-.937-1.098-1.463-2.24-1.692-.983-.205-1.395-.685-.938-1.074.275-.229.572-.183 1.349.229 1.646.822 2.309.045 1.074-1.258-.708-.777-1.874-1.028-3.405-.754-1.44.252-1.966 1.006-1.623 2.4.205.846.388.983 1.988 1.76 1.395.663 1.737.937 1.669 1.326-.092.731-1.12.731-2.24-.046-.526-.343-1.166-.663-1.417-.708-.275-.023-.572-.069-.663-.069-.091-.023-.183-.251-.183-.549 0-.274-.16-.685-.366-.914-.274-.32-.297-.526-.068-1.166.274-.685.251-.8-.32-1.37-.617-.618-1.897-1.052-3.177-1.052-1.029-.023-2.24.662-2.972 1.691l-.663.914-.251-.983c-.48-1.965-1.714-1.737-1.966.39-.16 1.553-.823 1.393-1.737-.435-.571-1.12-2.377-1.76-3.063-1.075-.228.23-.434.23-.914 0-.846-.388-1.669.138-2.011 1.235l-.229.777.046-.937c.045-.709-.069-1.006-.435-1.257-.731-.48-1.302.022-1.668 1.462-.297 1.235-.846 1.76-.846.823 0-.64-.846-2.057-1.394-2.354-.663-.343-1.28.069-1.851 1.166l-.526 1.051-.389-.64a25.74 25.74 0 0 1-.754-1.234c-.411-.663-.48-.686-1.257-.366zm24.777 2.103c.914.731.754 1.006-.64 1.006-1.44.023-1.852 1.257-.526 1.6.434.114.572.297.503.663-.091.662-1.463.845-2.103.274-.983-.892-.708-2.972.526-3.84.777-.526 1.303-.457 2.24.297zm-64.434 79.977c-.412.388-.48.8-.48 2.171 0 2.057.457 3.337 1.234 3.383 1.577.091 2.514-.114 3.337-.777.503-.389.96-.709 1.052-.709.114 0 .571.343 1.028.755.777.685.937.73 2.08.594.983-.114 1.372-.32 2.035-1.029l.822-.868.709.891c.389.48.846.869 1.006.869.183 0 .594-.32.937-.732.708-.823 1.12-.891 1.531-.228.183.297.572.48.983.48.709 0 1.006-.412 1.349-1.989.274-1.303.64-.708.914 1.509.091.685.846.525 1.257-.252l.389-.754.8.869c.914 1.005 1.645 1.097 2.171.274.343-.503.366-.937.206-2.697-.206-2.08-.229-2.126-.869-2.195-.548-.068-.663.046-.8.595-.274 1.097-.343 1.097-1.348.183-.572-.503-1.097-.8-1.326-.732-.183.092-.663.137-1.029.137-.388 0-.982.275-1.371.595l-.663.571-.777-.686c-.914-.8-1.349-.731-1.76.275-.343.845-.64.891-.983.091-.16-.32-.411-.617-.548-.617-.138-.023-.686-.069-1.212-.114-.526-.046-1.737-.138-2.697-.229l-1.737-.16-.434.731c-.229.412-.48.755-.572.755-.068 0-.571-.32-1.12-.732-1.257-.891-3.337-1.028-4.114-.228zm2.834 1.417c.457.274.252 1.943-.274 2.286-.549.342-.892-.138-.892-1.326 0-1.143.366-1.463 1.166-.96zm5.989.068c.617.618.137 2.583-.64 2.583-.8 0-1.783-1.92-1.349-2.628.206-.343 1.646-.297 1.989.045zm-22.994 20.183c-.892.457-1.235 1.303-1.098 2.72.092.914.046 1.28-.182 1.372-.252.091-.389-.183-.48-.938-.092-.571-.092-1.211 0-1.417.182-.503-.549-1.577-1.075-1.577-.8 0-1.005.526-1.005 2.423 0 1.234-.115 1.943-.32 2.103-.32.274-.709-.412-2.058-3.612-.388-.96-.571-1.142-1.097-1.142-.571 0-1.805.982-1.805 1.462 0 .092-.343.915-.755 1.806-.731 1.646-.754 1.646-.96.937-.114-.411-.228-1.303-.228-2.011-.023-1.509-.617-2.332-1.486-2.057-.846.251-1.166.617-1.783 2.057-.365.823-.708 1.326-.891 1.257-.16-.069-.48-.617-.709-1.257-.594-1.692-1.028-2.194-1.828-2.194-1.212 0-1.417.617-1.28 3.931.045 1.6.137 3.04.205 3.2.16.503 1.006.343 1.509-.297l.48-.594.48.594c.594.754 1.714.8 2.331.114l.458-.503.388.526c.274.366.8.594 1.669.731 1.485.229 1.988.023 2.514-.982.206-.412.64-.778 1.006-.869.525-.137.777 0 1.554.869.8.845 1.051.982 1.6.845.343-.091.686-.183.754-.183.069-.022.434.069.8.16.914.275 1.326-.16 1.509-1.554.183-1.394.571-1.348.525.046-.068 1.463.572 1.874 2.903 1.874 2.217 0 2.606-.206 3.52-2.011.503-1.006.64-1.532.526-2.263-.16-1.189.069-1.554.846-1.349.48.115.64.046.777-.343.366-1.165-.594-1.965-1.303-1.097-.411.48-.686.457-1.669-.228-1.051-.686-3.451-.983-4.342-.549zm3.108 2.492c.526.662.594 1.188.343 2.445-.183.869-.846 1.143-1.851.777-.618-.228-.64-.32-.64-1.897 0-.914.068-1.714.16-1.805.388-.389 1.508-.138 1.988.48zm5.874-1.6c-.525.571-.685.96-.685 1.691 0 1.211.548 1.737 2.331 2.24 1.074.32 1.372.503 1.372.869 0 .8-1.03.708-1.943-.138-.663-.64-1.166-.731-1.6-.297-.869.869.594 2.697 2.4 2.949 1.188.183 1.805-.023 2.88-1.029.525-.48.662-.845.662-1.6 0-1.463-.89-2.125-3.428-2.651-.366-.069-.64-.274-.64-.48 0-.503 1.44-.457 2.354.046.594.365.754.365 1.097.091 1.12-.937-.548-2.423-2.742-2.423-1.19 0-1.44.092-2.058.732zm-25.462 9.394c-.549.137-1.12.365-1.28.548-.137.183-.297 1.349-.343 2.583-.046 1.234-.137 2.469-.252 2.743-.205.64.823 1.92 1.372 1.714.206-.091.548-.685.777-1.371.457-1.394.64-1.554 1.486-1.349.388.115.708.457.96 1.052.754 1.851 1.508 2.171 2.217.983.343-.572.503-.663.663-.412.754 1.212 3.062 1.852 4.891 1.372 1.303-.366 1.577-.572 2.103-1.578l.411-.8.457.823c.298.572.778.983 1.623 1.326 1.463.64 2.949.48 4.503-.48l1.052-.663.457.572c.594.754 1.325.754 1.623-.023.297-.777.685-.755 1.531.137.869.868 1.166.891 1.691.091l.412-.617.548.503c.709.663 1.532.64 1.806-.091.526-1.372.274-6.103-.366-6.629-.662-.549-1.668-.023-2.217 1.097-.297.594-.525 1.234-.525 1.417 0 .183-.138.435-.32.595-.412.342-.823-.138-1.578-1.806-.32-.686-.8-1.349-1.074-1.463-.731-.343-1.531.091-1.714.914-.183.846-.503.892-1.097.115-.252-.32-.846-.823-1.303-1.098-.709-.434-1.052-.502-2.08-.342-1.052.137-1.394.32-2.4 1.325-1.12 1.12-1.623 1.303-1.623.595 0-.618-1.874-2.058-2.674-2.058-1.395 0-2.606.526-3.566 1.578l-.937 1.005-.549-.845c-.822-1.212-2.857-1.852-4.685-1.463zm1.943 1.783c.205.091.388.365.388.617 0 .343-.183.434-.708.434-.778 0-1.098-.297-.892-.846.137-.365.572-.434 1.212-.205zm8.32.571c.57.571.708.891.708 1.783 0 .914-.114 1.166-.617 1.508-.777.48-1.989.48-2.492-.022-.25-.252-.388-.823-.388-1.6 0-1.029.114-1.303.686-1.806.868-.754 1.257-.732 2.102.137zm8 .069c.64 1.028.708 2.171.137 2.88-.686.891-2.24.868-2.812-.046-1.028-1.623-.297-3.383 1.394-3.383.709 0 1.006.137 1.28.549zM401.228 68.904c-1.051.251-1.143.64-.343 1.417.435.411.617.914.732 2.011.183 1.943.343 2.309.96 2.217.434-.068.525-.251.571-1.394.092-1.783.252-2.4.64-2.4.206 0 .366.434.48 1.303.137 1.12.297 1.44 1.12 2.171.983.892 1.097.938 2.24.846 1.074-.068 1.76-.411 1.943-.937.206-.686.8-.64 1.074.069.389 1.051 1.029.937 1.235-.206.045-.252.342-.594.662-.754.732-.366 1.395-.069 1.692.731.274.709.846.937 1.234.457.229-.274.252-.526.023-1.143-.389-1.074-.366-1.943.091-2.308.343-.297.503-.206 1.212.548.48.549.823 1.143.823 1.509 0 .891.411 1.554.96 1.554.502 0 .937-.663.96-1.486 0-.297.274-.982.594-1.508.731-1.189.777-2.057.137-2.057-.251 0-.617.274-.846.617-.503.777-.8.754-1.691-.114-.686-.663-.846-.709-3.52-.869-2.629-.16-2.834-.137-3.52.343l-.731.526-.915-.618c-.777-.525-1.097-.617-1.988-.48-1.555.206-2.629.206-3.84-.045-.64-.115-1.463-.115-1.989 0zM408.2 70.8c.708.708.022 2.834-.915 2.834-1.005 0-1.6-1.966-.823-2.743.458-.457 1.326-.503 1.738-.091zm5.097.183c0 .137-.137.251-.275.251-.137 0-.182-.114-.091-.251.069-.115.183-.229.251-.229.046 0 .115.114.115.229zm-23.314-1.736c-.206.228-.663 1.12-1.052 1.988-.388.869-.8 1.692-.937 1.852-.297.434-1.371.388-2.011-.069-.458-.32-.526-.594-.526-1.76 0-1.783-.526-2.377-1.257-1.463-.435.526-.457.8-.32 2.4.091.983.297 1.943.457 2.103.16.16 1.234.366 2.468.457 2.172.137 2.195.137 2.606-.48.503-.754 1.303-.823 1.92-.16.297.32.709.457 1.303.434.48-.022 1.097.092 1.371.252.412.206.617.183 1.12-.229.526-.388.686-.434 1.097-.183.412.275.572.229 1.166-.342.846-.823 1.257-.823 1.943-.046.571.663.937.686 1.326.068.183-.297.068-.868-.435-2.148-1.005-2.537-1.28-2.903-2.034-2.72a8.384 8.384 0 0 1-1.44.206c-.731.022-.891.16-1.44 1.211-.343.663-.731 1.234-.868 1.257-.138.046-.503-.503-.8-1.234-.526-1.234-.618-1.326-1.372-1.326-.434 0-.868-.114-.937-.251-.228-.366-.983-.275-1.348.183zm-84.16 35.245c-.297.206-.709.686-.914 1.074-.435.869-.732.892-1.783.115-.846-.64-1.554-.777-1.806-.366-.16.274.206 1.577.846 2.971.526 1.12.388 1.577-.846 3.2-1.097 1.44-1.074 2.309.046 2.423.617.069.891-.091 1.577-.891.457-.549.937-.983 1.097-.983.137 0 .48.32.777.731.435.617.663.732 1.395.663.754-.068.891-.16.96-.754.022-.366-.183-1.166-.48-1.783-.732-1.486-.732-3.246-.023-4.411.617-1.006.685-2.012.16-2.217-.48-.183-.389-.206-1.006.228zm-31.52 13.28c-1.303 1.074.869 1.829 2.857 1.006.915-.389.983-.8.16-1.189-.96-.434-2.377-.343-3.017.183zm6.309-.16c-.823.823.183 1.851 1.805 1.851.823 0 1.098-.114 1.418-.594.365-.571.365-.64-.023-1.074-.343-.366-.755-.48-1.669-.48-.686 0-1.371.137-1.531.297zm7.154-.069c-.617.092-.869.275-.914.64-.092.709.503 1.12 1.645 1.098 1.326-.023 1.92-.252 1.92-.755 0-.823-1.142-1.257-2.651-.983zm-16.046 2.629c-.571.366-.114 1.669.64 1.851.366.069.915.229 1.258.343 1.097.366 3.085.503 3.588.229.274-.137.48-.457.48-.732 0-.731-.846-1.005-2.56-.822-1.463.137-1.554.114-2.034-.458-.503-.662-.823-.754-1.372-.411zm9.44 1.326c-.388.274-.411.434-.205.777.525.868 3.291 1.097 4.205.343.457-.389.526-.549.297-.915-.365-.594-3.565-.754-4.297-.205zm8.457-.183c-.685.183-.525 1.234.252 1.554 1.44.594 3.908.046 3.908-.846 0-.662-2.628-1.097-4.16-.708zm-18.034 2.857c-.548.549-.457 1.486.206 2.149.503.502.663.548 1.486.32.503-.138 1.485-.183 2.194-.115 2.149.252 3.931-.914 2.331-1.531-.342-.137-1.417-.252-2.377-.252-1.394 0-1.851-.091-2.285-.48-.686-.571-1.052-.594-1.555-.091zm10.697 1.028c-.183.115-.274.458-.228.778.068.548.183.571 1.851.64 1.874.091 3.154-.252 3.154-.823 0-.183-.297-.434-.617-.572-.754-.274-3.703-.297-4.16-.022zm8.069.046c-.594.343-.526.869.137 1.303.48.32.777.32 1.806.114.685-.137 1.28-.342 1.325-.434.229-.366-.297-.8-1.188-1.006-1.212-.274-1.554-.274-2.08.023zm-2.469 4.046c-.845.183-1.097.914-.457 1.394.617.434 2.857.412 3.337-.068.206-.206.366-.48.366-.595 0-.8-1.417-1.12-3.246-.731zM9.916 198.069c-.708.297-.8.457-.845 1.371-.023.571-.023 1.44.022 1.943.023.503-.068 1.303-.182 1.783-.183.64-.16 1.051.091 1.645.366.869.571.96 2.674 1.189 1.349.137 1.555.091 2.446-.526.549-.365 1.097-.983 1.234-1.348.297-.869.64-.663.846.525.274 1.646 1.349 1.486 1.806-.251.183-.686.434-1.006.891-1.189 1.052-.388 1.486.023 1.852 1.738.16.777 1.142 1.097 1.897.617.457-.297.617-.275 1.234.114.526.32 1.166.434 2.4.411 2.171-.022 2.857-.228 2.948-.845.092-.572-.777-1.052-1.942-1.052-.892 0-1.76-.525-1.509-.914.092-.137.846-.32 1.714-.411 1.509-.16 1.555-.183 1.555-.846 0-.869-.572-1.189-2.035-1.189-.937 0-1.097-.068-1.051-.411.069-.32.411-.457 1.44-.572 1.508-.16 1.897-.342 1.897-.822 0-.732-1.029-1.052-2.948-.983-2.126.091-2.652.388-3.018 1.783-.16.571-.251.685-.251.365-.046-.777-1.257-1.92-2.377-2.217-1.166-.32-4.114.023-4.412.503-.114.183-.205.731-.205 1.234v.915l-.8-1.029c-1.143-1.508-3.772-2.263-5.372-1.531zm2.629 1.874c.663.297.8.503 1.143 1.623.251.868-.297 2.103-1.052 2.285-1.303.32-1.463.115-1.531-1.805-.114-2.515.068-2.766 1.44-2.103zm7.726.686c-.572.617-1.783.594-1.783-.023 0-.663.663-.96 1.485-.686.663.229.686.274.298.709zm3.131 1.417c.091.114.091.457 0 .731-.137.412-.206.457-.366.183-.297-.434-.274-1.166 0-1.166.115 0 .297.115.366.252zm7.908-3.657c-.73.64-1.302 1.531-1.302 2.125 0 .823 1.12 1.966 2.24 2.263 1.142.343 1.965 1.006 1.737 1.394-.275.435-.96.298-1.92-.342-1.257-.846-2.286-.686-2.286.365 0 .617 1.211 1.6 2.149 1.737.457.069.937.16 1.074.183 1.051.229 1.92-.068 2.674-.891.777-.846.823-.869 1.166-.412.183.252.343.549.366.64 0 .366 1.485.915 2.491.938 1.531.045 2.766-.435 2.926-1.12.091-.32.297-.686.48-.846.251-.206.365-.069.571.708.229.8.366.983.846.983.754 0 1.074-.617 1.12-2.194.046-1.097.068-1.143.137-.32.114 1.349.8 2.56 1.371 2.469.343-.069.549-.412.778-1.509.41-1.806.64-2.034 1.05-1.051.184.457.71 1.211 1.144 1.714.64.686 1.005.891 1.6.891.845 0 1.097-.297 1.097-1.348 0-.755.274-.732.891.114.275.389.983.937 1.577 1.211 1.006.503 1.166.503 2.949.206 1.874-.32 1.874-.32 2.034-1.143.092-.457.229-1.143.32-1.485.16-.549.069-.8-.503-1.372-.617-.594-.662-.754-.388-1.12 1.12-1.554-1.052-3.2-3.749-2.834-1.005.114-1.325.297-1.828.96-.686.914-1.075 1.028-1.075.366 0-.458-.708-1.235-1.12-1.235-.662 0-1.142.732-1.28 1.92l-.114 1.257-1.165-1.44c-1.326-1.668-1.875-1.897-2.903-1.257-.64.389-.8.412-1.212.092-1.188-.869-1.92-.046-1.691 1.897.068.686.046 1.577-.092 1.966-.114.411-.228.548-.251.32-.023-.526-1.074-1.326-2.194-1.669-1.029-.32-1.989-1.074-1.76-1.417.228-.389.754-.252 1.508.366.892.754 1.417.777 1.76.022.297-.685-.16-1.6-1.005-2.057-.823-.434-2.698-.365-3.452.115-1.074.708-1.691 2.377-1.166 3.154.092.137.938.617 1.852 1.074.937.434 1.76.914 1.851 1.029.275.411-.045.617-.868.617-.595 0-.915-.137-1.189-.594-.251-.366-.617-.595-.983-.595-.388 0-.983-.365-1.6-.96-.548-.525-1.12-.96-1.303-.96-.594 0-2.011-.8-2.011-1.12 0-.525.777-.365 1.486.297.754.686 1.508.618 1.737-.137.228-.731-.297-1.44-1.463-1.942-1.326-.572-2.446-.572-3.109-.023zm26.812 2.217c.868.64.937 1.28.091 1.12-1.348-.252-1.783 1.097-.548 1.691.868.434.845.709-.115.983-1.348.366-2.011-.389-2.08-2.309-.023-.548.16-.982.572-1.394.708-.708 1.165-.731 2.08-.091zm-12.366 1.257c-.046.16-.114.023-.114-.32 0-.32.068-.457.114-.297a.951.951 0 0 1 0 .617zm-19.771 7.634c-.572.274-1.143.709-1.28.96-.274.549-.892.594-1.097.092-.275-.709-1.897-1.326-3.543-1.326-1.943 0-2.766.366-2.812 1.188-.022.343-.068 1.28-.137 2.058-.228 3.337.023 4.685.892 4.685.525 0 1.211-1.211 1.211-2.148 0-.412.137-.503.96-.503s1.006.114 1.212.663c.64 1.645.822 1.874 1.531 1.874.571 0 .754-.137.914-.731l.206-.732.937.892c.686.662 1.234.937 2.012 1.051 1.53.229 2.17 0 3.52-1.257l1.165-1.097 1.029 1.005c.983.96 2.103 1.463 3.268 1.463.823 0 2.103-.685 2.537-1.348.435-.64 1.098-.777 1.098-.206 0 .48 1.051 1.12 1.531.937.229-.091.48-.48.549-.868l.16-.709.48.846c.411.708.64.868 1.257.868.434 0 .914-.183 1.188-.48l.435-.48.525.48c.686.64 1.189.595 1.692-.16.343-.571.388-1.028.274-3.36-.183-3.108-.389-3.68-1.349-3.68-.822 0-1.508.732-2.057 2.217-.228.64-.525 1.143-.64 1.143-.251 0-.914-1.303-.914-1.805 0-.458-1.28-1.806-1.691-1.806-.16 0-.595.343-1.006.731-.389.389-.777.709-.869.709-.091 0-.48-.252-.868-.594-.892-.778-1.555-.938-3.017-.755-1.349.16-2.538.709-3.155 1.44l-.411.526-.686-.64c-1.714-1.6-3.406-1.966-5.051-1.143zm2.994 1.783c1.143.8.8 3.68-.526 4.183-.663.251-1.782-.046-2.102-.549-.275-.411-.23-2.514.068-3.063.48-.868 1.714-1.165 2.56-.571zm7.68.114c.731.435.8.572.8 1.76 0 1.029-.114 1.372-.549 1.76-.868.777-1.074.823-1.965.457-.96-.388-1.235-1.074-1.029-2.56.252-1.805 1.257-2.331 2.743-1.417zm-15.566-.023c.595.389.115.983-.777.983-.823 0-1.143-.32-.937-.891.137-.343 1.234-.412 1.714-.092zm-1.943 31.086c-.502.183-1.165.503-1.508.709-.617.41-1.554 2.01-1.554 2.65 0 .458-.229.458-.823 0-.252-.182-.914-.342-1.463-.342-1.234 0-1.851-.549-1.097-.937.251-.137.96-.274 1.531-.274 1.143 0 1.715-.389 1.577-1.12-.068-.366-.434-.457-2.24-.617-2.697-.206-3.131-.115-3.634.822l-.366.755-.685-.732c-1.189-1.325-4.137-1.257-5.143.115-.869 1.21-.32 3.04 1.006 3.314 1.234.251 2.331.937 2.331 1.44 0 .8-1.12.754-2.103-.115-1.005-.89-1.554-.937-1.76-.137-.251 1.006.092 1.669 1.075 2.24 1.485.846 3.382.572 4.457-.64.48-.525 1.097-.685 1.097-.274 0 .137.205.457.48.709.411.411.8.48 2.72.48 2.514 0 3.383-.32 2.903-1.12-.206-.32-.663-.458-1.738-.549-.8-.069-1.6-.251-1.737-.411-.457-.458-.068-1.029.686-1.029.869 0 2.217-.457 2.217-.754 0-.595.412-.069.8.96.617 1.76 1.577 2.605 3.132 2.811 1.485.183 2.148.023 3.085-.777.846-.686 1.395-.709 1.989-.046 1.417 1.555 3.817 1.577 5.623.023.548-.457 1.005-.8 1.051-.754.023.068.183.388.343.754.274.663.8.823 1.577.526.274-.114.389-.48.389-1.326 0-.617.114-1.211.228-1.303.137-.068.526.343.892.892.388.571.891 1.211 1.165 1.44.663.571 1.92.548 2.515-.046.32-.32.48-.366.48-.16 0 .754.845 1.12 2.56 1.12 1.417 0 1.828-.091 2.674-.663.823-.526 1.051-.823 1.166-1.554.068-.503.228-.983.342-1.052.115-.068.229-.64.229-1.28 0-1.097-.091-1.234-1.029-2.01-1.645-1.304-2.102-1.464-4.457-1.395-.96.046-1.28.64-1.485 3.04l-.16 1.668-.046-1.737c-.023-1.394-.137-1.828-.526-2.24-.274-.274-.686-.457-.891-.411-.526.091-1.006 1.074-1.006 2.057 0 .526-.137.777-.366.777-.205 0-.365-.137-.365-.297 0-.183-.503-.869-1.098-1.577-1.6-1.806-2.72-1.623-2.765.48v.8l-.526-.709c-1.166-1.577-1.737-1.988-2.949-2.171-1.37-.183-2.697.274-3.748 1.234l-.64.617-.434-.525c-.435-.526-1.692-1.28-2.606-1.532-.251-.068-.869 0-1.371.183zm-11.702 2.149c.8.548.868.57 1.508.182.572-.342.709-.342.892-.045.183.32.068 1.645-.16 1.92-.069.068-.32-.023-.572-.183-.274-.16-1.074-.526-1.805-.8-1.715-.64-2.218-1.532-.938-1.623.138-.023.618.229 1.075.549zm13.851 0c.366.297.96.617 1.326.708.571.137.663.297.663 1.006 0 .708-.069.823-.572.823-.297 0-.914.342-1.348.754-.663.64-.892.731-1.646.617-.48-.091-1.006-.343-1.166-.571-.434-.572-.388-2.012.092-2.72.891-1.326 1.6-1.509 2.651-.617zm7.246.297c.594.754.64 1.691.16 2.857-.343.8-.412.823-1.532.823h-1.211l-.366-1.075c-.343-1.005-.343-1.188 0-2.034.366-.937.663-1.12 1.806-1.166.434-.022.823.183 1.143.595zm14.308.205c.663.64.8 1.92.32 2.835-.365.708-.663.891-1.577.891-.64 0-.8-.114-.937-.617-.137-.549.251-3.017.549-3.52.228-.366 1.074-.16 1.645.411zm252.57-1.897c-.937.983-1.394 1.029-2.331.229-1.646-1.394-2.4-.32-1.097 1.577.708 1.051.708 1.531-.046 2.743-.594.96-.8 2.514-.32 2.514.411 0 1.257-.503 1.988-1.166l.663-.64.777.915c.8.937 1.555 1.142 2.058.525.251-.274.16-.594-.435-1.668-.914-1.6-.937-2.126-.16-3.68.96-1.897.275-2.743-1.097-1.349zm15.223-.64c-.526.092-1.257.343-1.577.572-.777.503-1.486 2.285-1.303 3.337.434 2.605.914 3.36 2.583 3.931 1.531.503 2.445.32 3.954-.731l1.166-.823.411.617c.594.914 1.052 1.12 1.509.663.205-.206.388-.503.388-.64s.183-.092.412.137c.983.891 3.314 1.417 4.023.937 1.074-.754 1.348-2.651.822-5.737-.297-1.691-.708-2.24-1.234-1.646-.8.96-.983 1.075-1.508 1.075-.298 0-.938.274-1.418.617-.502.32-.937.594-.982.594-.046 0-.138-.366-.229-.777-.297-1.669-1.371-2.423-1.806-1.257-.297.754-.731.754-1.463 0-.502-.549-1.897-1.12-2.514-1.052-.137.023-.686.092-1.234.183zm2.468 2.309c.229.343.458 1.12.503 1.737.092.914.023 1.234-.388 1.668-.572.595-1.852.732-2.652.32-.845-.457-1.28-2.88-.663-3.657.366-.48.8-.64 1.898-.662.708 0 .982.114 1.302.594zm8.023 2.057c.435.8.206 1.531-.48 1.531-.434 0-.663-.183-.823-.64-.411-1.143.755-1.943 1.303-.891zm8.32-4.251c-2.034.73-2.583 1.6-2.56 4.114 0 .983.137 1.394.8 2.285.709.96.983 1.143 2.172 1.395 1.531.343 2.262.183 3.634-.846.914-.686 1.097-.686 1.508-.069.503.8 1.692 1.189 3.292 1.029.777-.091 1.554-.251 1.691-.366.16-.114.549-.137.892-.068.434.114.731 0 1.188-.503l.595-.64.868.663c1.509 1.143 2.103.251 1.052-1.577-.526-.915-.526-.96-.115-1.692.32-.571.343-.846.16-1.211-.274-.503-.48-.503-1.828-.069-.457.137-.572.046-.686-.525-.251-1.19-.571-1.783-.96-1.783-.411 0-.823.937-.823 1.897 0 .983-.206 1.028-1.234.343-1.234-.823-2.652-.823-3.497-.046-.595.571-.595.571-.937.091-1.212-1.668-2.789-2.765-3.886-2.742-.229 0-.823.16-1.326.32zm2.857 2.582c.869 1.692 0 3.566-1.645 3.566-.915 0-1.212-.16-1.578-.891-.365-.663-.365-1.692-.022-2.675.502-1.417 2.514-1.417 3.245 0zm3.04 1.783c-.091.252-.205.297-.365.137-.275-.274 0-.823.297-.64.114.092.16.297.068.503zm14.674-3.657c-1.21 1.189-1.417 1.851-1.188 3.634.228 1.897 1.166 3.109 2.72 3.475 1.074.251 1.303.228 2.217-.229.549-.274 1.234-.8 1.531-1.143l.526-.594.526.868c.914 1.532 1.486 1.052 1.851-1.485.16-1.257.617-1.806 1.097-1.326.138.137.275.891.32 1.669.046.777.092 1.531.115 1.691.045.48.777.571 1.485.16.64-.389.732-.389 1.532 0 1.143.526 2.468.503 3.428-.091.983-.572 1.212-.572 1.989 0 .823.662 2.057.594 3.337-.138l1.097-.617.32.503c.389.594 1.6.686 1.806.16.068-.183.023-.708-.114-1.143-.138-.434-.16-1.6-.092-2.605.137-1.6.092-1.852-.366-2.332-.662-.708-.845-.685-1.76.32-.777.823-.8.846-1.485.48-1.143-.594-1.92-.48-2.857.457l-.846.846-.914-.571c-.48-.32-1.417-.64-2.035-.709-1.028-.137-1.211-.068-1.942.549l-.8.708-.686-.708c-.434-.457-.914-.709-1.349-.709-.457 0-1.028-.297-1.645-.868-1.029-.915-1.486-.87-1.806.182-.16.48-.183.48-.8-.114-.96-.891-2.057-1.371-3.177-1.371-.869 0-1.143.16-2.035 1.051zm3.589 1.234c.823.617 1.691.777 1.943.366.366-.594.617-.137.617 1.189 0 1.348-.251 1.805-.617 1.211-.252-.411-.8-.251-1.646.48-1.806 1.577-3.611.229-3.04-2.263.389-1.645 1.417-2.011 2.743-.983zm18.834 2.263c.046.389-.023.526-.251.457-.16-.068-.343-.365-.389-.663-.068-.365.023-.502.229-.434.183.046.365.343.411.64zm-4.754.983c0 .137-.114.229-.251.229-.138 0-.23-.092-.23-.229s.092-.251.23-.251c.137 0 .25.114.25.251zm2.149.846c0 .388-.046.411-.572.205-.548-.205-.48-.571.092-.571.274 0 .48.16.48.366zm-318.239-5.874c-2.125.274-2.08.228-2.24 2.674-.297 4.251-.182 5.005.823 4.983.572 0 .937-.526 1.12-1.692l.183-1.051 1.737-.252 1.737-.251.252.846c.114.457.228 1.142.228 1.485 0 1.12.549 1.395 2.606 1.395 1.897 0 2.469-.206 2.766-1.006.16-.503-.617-.914-1.737-.914a2.37 2.37 0 0 1-1.212-.389c-.503-.343-.548-.503-.411-1.851.068-.8.046-1.898-.046-2.423-.183-.96-.183-.96-1.28-.983-.617-.023-1.371-.206-1.668-.434-.595-.412-.8-.435-2.858-.137zm3.795 2.65c.045.55-.069.96-.297 1.167-.229.182-.366.205-.366.068 0-.526-.8-1.028-1.646-1.028-1.92 0-1.943-.846-.046-1.006 2.126-.206 2.263-.16 2.355.8zm8.571-2.696c-.388.046-1.166.411-1.714.8-.846.617-1.074.937-1.28 1.92-.549 2.583-.274 3.863 1.051 4.617 2.286 1.326 4.686 1.28 5.715-.137.64-.846.891-.846 1.645-.069 1.692 1.829 4.183 1.692 6.263-.32l.891-.846.16.686c.252 1.212.32 1.303.915 1.303.777 0 1.143-.503.96-1.394-.183-.915.388-1.28 1.508-.96.617.16.846.411 1.166 1.28.366.914.526 1.074 1.074 1.074 1.006 0 1.212-.434.983-1.92-.114-.731-.16-1.897-.091-2.629.068-1.05 0-1.485-.389-2.08-.434-.708-.594-.777-2.263-.937-.983-.091-2.034-.091-2.354 0-.983.298-1.646.846-1.646 1.326 0 .663-.274.594-1.097-.251-1.897-2.012-4.32-2.035-6.057-.046l-.777.891-.663-.754c-.96-1.12-2.537-1.737-4-1.554zm1.874 2.445c.549.435.64.686.64 1.692 0 1.486-.571 2.126-1.874 2.126-1.211 0-1.783-.618-1.783-1.875 0-2.034 1.6-3.062 3.017-1.943zm7.475-.342c1.12.434 1.28 3.062.228 3.908-.685.549-1.897.389-2.4-.297-.594-.869-.32-3.086.457-3.566.343-.228 1.189-.251 1.715-.045zm7.428 0c.206.068.389.342.389.594 0 .388-.183.457-1.097.457-.892 0-1.075-.069-1.075-.457 0-.64.892-.937 1.783-.594zm7.017-1.395c-.548.595-.891 5.875-.434 6.72.434.8 1.417.709 1.6-.137.343-1.76.434-1.851 1.44-1.874.526 0 1.417-.252 2.011-.549 1.235-.64 1.44-.48 1.463 1.052.023 2.171.183 2.285 3.954 2.423l2.4.091.869-1.006c1.12-1.28 1.92-1.303 2.949-.114.708.8.8.846 2.194.777.8-.023 1.6-.137 1.76-.228.137-.092.274-.709.274-1.372 0-1.554.389-1.531 1.44.137.983 1.532 1.874 1.989 2.629 1.372.388-.343.48-.823.64-3.429.137-2.674.114-3.04-.275-3.428-.708-.709-1.165-.389-1.44 1.028-.297 1.532-.617 1.737-1.234.846-.846-1.257-2.194-2.514-2.674-2.514-.709 0-.96.594-1.143 2.697-.183 2.057-.434 2.697-.823 2.103-.137-.183-.228-.618-.228-.96 0-.32-.32-1.258-.709-2.08-.754-1.577-1.44-2.035-2.354-1.555-.229.138-.892 1.303-1.463 2.606-.572 1.303-1.12 2.514-1.212 2.72-.274.503-2.01.594-2.88.137l-.708-.366.023-2.24c.046-2.377-.183-3.062-1.052-3.062-.228 0-.594.251-.8.548l-.365.526-.617-.594c-.549-.503-.892-.595-2.72-.663-1.829-.069-2.126-.023-2.515.388zm3.52 1.806c.16.411-.274.869-.8.869-.457 0-.96-.458-.96-.869 0-.434 1.6-.411 1.76 0zm210.696 1.417c-.617.297-.708 1.029-.16 1.234.663.252 1.714.16 1.989-.182.388-.435.114-1.029-.526-1.212-.64-.16-.64-.16-1.303.16z"/>
</svg>
