<?xml version="1.0" encoding="utf-8"?>
<svg xmlns="http://www.w3.org/2000/svg" height="416.34" version="1.0" width="575.813" viewBox="0 0 431.86 312.255">
	<title>First or ground-floor plan of Riddlesdale Lodge.</title>
	<path d="M362.233.164c-.594.092-5.714.252-11.406.32-5.668.069-10.468.183-10.674.274-.206.069-5.943.183-12.731.252-6.789.068-12.846.137-13.417.16-.595 0-4.229-.023-8.046-.046-3.84-.046-8.846-.068-11.154-.068h-8.777c-2.492-.023-4.823.022-5.143.045-.343.046-5.143.069-10.697.046-5.532 0-10.4-.023-10.789 0h-5.165c-2.446-.023-4.846-.023-5.349-.023-.571 0-1.074.183-1.394.503-.48.48-.48.686-.48 11.817v12.754c0 .8.068 3.886.16 6.835.068 2.971.137 14.422.137 25.44 0 19.52 0 21.508.046 23.77 0 .595-.023 3.612-.069 6.72-.023 3.11 0 5.92.092 6.24.274 1.166 0 1.258-4.092 1.395-2.103.046-4.617.091-5.6.091-1.006 0-3.314 0-5.165.023-4.16.046-4.48.046-18.012-.068-9.828-.092-11.108-.046-11.771.297-1.052.548-1.303.937-1.326 2.011-.023.503-.023 5.692 0 11.497.023 5.806-.023 11.314-.091 12.229-.069.937-.183 3.314-.229 5.28-.046 1.988-.16 3.794-.251 4.022-.32.755-1.6.892-8.64.915-3.84 0-7.337.023-7.794.023-4.64.045-23.543-.252-23.932-.389-.64-.206-.868-1.006-.571-1.988.114-.412.137-.8.068-.87-.068-.068-.16-2.856-.182-6.193-.046-3.337-.138-7.155-.229-8.48-.069-1.326-.183-3.36-.229-4.549a928.963 928.963 0 0 1-.365-7.817 599.02 599.02 0 0 1-.389-11.52c-.068-3.223-.16-6.674-.228-7.68-.115-1.897-.343-11.68-.435-18.834-.045-2.377.069-5.943.229-7.908.16-1.989.228-3.68.183-3.795-.069-.091-.16-3.337-.229-7.2-.091-6.377-.183-9.897-.48-16.502-.046-1.235-.137-3.886-.206-5.875-.045-1.965-.205-4.411-.342-5.394-.138-.983-.183-3.177-.115-4.846.115-3.405-.274-10.56-.64-11.245-.137-.229-.594-.64-1.028-.915-.823-.502-.366-.48-10.377-.457-1.44 0-4.137-.023-5.966-.023-1.829-.022-3.726.069-4.206.206-.548.137-1.828.137-3.543 0-1.554-.114-3.017-.114-3.428 0a3.2 3.2 0 0 1-1.394.023c-.366-.091-1.532-.091-2.583 0-1.052.091-3.04.114-4.434.046-1.395-.069-3.498-.023-4.686.114-1.303.137-3.246.16-4.914.046-2.903-.229-5.166.023-6.172.64-.297.183-.686.685-.891 1.12-.595 1.211-2.697 3.451-4.183 4.48-.754.503-1.737 1.394-2.194 1.965-2.172 2.698-2.766 2.903-3.886 1.28-1.143-1.622-1.874-3.885-2.263-7.017-.114-.754-.32-1.143-.8-1.485-.617-.435-.96-.458-4.48-.343-12.96.388-29.668.388-43.177 0-4.388-.137-4.274-.137-14.742 0-9.6.137-13.395.114-14.492-.092-.503-.091-2.011-.114-3.36-.023-4 .252-6.674.229-7.543-.091C-.073.713-.302 1.536.338 5.81c.16 1.05.252 2.788.206 3.84-.092 2.4-.092 2.491.114 8.754.092 2.834.206 6.674.252 8.526.045 1.851.137 3.954.205 4.663.069.731 0 2.125-.137 3.085-.16 1.257-.16 1.852.023 2.035.389.388.343 1.44-.114 2.582-.366.892-.366 1.052 0 2.012.571 1.44.823 5.988.594 10.08-.091 1.897-.091 3.748.046 4.205.274 1.143.251 4-.046 5.715-.297 1.714-.297 1.6.023 3.177.16.8.297 5.325.366 11.405.068 5.532.16 10.72.228 11.52.092.777.206 4.183.274 7.543.092 3.383.206 7.269.275 8.64.045 1.394.137 4.777.183 7.497.045 3.36.16 5.212.365 5.714.252.595.252 1.075.023 2.355-.228 1.257-.206 2.011.023 3.52.206 1.211.274 3.383.229 5.874-.138 5.623-.138 7.2-.092 8.297.114 2.537-.137 24.526-.297 24.891-.091.229-.046 1.166.114 2.08.183 1.143.32 6.812.366 17.234.069 8.549.16 21.646.206 29.097.091 11.292.045 13.875-.252 15.429-.411 2.171-.205 3.223.846 4.046.549.457.823.48 2.194.342.869-.091 1.76-.16 1.989-.137 1.12.137 5.12.069 12.891-.205 4.686-.16 8.96-.275 9.486-.275.525.023 5.805.069 11.748.137 5.943.069 11.132.138 11.52.16.412.023 2.4-.045 4.457-.137 2.035-.114 4.023-.183 4.435-.137.731.092 3.314.092 15.108.046 3.703-.023 7.223-.023 7.817 0 2.172.068 15.977-.297 17.166-.434.685-.092 1.828-.046 2.537.114 1.806.343 3.931.366 11.611.023 3.68-.16 10.217-.343 14.514-.366a5954.24 5954.24 0 0 1 20.046-.183c7.131-.068 13.828-.023 16.068.137 2.126.137 9.303.206 15.978.16 14.308-.068 52.205-.091 55.313 0 1.189.023 3.726.046 5.623.023 3.269 0 3.52-.046 4.366-.617.503-.32.983-.594 1.074-.594.092 0 .526-.343.937-.777.435-.435 1.875-1.806 3.246-3.063 1.349-1.257 2.743-2.56 3.086-2.88 2.445-2.354 2.903-2.697 3.497-2.537.388.091.731.457.983 1.028.205.503.571 1.12.823 1.395.525.57 1.12 2.537 1.44 4.64.228 1.645.525 2.194 1.234 2.194.937 0 1.394-.846 1.417-2.583 0-1.783.549-3.68 1.371-4.709.275-.365.572-.868.663-1.097.206-.685 1.12-1.188 1.715-.96.548.206 2.925 2.423 7.497 6.949 1.531 1.508 2.971 2.903 3.2 3.085.685.549 7.314.686 26.468.572 3.909-.023 18.537-.023 22.194 0 2.172 0 4.389.023 4.914.023.526 0 2.058-.023 3.406-.069 1.966-.068 2.583 0 3.063.32.663.434.594-.686.64 10.354.023 2.629.023 5.669.046 6.72v25.074c0 1.509-.069 3.703-.16 4.846-.206 2.377.091 3.269 1.28 4 .64.389 2.171.412 22.902.389 22.08 0 22.217-.023 22.88-.503.823-.617.983-1.532.366-2.08-.434-.389-1.737-.434-15.931-.549-8.48-.068-15.543-.114-15.68-.114-.137-.023-1.326.069-2.652.16-3.131.206-3.428.206-6.103 0-3.108-.251-3.428-.434-3.68-2.08-.114-.709-.137-2.606-.022-4.183.091-1.6.16-3.314.16-3.84-.046-2.148-.046-19.314 0-20.891.023-.914 0-2.697-.046-3.954a143.91 143.91 0 0 1-.046-5.646c.023-1.851-.023-4.32-.114-5.509-.206-3.108-.183-3.131 3.406-3.062 5.211.114 12.685.068 13.417-.092.8-.183 5.188-3.886 6.423-5.417.868-1.12 1.257-1.486 2.925-2.811 2.743-2.24 3.566-1.783 5.029 2.811.343 1.097.617 2.24.617 2.56 0 .32.206 1.051.48 1.669.388.937.548 1.097 1.166 1.097.891 0 1.005-.297 1.12-3.132.16-3.222.662-4.754 2.057-6.125 1.097-1.097 1.12-1.097 1.805-.755.846.435 3.406 2.903 4.869 4.709 1.989 2.446 5.074 5.303 5.76 5.326.343.022 3.108.068 6.148.091 6.858.069 11.155.32 11.566.663.252.206.297 1.394.183 5.92-.091 3.108-.206 8.64-.274 12.251-.069 3.634-.137 7.2-.16 7.932 0 .731.023 5.92.091 11.52.069 5.6.023 10.445-.091 10.72-.183.525-.252.548-4.275.457-3.542-.069-4.114-.138-4.365-.503-.229-.297-.48-.366-.869-.229-.297.092-2.217 1.829-4.274 3.863-2.034 2.034-3.977 3.771-4.274 3.84-.595.137-1.783-.434-1.783-.869 0-.342-.892-.731-1.303-.571-.663.251-.32 1.851.503 2.331.183.092.32.343.32.526 0 .206.091.343.206.343.114 0 .914.64 1.782 1.394 2.195 1.943 3.955 2.949 5.235 3.017.982.046 1.051 0 1.12-.594.068-.526-.069-.686-.892-1.006-.548-.228-1.097-.411-1.234-.411-.526.023-2.126-1.531-2.126-2.011 0-.48 7.223-8.549 7.657-8.549.115 0 .32.32.457.709.435 1.28 1.098 1.508 4.938 1.645 3.771.137 5.302-.091 6.057-.96.411-.434.434-1.303.503-12.274.045-6.491.137-17.074.205-23.543.069-6.468.092-12.342.092-13.028-.023-1.143.023-1.28.594-1.509.343-.114 3.2-.251 6.308-.251 6.286-.046 6.926-.16 7.955-1.623.548-.754.571-1.143.823-13.714.045-2.697.16-5.189.251-5.532.091-.411.457-23.474.411-26.262-.045-1.875-.342-7.383-.594-10.697-.206-2.675-.228-4.412-.091-4.8.137-.366.114-1.806-.046-3.84-.229-2.857-.343-6.423-.229-8.16 0-.32-.091-1.669-.251-2.994-.297-2.515-.343-5.646-.114-7.68.091-.663.045-2.72-.092-4.595-.16-2.148-.16-4.343-.023-5.92.115-1.371.229-7.794.229-14.24 0-6.445.023-13.005.046-14.605.023-3.749.023-3.246-.275-11.269-.137-3.84-.32-7.657-.411-8.525-.091-.869-.137-2.057-.091-2.652.045-.571.068-1.234.045-1.44-.023-.183-.091-3.2-.16-6.72-.434-21.942-.617-28.114-.96-31.908-.16-1.897-.228-3.749-.137-4.069.092-.342.137-1.965.069-3.611-.092-2.789-.183-10.857-.297-22.56-.023-2.697.022-5.188.114-5.531.068-.32.046-1.349-.092-2.263-.205-1.417-.365-1.783-1.097-2.514l-.845-.846h-6.058c-3.337.023-7.2.046-8.57.046-8.092.091-24.755-.183-25.898-.435-.983-.205-1.623-.183-2.788.046-1.166.229-2.606.251-6.172.069-2.766-.16-4.96-.16-5.417-.046-.731.206-3.771.137-7.017-.137-.731-.069-1.806-.023-2.4.091zm28.206 3.383c6.08-.091 4.868-.091 13.074.069 3.885.068 10.263.137 14.171.114 6.24 0 7.131.046 7.406.388.365.435.365.618.137 4.32-.069 1.463-.137 3.018-.137 3.475 0 .48 0 1.874-.023 3.131 0 1.257.023 2.56.023 2.88.023.32.091 3.794.137 7.68.114 10.057.297 16.023.48 16.297.068.137.206 3.634.274 7.749.069 4.137.16 8.754.206 10.262.068 1.532.16 4.709.228 7.086.046 2.377.229 6.423.366 9.006.297 5.897.366 5.76-2.446 5.783-1.097 0-3.337-.023-4.982-.069-1.646-.023-4.663-.091-6.72-.114-2.057-.023-9.326-.092-16.206-.183-6.857-.092-14.194-.069-16.32.046-3.428.182-4 .16-5.371-.252-1.052-.32-1.829-.411-2.4-.297-.48.091-1.303.16-1.829.137-.548 0-1.394.137-1.897.366-.777.32-2.263.366-10.308.366-5.166-.023-13.669.045-18.903.114l-9.532.137-.525-.526c-.412-.411-.48-.708-.389-1.394.092-.48.183-2.629.206-4.754l.068-3.886 4.138-4.114 4.114-4.137 1.463.182c1.371.16 1.463.138 1.714-.457.389-.868-.274-1.988-2.103-3.565-1.577-1.349-1.897-1.532-5.234-3.086-1.874-.846-2.332-.96-3.292-.846-.891.092-1.142.046-1.28-.274-.091-.229-.228-3.977-.297-8.343-.114-8.228-.114-8.365-.068-12.137.023-1.28-.069-2.56-.183-2.88-.32-.823-.183-27.063.137-27.36.297-.32 3.611-.754 4.229-.548.617.205 10.742.183 15.634-.023 2.103-.092 10.217-.183 18.034-.206 7.817-.023 14.286-.137 14.377-.228.114-.092 1.28-.092 2.606-.023 1.325.091 4.571.137 7.223.114zm-66.514.686c1.691.274 1.851.594 1.691 3.36a206.918 206.918 0 0 0-.343 13.097c0 2.491 0 4.868-.023 5.28-.045 1.188-.045 2.331.115 10.308.091 4.229.182 9.143.205 10.926l.069 3.246-.869.205c-1.851.457-2.262.229-6.491-3.611-1.006-.892-4.183-4.252-4.709-4.937-.525-.709-.48-1.417.092-1.875.343-.297.457-1.554.16-1.76-.389-.228-2.263.755-3.52 1.852-1.234 1.074-2.72 3.291-3.154 4.708-.092.343-.435 1.006-.755 1.486-.388.572-.64 1.372-.731 2.286-.069.777-.229 1.531-.366 1.691-.16.206-2.537.252-9.508.183-12.457-.114-27.703-.16-33.143-.114-10.286.068-11.474.046-11.68-.412-.091-.228-.206-2.217-.228-4.388-.023-2.172-.138-6.811-.229-10.331-.114-3.498-.137-7.315-.091-8.503.045-1.189.068-3.452.045-5.052-.16-11.405 0-16.594.549-17.142.16-.16 6.971-.206 32.982-.206 10.24-.023 18.926-.023 19.315-.046.411-.023 4.32-.068 8.708-.091 4.389-.046 8.046-.137 8.137-.229.206-.206 2.332-.183 3.772.069zm-198.72.32c.115-.092 6.287-.183 13.692-.229 11.154-.068 13.554-.023 13.92.252.412.274.48.822.663 4.617.114 2.354.16 4.8.069 5.394-.069.617 0 2.4.137 3.954.16 1.577.251 3.52.205 4.297-.091 2.08-.068 3.223.16 6.835.092 1.782.183 3.52.16 3.84-.114 3.405-.045 7.474.16 9.097.206 1.417.206 2.262 0 2.948a4.886 4.886 0 0 0-.045 2.08c.114.617.16 2.789.137 4.846-.092 3.703-.137 9.714-.137 12v3.657c-.023 1.348.068 5.211.16 8.571.091 3.383.205 8.069.251 10.446.069 2.377.229 7.177.389 10.674.16 3.52.343 7.84.388 9.6.183 6.24.343 8.297.663 9.486.252.868.297 1.485.137 2.171-.251 1.143-.16 4.16.183 6.377.137.869.206 2.629.16 3.909-.068 1.874-.183 2.491-.594 3.154l-.503.823H153c-3.246 0-3.863-.274-6.423-2.766-2.491-2.445-3.931-3.771-4.457-4.068-.251-.137-.708-.595-1.028-1.052-.755-1.028-.526-1.577 1.097-2.537 2.262-1.348 2.674-2.148 1.508-2.903-.571-.388-.686-.388-2.285.252-.915.365-1.806.777-1.966.96-.16.16-.754.571-1.303.914-.549.343-1.166.891-1.371 1.189-1.12 1.577-1.646 2.445-2.858 4.914-1.462 2.88-1.782 4.48-.96 4.8.732.274 1.6-.48 2.012-1.737.823-2.629 2.194-4.915 2.926-4.915.205 0 1.805 1.44 3.588 3.178 3.429 3.36 6.446 6.148 7.109 6.537.251.137 1.942.205 4.251.137 4.457-.137 7.154-.137 12.48-.046 6.514.091 31.817-.137 33.714-.32 1.417-.137 1.874-.114 2.08.137.32.412.571 4.229.297 4.937-.16.412-.457.526-1.737.663-1.623.183-3.749 1.052-5.509 2.263-.571.389-1.508.983-2.125 1.326-2.675 1.508-5.166 6.034-3.543 6.468.388.092.777-.137 1.531-.937 1.417-1.463 1.829-1.394 3.612.503 2.263 2.446 6.263 6.423 6.925 6.903.755.525 1.052 1.531.595 1.965-.389.389-4.229.458-12.092.252-6.308-.16-39.702-.183-50.88-.023-4.342.069-8.616.114-9.462.091-3.406-.068-17.76-.045-19.337.023a33.682 33.682 0 0 1-3.383-.114c-2.514-.251-3.406-.023-3.84.983-.48 1.166-.434 1.257.686 1.828.8.412 1.531.526 3.428.595 1.326.045 2.675.091 2.995.114.777.023 16.89-.251 22.445-.389 2.377-.068 4.48-.114 4.686-.114.183.023 4.183 0 8.868-.023 11.063-.068 11.292-.068 15.246-.045 1.851.022 3.886.022 4.549.022.662 0 7.314-.022 14.765-.022 7.452-.023 15.406-.023 17.691-.023 2.263 0 4.206.068 4.275.137.091.091.137 2.354.114 5.051-.091 6.629-.091 6.08.343 13.257.183 3.177 0 3.566-3.223 6.4-1.394 1.212-2.72 2.469-2.971 2.789-.869 1.097-2.675 2.697-3.223 2.857-.366.091-.823-.069-1.44-.503-.503-.343-1.143-.617-1.44-.617-.663 0-1.097.823-.937 1.829.137.822 1.691 2.97 2.148 2.97.137 0 .526.252.914.55.366.297 1.395.96 2.263 1.485 1.92 1.166 2.332 1.714 1.486 2.034-.32.115-.663.343-.754.48-.092.138-.686.526-1.326.846-2.423 1.234-5.051 4.252-4.64 5.326.206.526 1.28.663 2.103.251 1.668-.823 1.646-.845 5.028 2.469 6.469 6.286 6.012 5.508 5.852 10.24-.069 2.537-.183 3.314-.48 3.611-.412.389-.457.389-11.337.366-.937 0-3.406 0-5.532.023-4.8.045-7.108.023-17.28-.092-9.394-.091-9.85-.091-12.594-.023-1.12.023-4.297 0-7.085-.022-2.766-.046-6.492 0-8.275.091-1.782.069-3.771.069-4.434 0-.663-.091-1.966-.069-2.88.023-.937.114-9.303.251-18.605.297-9.303.046-19.726.206-23.155.343-3.428.137-6.857.251-7.611.251-2.126.023-2.149-.023-2.103-4.868.023-2.263.023-4.274 0-4.48-.046-.206.046-1.006.16-1.76.16-.914.16-2.492.023-4.457-.137-1.669-.229-3.452-.206-3.977.069-1.989.137-9.189.092-10.812-.046-.914-.046-5.508-.023-10.194.023-4.686 0-9.051-.046-9.714-.046-.663 0-2.606.114-4.32.115-2.149.092-3.794-.114-5.257-.251-1.783-.251-2.172.023-2.355.183-.114 1.691-.182 3.337-.137 3.383.092 3.52.137 5.486 2.057.64.618 1.851 1.715 2.697 2.446 2.743 2.377 2.88 2.514 3.223 3.177.503.96.411 1.303-.412 1.646-1.051.434-2.125 1.371-2.125 1.897 0 .229.205.663.434.96.434.526.457.526 1.737.16 1.806-.526 3.314-1.577 4.983-3.474 1.623-1.852 2.537-3.36 3.177-5.257.891-2.583.434-3.68-1.166-2.857-.708.365-1.005.822-1.005 1.508 0 .183-.389 1.189-.869 2.24-1.12 2.446-1.531 2.492-3.063.412-.366-.48-.777-.892-.937-.892-.137 0-.983-.754-1.828-1.668-.87-.938-1.943-1.943-2.378-2.263-.457-.343-1.508-1.257-2.377-2.08-.937-.892-1.668-1.417-1.897-1.326-.411.16-6.08.366-12.343.48-4.228.069-6.468.366-6.468.869 0 .137-2.034 2.285-4.549 4.8-3.52 3.52-4.64 4.502-4.983 4.388-.662-.228-1.508-1.074-1.508-1.508 0-.206-.137-.595-.32-.869-.183-.251-.572-1.257-.869-2.217-.411-1.372-.663-1.806-1.12-1.966-.663-.251-.663-.297-.297-1.348.252-.686.229-.869-.137-1.28-.251-.275-.777-.549-1.189-.618-.64-.114-7.565-.342-13.874-.434-2.628-.068-2.72-.297-.594-1.691 1.394-.937 1.737-1.395 1.966-2.606.205-1.074-.32-1.577-1.235-1.189-.982.458-1.394.343-2.4-.73a44.371 44.371 0 0 0-2.08-2.058c-1.097-1.029-1.417-1.76-.868-2.103.137-.091 3.68-.16 7.863-.16 4.96 0 7.977-.091 8.662-.274 1.03-.252 1.12-.343 1.6-1.6.458-1.166.48-1.532.298-3.36-.138-1.349-.138-2.56.045-3.657.16-.892.206-1.897.115-2.24-.183-.8.228-2.286.822-2.789.778-.663.892-1.623.275-2.126-.457-.388-1.052-.434-4.937-.41-2.423 0-4.549-.092-4.709-.184-.16-.091-1.92-.137-3.908-.091-1.989.045-7.452.091-12.138.091-4.708 0-11.45.114-15.04.229-3.794.137-6.56.137-6.628 0-.069-.115-.023-1.669.091-3.452.275-3.862.275-4.045.115-8.045-.092-1.715-.183-5.28-.229-7.955-.068-2.65-.183-4.937-.251-5.097-.092-.137-.046-1.394.091-2.788.183-1.692.183-2.812.023-3.314-.297-.96-.709-7.52-.869-13.715a684.67 684.67 0 0 0-.228-8.685c-.114-3.452-.069-4.115.366-5.875.502-1.897.502-1.988.114-2.674-.48-.777-.549-1.783-.732-9.417-.205-8.457-.114-15.383.183-15.863.092-.16.023-.8-.183-1.44-.274-.891-.342-2.308-.32-5.76.023-3.04-.068-4.868-.274-5.462-.16-.48-.228-1.029-.16-1.189.069-.183 0-1.6-.114-3.177-.229-2.674-.366-6.903-.48-13.554-.046-3.429.206-10.08.389-10.263.068-.069 1.622-.16 3.428-.206 9.12-.183 12.8-.32 13.874-.571.915-.206 1.646-.183 3.475.137 1.805.297 2.65.343 3.748.137 1.691-.274 5.691-.16 6.674.206.503.205 1.28.205 2.88.023 2.286-.275 4.023-.32 9.12-.252 4.114.046 8.252.046 10.332.023.914 0 4.914-.069 8.868-.114 4.686-.069 7.451-.023 7.886.16.48.16 1.028.16 1.92-.023.685-.16 3.245-.32 5.691-.389 4.96-.137 5.166-.091 5.509 1.303.388 1.692 1.463 4.206 2.148 5.189.412.548.732 1.12.732 1.234 0 .114.32.686.685 1.257 1.235 1.806 3.498 2.926 4.298 2.103.182-.16.297-.937.297-1.783v-1.486l1.76-1.76c4.617-4.571 5.851-5.714 6.514-5.988.686-.274 7.063-.526 11.657-.457.983 0 2.08-.069 2.446-.16.365-.115 1.92-.115 3.474-.046 1.554.091 2.926.114 3.04.046zM312.93 45.078c.915.8 2.4 2.24 3.292 3.177 4.663 4.892 5.051 5.189 7.497 5.303 1.783.092 2.034.206 2.034.983 0 .32.16.983.343 1.44.297.709.457.823 1.189.823.457 0 .914-.114.982-.252.252-.388 1.052-.251 1.189.183.091.275.686.595 1.554.869 1.44.457 1.737.571 3.635 1.646 1.851 1.074 1.668 2.08-.915 4.525-1.005.983-2.285 2.263-2.811 2.857-.526.572-1.714 1.76-2.606 2.629-.914.868-1.76 1.828-1.874 2.148-.297.8-.297 3.863 0 4.663.206.48.16 1.12-.114 2.515-.32 1.508-.343 2.125-.138 3.268.16.777.206 1.509.16 1.6-.137.229-.228 8.114-.182 13.554.022 1.852.022 3.84 0 4.435 0 .594-.023 3.337 0 6.125.022 2.766.045 5.417.045 5.874-.023 1.509.275 11.795.412 14.766.16 3.429.16 2.903-.092 6.583-.114 1.668-.16 4.091-.068 5.394.114 1.943.091 8.503-.046 20.777 0 .594.023 1.623.069 2.286.045.663.068 2.537.045 4.183-.068 3.154.023 4.617.297 5.051.092.16.046 1.783-.137 3.657-.228 2.629-.228 3.703 0 4.846.343 1.76.343 2.674.297 14.628l-.045 9.326.548.823c.297.434 1.349 1.531 2.332 2.423 3.383 3.085 6.971 6.788 6.971 7.223 0 .777-1.234 1.6-3.246 2.217-.525.16-1.462.548-2.08.845-.685.343-1.554.572-2.194.572-.777 0-1.166.137-1.577.594-.526.549-.549.732-.457 3.109.068 1.394.023 2.674-.092 2.834-.137.228-3.77.32-17.05.343-9.28.023-17.83.091-19.018.137-1.188.046-2.537 0-2.994-.114-.48-.115-1.943-.298-3.246-.412-3.566-.274-3.451-.206-9.554-6.4-1.577-1.623-2.331-2.56-2.331-2.948 0-.297.32-1.006.731-1.555.823-1.142.754-1.828-.183-1.828-.846 0-1.417.366-3.588 2.354-1.646 1.486-2.103 2.08-2.835 3.68-.503 1.029-.96 1.943-1.051 1.989-.297.183-.64-.183-1.6-1.76-1.554-2.56-3.269-4.343-5.257-5.532-1.143-.663-1.486-.777-2.012-.594-.457.16-.663.434-.731.891-.069.663-.023.709 1.737 2.149l.709.571-.915 1.029c-1.371 1.486-7.611 7.108-8.16 7.337-.274.091-8.914.206-19.2.251-10.308.046-20.045.16-21.645.252-4.206.206-3.977.594-4.023-6.629-.023-2.148-.114-2.902-.411-3.382-.229-.32-2.423-2.606-4.892-5.052-4.183-4.183-4.457-4.526-4.388-5.257.068-.64.251-.914 1.028-1.349.526-.297 1.555-.73 2.286-.937.731-.228 1.531-.548 1.783-.731.274-.183.891-.32 1.371-.32 1.395 0 2.172-.434 2.08-1.189-.068-.64-.434-.777-4.845-1.714-.778-.16-1.943-.64-2.629-1.051-1.806-1.052-1.783-1.555.137-3.52.823-.846 2.217-2.286 3.109-3.2.891-.937 2.354-2.377 3.268-3.246 1.28-1.211 1.737-1.829 2.057-2.766.458-1.463.526-3.245.183-5.714-.16-1.257-.183-2.697-.023-4.411.115-1.395.16-2.629.069-2.766-.16-.251-.32-3.771-.411-8.937-.046-3.52-.092-3.932-.64-5.029-.32-.64-1.075-1.554-1.669-2.034-1.943-1.554-8.64-8.411-8.64-8.846.023-1.508 3.703-3.314 7.886-3.885 2.605-.366 2.903-1.006 2.697-5.646-.183-4.434-.137-6.4.343-13.44.045-.8.091-1.737.114-2.103 0-.548.137-.685.96-.891.96-.274 1.92-1.052 1.92-1.577 0-.48-.823-1.052-1.806-1.257l-.96-.206v-8.754c0-7.155.069-8.869.343-9.189.274-.343.869-.411 3.954-.411 4.572-.023 4.503-.023 7.955.091 1.577.046 3.702 0 4.731-.091 1.874-.206 4.777.183 5.28.708.229.229.297 18.24.069 18.469-.069.068-.64-.046-1.258-.252-.777-.251-1.371-.297-1.851-.16-.457.137-1.029.115-1.531-.045-.435-.138-1.326-.206-2.035-.115-1.371.16-1.463.183-6.948.137-4.069-.045-4.892.138-5.257 1.143-.16.457-.069.686.411 1.189.572.571.709.594 1.989.411 1.348-.205 3.108-.251 4.48-.137.388.046 2.057 0 3.725-.091 4.252-.206 4.572-.206 5.577 0 .755.16 1.052.091 1.623-.32l.686-.503.823.48c.846.48 1.006.503 19.154.343 27.2-.229 27.131-.229 27.588.343.32.388.412 1.188.458 4.388.022 2.149.022 4.412 0 4.983-.092 1.897-.092 2.903-.069 7.566 0 2.514.023 6.354.046 8.525.023 4.435.091 4.915.685 5.189.229.091 3.269.206 6.789.228 3.497.046 9.074.092 12.411.115 6.652.045 6.995 0 7.543-1.395.183-.502.457-15.131.389-21.188-.092-7.36-.16-15.726-.183-24.594l-.023-11.04-4.206-4.252c-2.308-2.33-4.663-4.548-5.211-4.914-.549-.365-1.166-.983-1.372-1.348-.365-.663-.342-.686.663-1.532 1.577-1.303 4.937-2.468 7.155-2.468 1.097 0 1.622-.115 1.92-.412.982-.983 1.005-1.394.982-13.6-.023-6.445.023-11.817.115-11.954.068-.137.754-.274 1.485-.32 1.897-.114 2.652-.571 3.155-1.966.228-.64.48-1.691.571-2.354.091-.663.617-2.126 1.189-3.268 1.394-2.903 1.668-2.972 4.022-.892zm-43.336 8.252c7.337.022 14.194-.046 15.245-.138 1.212-.091 2.537-.045 3.589.138.937.16 2.971.251 4.571.205 3.863-.091 6.446-.091 6.56.046.069.046.114 2.994.137 6.514.023 3.543.115 6.56.229 6.743.091.16.068.663-.092 1.097-.251.777-.297.8-1.874.96-3.063.274-2.766.412-6.217-2.834l-1.509-1.417.069-1.326c.046-1.234 0-1.371-.48-1.44-.823-.114-2.971 2.171-3.886 4.114-.823 1.76-.914 2.377-.388 2.812.685.571 1.417.183 2.125-1.143.389-.754.823-1.257 1.075-1.257.228 0 1.325.96 2.445 2.125 2.972 3.086 3.178 3.2 5.92 3.292 1.28.046 2.4.16 2.538.297.274.274.32 2.903.068 4.297-.16.937-.251 1.029-1.28 1.372-.617.205-1.623.434-2.263.525-.64.092-1.668.503-2.4.96-.685.435-1.76 1.075-2.331 1.44-2.286 1.372-3.886 3.452-3.452 4.526.069.183.503.32 1.052.32 1.097.023.8-.229 6.217 5.074 3.931 3.863 4.343 4.366 4.343 5.394 0 .846-.64 1.098-2.56 1.052a148.75 148.75 0 0 0-5.417.023c-2.56.045-4.046-.046-4.595-.229-.617-.228-1.234-.251-2.468-.068-1.303.205-10.811.228-17.966.045-.274-.023-3.634.046-7.497.137-4.754.115-7.177.069-7.497-.091-.754-.411-.96-1.783-.846-5.531.16-4.458.16-6.172.092-9.715-.046-1.6-.046-4.32-.023-6.057.069-4.457-.434-4.16 6.468-4.023 13.372.252 25.257.206 26.377-.091.389-.114.846-.48 1.029-.823.343-.594.32-.686-.16-1.166-.457-.457-.846-.525-3.954-.662a136.28 136.28 0 0 0-7.52-.023c-2.24.068-4.823.045-5.76-.069-.914-.091-4.777-.137-8.549-.046-7.565.138-7.634.115-7.657-1.28-.16-5.897-.228-13.234-.114-13.645.183-.709.617-.8 3.131-.64 1.189.091 8.137.183 15.475.206zm131.77 30.834c2.354-.115 3.292-.115 11.383.045 3.314.069 7.634.138 9.623.16 2.628.023 3.725.115 4.068.366.366.274.457.709.526 2.697.046 1.303.16 3.612.251 5.12.092 1.532.115 3.314.069 3.977-.069.663-.023 1.989.091 2.949.16 1.211.138 1.897-.045 2.194-.16.274-.183 1.463-.046 3.749.091 1.828.091 3.497 0 3.702-.114.206-.16 1.875-.114 3.726.16 8.252.137 18.012-.092 20.983-.183 2.217-.183 4.434 0 6.971.137 2.057.183 4.846.092 6.24-.092 1.395-.046 3.337.091 4.32.137.983.297 5.097.366 9.12.046 4.023.228 9.052.388 11.154.16 2.126.275 4.16.275 4.572v2.148c.068 7.52-.023 20.183-.16 24.366-.092 2.834-.206 7.314-.229 9.966-.023 2.628-.206 6.56-.388 8.708-.298 3.589-.366 3.954-.823 4.137-1.006.434-8.915.594-19.223.412-5.806-.092-11.04-.252-11.611-.32-.823-.115-1.28-.366-1.92-1.052-.48-.48-1.189-1.074-1.577-1.326-.39-.228-.96-.777-1.303-1.188a33.961 33.961 0 0 0-1.692-1.829c-2.103-2.125-3.84-4.182-3.84-4.571 0-.206.32-.686.709-1.051 1.211-1.166.823-2.263-.686-1.898-.868.229-2.331 1.212-2.766 1.898-.205.297-.594.617-.845.708-.252.092-.595.503-.732.96-.16.457-.594 1.212-.96 1.692-.388.457-.777 1.188-.868 1.577-.069.411-.297.777-.457.845-.48.183-1.28-.32-1.463-.937-.549-1.828-4-5.691-5.829-6.514-1.325-.594-2.514-.32-2.628.64-.069.503.114.754 1.005 1.371.595.412 1.189.915 1.326 1.143.32.595-.183 1.44-1.577 2.697-2.286 2.035-4.434 4-5.691 5.189-.778.754-1.578 1.28-2.08 1.394-.458.092-2.835.229-5.258.297a605.16 605.16 0 0 0-8.16.275c-2.057.114-4.8.091-6.125-.023-1.326-.092-4.526-.115-7.109-.046-3.977.137-4.754.091-5.005-.206-.343-.411-.526-4.411-.229-4.982.114-.23.663-.435 1.417-.55 1.806-.228 5.646-1.85 6.834-2.856l1.486-1.234c.846-.686 2.24-2.995 2.24-3.703 0-.937-.937-1.052-2.194-.275-.389.229-.96.366-1.257.32-.709-.137-3.886-2.994-4.366-3.931-.206-.389-.777-.96-1.28-1.28-2.217-1.394-2.651-2.789-2.766-8.731-.045-2.08-.183-5.28-.32-7.132-.114-1.851-.183-6.765-.16-10.925.023-4.137.046-10.903.046-14.995 0-4.091.023-8.297.069-9.348.114-3.451.091-6.629-.138-13.44-.182-5.851-.228-8.594-.114-10.743 0-.297-.046-4.365-.114-9.074-.366-25.371-.434-29.988-.389-33.714.046-2.24.16-4.183.275-4.297.114-.114.845-.229 1.6-.229.777 0 3.497.023 6.08.023 2.56 0 4.982.023 5.394.069.8.091 1.577.091 8.64.023 8.8-.07 18.56-.092 23.52-.046 2.628.023 5.714-.046 6.834-.16 1.12-.114 3.223-.137 4.686-.069 1.44.069 4.045 0 5.76-.16 1.737-.16 4.068-.205 5.28-.114 1.188.091 3.062.114 4.205.046zm-112.32 15.885c1.12.16 2.4.275 2.88.252 3.04-.206 7.04-.16 7.338.045.48.366.891 5.349.709 8.777-.07 1.51-.16 4.138-.183 5.806-.023 1.692-.115 3.2-.229 3.36-.183.297-3.954.526-8.114.48-1.006 0-4.366-.023-7.474-.046-3.132-.022-5.806-.137-5.989-.251-.366-.229-.868-4.091-.823-6.583.023-.937.046-3.84.069-6.491.023-2.629.137-4.914.228-5.074.138-.206 1.486-.32 4.229-.412 2.217-.068 4.114-.183 4.183-.274.091-.069.365-.069.64 0 .274.068 1.394.274 2.537.411zm-38.49.069c.411.297.525.686.64 2.583.091 1.211.205 2.651.297 3.177.16 1.12.16 1.12.023 7.268-.092 3.132-.206 4.755-.412 4.983-.343.412-1.325.48-1.577.092-.251-.412-.411-5.12-.434-11.932-.023-5.143.046-6.103.343-6.285.48-.298.525-.298 1.12.114zm-15.155 1.326c.16.8.23 3.908.183 8.045-.114 9.143-.068 8.572-.823 8.846-1.462.503-1.668-.526-1.69-8.137 0-7.726.068-9.554.342-9.897.137-.183.594-.297.983-.252.685.069.754.16 1.005 1.395zm3.589-1.029c.526 1.349.731 4.023.571 7.749-.114 2.628-.091 4.114.092 4.41.32.595.046 5.144-.32 5.6-.343.39-1.28.412-1.623 0-.206-.273-.297-2.445-.251-7.496 0-.252-.023-2.537-.023-5.074-.023-2.949.068-4.778.228-5.098.32-.617 1.097-.662 1.326-.091zm4.594 3.314c.16 2.217.183 4.343.046 5.577-.114 1.189-.114 2.377.023 2.995.137.571.206 1.622.137 2.331a49.016 49.016 0 0 0-.091 2.469c-.023 1.142-.023 1.142-.846 1.142-.549 0-.914-.137-1.052-.411-.114-.229-.205-4.046-.182-8.48.045-8.64.16-9.44 1.165-9.303.503.069.549.206.8 3.68zm3.155-3.428c.434.548.708 7.84.457 12.662-.069 1.532-.023 2.812.137 3.292.206.571.206.937 0 1.371-.503 1.097-1.44.572-1.463-.823 0-.342-.069-4.091-.137-8.365-.114-5.692-.069-7.863.137-8.092.32-.411.549-.434.869-.045zm8.16.114c.114.229.228 3.017.25 6.194.024 3.154.092 6.72.184 7.909.16 2.285-.069 3.383-.754 3.634-.206.091-.55 0-.755-.206-.32-.32-.388-1.623-.457-8.823-.068-6.125-.023-8.548.183-8.8.366-.457 1.097-.41 1.349.092zm3.154-.069c.183.206.274 1.235.251 2.812 0 1.371 0 2.651.023 2.834.069.457.229 8.503.206 10.331-.023 1.829-.595 2.492-1.143 1.303-.183-.434-.297-2.583-.297-6.788 0-3.383-.023-7.063-.046-8.206-.046-1.12-.023-2.171.023-2.331.137-.389.64-.389.983.045zm3.497.618c.503 1.417.891 7.634.617 9.417-.137.868-.229 2.925-.183 4.594.046 2.491-.023 3.086-.297 3.268-.594.366-.663.298-1.097-.96-.32-.982-.389-1.988-.32-5.234.046-2.194.023-5.577 0-7.52-.046-1.92 0-3.748.091-4.023.229-.754.869-.525 1.189.458zm3.954-.618c.183.229.32 1.623.389 3.84.068 1.92.205 3.955.297 4.526.114.549.137 1.28.046 1.6-.092.343-.138 2.171-.115 4.091 0 1.92-.023 3.612-.068 3.772-.137.434-1.052.388-1.692-.069-.48-.343-.525-.548-.48-2.331.046-1.097.046-3.543 0-5.463-.114-4.32.115-9.257.457-9.851.275-.549.778-.595 1.166-.115zm4.023-.045c.297.365.663 8.182.663 13.851v4.206l-.8.091c-.457.046-.914-.023-1.029-.16-.388-.366-.663-17.508-.297-18.103.183-.297 1.212-.205 1.463.115zm4.434.114c.915 1.051 1.075 3.909.663 11.223 0 .137.046 1.623.137 3.291.137 2.88.115 3.063-.343 3.292-.685.388-1.6.32-1.965-.115-.457-.548-.663-17.211-.229-17.737.412-.48 1.303-.457 1.737.046zm-43.04.731c.32.8.366 3.932.23 12.412-.07 3.794-.115 4.32-.48 4.388-.23.046-.458-.114-.572-.457-.252-.846-.32-5.188-.069-6.994.114-.937.114-2.651 0-4.069-.388-4.388.092-7.291.892-5.28zm60.229 20.092c8.525.091 8.685.114 8.685 1.303 0 .982-.342 1.28-1.691 1.485-1.349.206-1.714.503-1.6 1.303.046.412.251.48 1.486.549.777.045 1.577.183 1.737.32.434.388.388 2.125-.092 2.651-.251.274-.731.434-1.325.434-.526 0-1.166.115-1.417.252-1.12.594-.023 1.988 1.508 1.897 1.212-.069 1.349-.023 1.6.434.274.48-.228 2.172-.731 2.492-.183.114-2.035.137-4.16.068-3.817-.16-3.84-.16-4.572-.846-.891-.845-1.531-.868-2.468-.09-.663.57-.892.593-3.68.64-5.714.068-6.514.022-6.812-.412-.388-.503-.045-1.76.64-2.332.32-.274.915-.434 1.577-.434 1.783 0 2.423-.571 1.6-1.463-.297-.32-.73-.457-1.668-.457-1.074 0-1.326-.091-1.76-.617-1.074-1.372-.434-2.286 1.691-2.446 1.646-.114 2.149-.343 2.149-1.006 0-.525-.983-.96-2.172-.96-.64 0-1.12-.16-1.44-.48-.525-.525-.845-1.508-.64-2.034.16-.411 1.6-.571 3.886-.434.914.046 5.28.137 9.669.183zm-4.892 14.994c.343.137.617.411.617.617 0 .206.343 1.097.755 1.989.754 1.6.754 1.6.525 3.885-.274 2.537-.068 5.555.389 6.103.366.434 1.12.503 1.349.114.091-.137.182-2.217.205-4.594l.069-4.343.663-.525c.503-.412.685-.8.8-1.829l.16-1.28h7.908l.343.663c.457.983.092 2.354-.754 2.766-.343.16-1.646.32-2.88.365-1.669.046-2.446.183-2.903.48-.686.457-.777.755-.32 1.029.16.114 1.669.206 3.337.206 3.543 0 3.726.091 3.406 1.6-.252 1.211-.48 1.302-3.634 1.485-2.469.16-2.926.297-2.926.892 0 .731.777.937 3.406.937 1.622 0 2.582.114 2.765.297.16.16.297.709.297 1.211 0 1.189-.365 1.326-4.548 1.669-3.863.297-2.697.297-8.64.023-2.72-.114-5.714-.206-6.674-.206-1.943.023-2.332-.228-2.08-1.303.274-1.211.663-1.371 3.405-1.485 2.926-.115 3.726-.412 3.612-1.395l-.069-.594-3.223-.069c-1.874-.045-3.36-.182-3.542-.342-.412-.32-.412-1.669-.023-2.172.228-.32.891-.434 2.902-.571 2.766-.183 3.749-.572 3.452-1.372-.137-.32-.503-.411-2.057-.411-2.012 0-4.32-.343-4.686-.686-.114-.137-.228-.663-.228-1.211-.046-1.532.388-1.783 3.268-1.943 4.069-.252 4.914-.229 5.554 0zm-268.935.914c.228.297.274.8.137 1.852-.091.8-.183 3.222-.229 5.394-.045 3.063.023 4.183.298 4.868.297.778.32.96.045 1.303-.388.48-.365 6.08.046 6.834.137.252.503.435.846.435.48 0 .685-.183 1.028-1.006.366-.869.412-1.417.275-3.543-.092-1.394-.115-2.651-.069-2.811.069-.183.48-.32.937-.32.754 0 .823.068.663.548-.274.8-.114 5.486.229 6.172.16.388.502.64.937.685.548.069.708-.045.983-.708.274-.663.297-.914.045-1.394-.365-.709-.663-5.006-.343-5.189.389-.251 1.166.389 1.166.96 0 .297.206.823.457 1.143.457.571.457.64.069 1.189-.32.434-.434 1.28-.526 3.794-.114 3.268-.411 4.137-.914 2.674-.137-.389-.48-.777-.8-.869-.526-.182-.869.092-1.532 1.212-.342.571-1.074.297-1.074-.366 0-.64-1.028-1.691-1.668-1.691-.366 0-.549.251-.755 1.074-.16.594-.434 1.211-.64 1.394-.411.343-9.463.457-9.805.115-.092-.092-.206-5.395-.252-11.795-.046-10.72-.023-11.634.343-11.977.503-.434 2.034-.548 6.537-.457 2.697.069 3.292.16 3.566.48zm15.337-.366c.16.16.297.595.297.96 0 .869.64 2.103 1.074 2.103.457 0 .846-.754.846-1.645 0-.823.594-1.532 1.166-1.418.251.046.457.458.594 1.189.229 1.234.731 1.623 1.6 1.166.343-.183.48-.503.48-1.075 0-1.165.206-1.577.846-1.577s.845.412.845 1.669c0 1.028.366 1.326 1.28.983.618-.229.869-.686.869-1.577 0-.32.114-.64.251-.709.389-.251 1.189.114 1.189.549 0 .228.114.8.251 1.302.206.709.366.892.8.892.755 0 1.052-.412 1.143-1.554.069-.846.16-.96.686-.96.549 0 .617.137.8 1.417.206 1.211.16 1.463-.251 2.034l-.48.64-3.932-.091c-2.331-.046-4.503-.206-5.303-.412-2.194-.548-3.84-.32-5.074.709-1.234 1.028-.137 2.583 2.103 2.994.937.183 1.257.137 2.171-.366.983-.525 1.326-.548 4.617-.548 3.589 0 5.555.251 5.875.777.251.411-.046 2.148-.412 2.537-.274.297-.388.183-.754-.594-.64-1.372-1.371-1.395-1.806-.046-.32.914-.434 1.029-1.051 1.029-.663 0-.709-.046-.823-1.28-.091-.892-.274-1.395-.594-1.623-.572-.412-.64-.412-1.212 0-.365.274-.48.64-.48 1.623 0 1.211-.023 1.28-.617 1.348-.548.069-.686-.068-1.028-.983-.48-1.234-.846-1.463-1.555-.96-.343.229-.503.595-.503 1.143 0 .434-.16.914-.342 1.074-.458.366-1.098.092-1.212-.548-.068-.274-.16-.8-.228-1.143-.298-1.394-2.058-.754-2.058.754 0 .617-.091.709-.64.709-.388 0-.8-.229-1.097-.594-.617-.778-.914-.755-1.76.114-.845.891-1.302.914-2.034.137-.754-.8-1.28-.754-1.988.137-.732.937-1.532.846-2.149-.251-.48-.892-1.12-.937-1.851-.137-.663.708-1.12.777-1.303.182-.183-.617-.206-5.897-.046-7.862.069-.915.137-1.76.137-1.852 0-.32.503-.183 1.143.297.32.275.846.48 1.143.48.274 0 .708-.205.96-.48.228-.274.708-.48 1.074-.48.366 0 .846.206 1.074.48.252.275.618.48.846.48.229 0 .594-.205.846-.48.594-.663 1.6-.617 2.285.115.755.822 1.28.754 1.875-.229.525-.891.937-1.051 1.417-.549zm17.988 4.252c0 2.971-.068 3.908-.32 4.114-.274.229-.342.16-.365-.297a67.42 67.42 0 0 0-.115-1.417c-.114-1.166-.068-5.829.069-6.057.069-.092.251-.183.411-.183.252 0 .32.868.32 3.84zm-19.428 9.44c.16.114.297.366.297.526 0 .457 1.189 2.49 1.6 2.72.891.502 3.931 3.52 3.931 3.908 0 .686-1.234 1.166-2.948 1.166-1.577 0-2.583.434-2.583 1.097 0 .526-.709.777-2.446.868-1.097.046-1.714-.022-1.92-.228-.205-.206-.32-1.166-.342-2.949-.046-2.948-.183-3.725-.755-4.365-.343-.366-.343-.457 0-.823.206-.229.412-.8.457-1.257.069-.663.206-.869.686-.983.8-.206 3.634.023 4.023.32zm-19.109 13.805c.549.32.892.32 2.286.092 1.692-.297 14.08-.663 16.891-.503.846.046 2.08.046 2.743 0 1.532-.091 2.537-.091 8.297.069 2.56.068 6.149.137 7.978.114h3.29v1.188c0 .892.23 1.646.96 3.132.527 1.074.96 2.011.96 2.057 0 .069.504.846 1.098 1.737 1.371 2.012 2.491 3.063 3.84 3.589.891.32 1.097.343 1.691.045.64-.32.686-.411.618-1.577-.046-.914.091-1.531.457-2.263.731-1.462 7.154-7.84 8.183-8.137 1.257-.343 5.6-.274 5.92.115.342.388.41 9.302.114 10.33-.137.412-.137 1.258-.046 1.92.343 2.104.434 17.12.114 19.087-.137 1.005-.251 2.834-.228 4.09.023 1.258.045 3.407.045 4.8 0 1.395.023 2.79.023 3.11 0 .342.069 2.445.137 4.685.069 2.24.115 5.234.115 6.652-.023 1.417.091 3.017.228 3.542.32 1.166-.114 3.543-.708 3.84-.206.115-1.12.092-2.035-.023-1.577-.205-10.628-.297-18.49-.205-2.927.045-19.224.068-23.635.023-7.977-.046-12.091 0-14.628.228-2.012.16-4 .183-6.012.023-1.646-.137-3.291-.183-3.634-.114-.343.068-.686.023-.732-.069-.068-.114-.045-1.623.046-3.337.114-2.263.069-3.406-.16-4.137-.228-.8-.251-1.623-.068-3.52.32-3.36.114-18.263-.252-19.268-.206-.572-.228-1.212-.046-2.286.115-.823.206-2.149.16-2.949a669.912 669.912 0 0 1-.205-13.074c0-.594.023-2.377.068-3.954.046-1.6-.045-4.274-.205-5.966-.16-1.691-.229-3.131-.16-3.223.571-.571 3.931-.48 4.982.137z"/>
	<path d="M393.41 38.815c-.869.229-1.897.937-1.897 1.326a.62.62 0 0 1-.32.503c-.183.114-.526.503-.777.891l-.435.686-.297-1.006c-.16-.548-.48-1.211-.685-1.463-.549-.57-2.583-1.005-3.909-.8-1.646.23-1.851.732-1.646 3.978.183 2.582.412 3.542.869 3.542.48 0 .96-.8.96-1.577 0-1.028.457-1.257 1.76-.8.8.297 1.006.503 1.211 1.28.48 1.669 1.829 1.875 1.829.275 0-1.006.457-1.12 1.143-.275.251.32.868.8 1.394 1.075 1.691.914 3.52.548 4.96-.983l.663-.732 1.211 1.143 1.234 1.143 1.692-.091c1.691-.115 1.714-.115 2.697-1.235 1.006-1.165 1.326-1.234 1.326-.297 0 1.234 1.325 1.486 1.737.32l.251-.777.777.891c1.006 1.166 1.806 1.189 2.286.115.389-.869 1.006-1.029 1.143-.297.114.548.503 1.074.8 1.074.686 0 1.006-4.892.434-6.652-.251-.73-.365-.8-1.028-.73-.686.045-.846.25-1.6 1.782-.457.96-.937 1.714-1.075 1.668-.114-.022-.411-.48-.662-1.005-1.12-2.332-1.326-2.629-2.012-2.697-.8-.115-1.28.457-1.303 1.508v.732l-1.028-1.12c-.755-.823-1.28-1.166-1.966-1.303a4.263 4.263 0 0 0-3.977 1.348c-.48.526-1.006.937-1.143.937s-.411-.297-.594-.64c-.206-.365-.549-.845-.8-1.05-.572-.504-2.423-.892-3.223-.687zm-6.126 1.806c.229.091.389.411.389.731 0 .526-.092.572-1.074.572-.869 0-1.075-.092-1.212-.503-.251-.777.8-1.211 1.897-.8zm8.343.571c.686.938.846 2.789.32 3.383-.571.64-2.24.64-3.017 0-.503-.388-.571-.64-.526-1.737.046-1.051.16-1.371.686-1.828.823-.709 1.92-.64 2.537.182zm8 .343c1.029 1.372.32 3.749-1.097 3.749-.869 0-2.034-.572-2.217-1.097-.32-.8-.16-2.195.32-2.812.823-1.051 2.125-.983 2.994.16zm-61.462-2.56c-2.812.343-2.629 4.297.205 4.755.572.091 1.257.32 1.577.502.435.275.48.435.275.823-.32.617-1.463.617-2.035-.023-.845-.937-2.102-.32-1.645.823.251.64 1.645 1.349 2.697 1.349 1.508 0 2.56-.549 3.108-1.577l.458-.915.297.869c.32 1.006.891 1.326 1.417.8.297-.297.388-.983.388-3.086v-2.697l.846.092c.457.045.96.205 1.12.342.16.16.411 1.418.526 2.789.137 1.371.343 2.583.48 2.72.114.137.457.16.731.069.549-.183.594-.389.617-3.269 0-2.377.206-2.629 2.195-2.629 1.874 0 2.011.206 2.285 3.223.206 2.126.457 2.789 1.075 2.789.571 0 .822-1.097.822-3.589 0-2.537.046-2.651 1.326-2.651.754 0 .754-.594 0-1.097-.48-.297-1.188-.389-3.428-.343-1.555 0-3.84.023-5.075.023-1.417-.023-2.468.091-2.88.32-.343.183-.983.274-1.417.206-.663-.115-.8-.046-1.005.525-.138.343-.252 1.234-.252 1.966 0 1.326 0 1.326-.64 1.166-.343-.092-1.417-.526-2.377-.983-1.28-.595-1.714-.937-1.623-1.189.206-.571 1.372-.411 2.012.252 1.005 1.097 2.24.525 1.622-.778-.297-.617-2.125-1.76-2.72-1.69-.137 0-.571.068-.982.113zm31.908.206c-.572.206-1.372.777-1.806 1.257-.411.48-.686.686-.594.434.206-.548-.64-1.6-1.303-1.6-.708 0-1.188.938-1.028 1.99.205 1.233-.32 1.21-1.44-.115-1.92-2.286-2.012-2.354-2.766-1.874-.297.182-.343.822-.32 3.245.046 3.177.251 3.954 1.028 3.954.526 0 .915-.617 1.029-1.691.046-.434.206-.823.343-.869.137-.045.663.435 1.166 1.052 1.165 1.486 1.508 1.76 2.194 1.76.388 0 .617-.206.777-.663.137-.366.343-.869.457-1.143.206-.457.229-.457.457.114.137.343.526.892.892 1.212.594.571.8.594 3.062.571 3.155-.023 3.52-.388 2.949-2.971-.297-1.28-.526-1.44-2.057-1.44-1.052 0-1.417.091-1.532.388-.182.48.229 1.029.983 1.303 1.28.503-.023 1.326-1.44.937-.731-.205-.845-.342-1.12-1.508-.251-1.029-.251-1.394 0-1.852.595-1.142 1.532-1.257 2.972-.365.525.297 1.097.503 1.257.457.526-.206.366-1.12-.343-1.943-.8-.96-2.286-1.211-3.817-.64zm-11.657.526c-.32.343-.366.868-.274 3.291.137 3.269.32 3.794 1.257 3.68l.64-.068.023-3.063c.022-3.109-.183-4.069-.892-4.206-.206-.046-.548.114-.754.366zm-98.148-17.463c-1.143.343-2.766 1.646-3.04 2.423-.594 1.668-.137 3.543 1.188 4.868l.938.938 1.897-.138c2.125-.137 2.651-.342 3.131-1.234.434-.8.754-.777 1.257.114.572.983 1.897 1.509 3.246 1.303.823-.114 1.28-.388 2.011-1.12.503-.525.938-1.097.96-1.234 0-.16.183.206.412.8.731 1.897 1.554 1.463 1.92-1.006l.183-1.28.823.869c.457.457 1.142 1.234 1.508 1.737.686.891 1.417 1.143 1.76.571.114-.16.251-.777.32-1.371.137-1.166.274-1.234 1.623-.686.617.252.868.252 1.371-.023 1.692-.914.412-1.691-2.263-1.394-.594.069-.594.023-.594-1.554 0-1.714-.274-2.24-1.051-1.989-.526.16-.709.526-.846 1.76-.046.435-.16.846-.229.937-.205.183-.868-.411-.868-.777 0-.457-1.051-1.6-1.874-2.08-.686-.411-.755-.411-1.349.069-.571.434-.663.457-1.166.114-.48-.32-.64-.32-1.005-.068-.343.251-.503.914-.709 2.925-.274 2.56-.274 2.606-.96 2.835-.594.205-.777.137-1.417-.503-.731-.732-.731-.755-.457-2.035.251-1.074.251-1.417-.069-2.148-.205-.48-.457-.937-.571-1.006-.434-.274-.96.16-1.12.914-.412 2.058-1.12 2.675-1.28 1.098-.092-1.075-.869-2.126-1.852-2.538-.891-.365-.914-.365-1.828-.091zm1.897 2.286c.96.594 1.006 1.074.114 1.074-.365 0-.914.183-1.211.389-.526.365-.526.411-.137.845.228.252.548.435.731.435.297 0 .709.914.503 1.12-.069.068-.571.182-1.074.251-1.212.16-1.852-.411-2.103-1.806-.114-.8-.069-1.12.366-1.645.457-.618 1.622-1.326 1.92-1.189.068.023.48.274.891.526zm10.034 2.24c-.183.617-.183.617-.365.114-.115-.274-.138-.754-.069-1.051.114-.458.16-.48.366-.115.114.229.16.686.068 1.052zm-7.314.068c0 .869-.114.846-.343-.091-.091-.389-.068-.663.092-.663.137 0 .251.343.251.754zm28.068-4.548c-.457.114-1.28.663-1.805 1.165-.526.526-1.075.938-1.212.938-.114 0-.388-.298-.594-.64-.411-.709-1.44-1.098-3.726-1.395-.983-.137-1.303-.068-1.783.32-.525.412-.617.732-.708 2.355-.206 2.88-.046 4.822.366 4.982.617.252 1.051-.114 1.348-1.142.389-1.372.64-1.623 1.486-1.532.731.069.891.252 1.646 1.989.388.914 1.142.937 1.577.045.388-.822.525-.822 1.463.069.845.823 1.668 1.211 2.628 1.189.96 0 2.994-1.029 3.474-1.76.229-.343.48-.618.595-.618.091 0 .411.366.731.823.686 1.006 2.469 1.692 3.817 1.463 1.029-.183 1.326-.388 2.4-1.646l.777-.914.137.709c.16.731 1.075 1.417 1.532 1.12.16-.092.388-.435.503-.755.205-.548.708-.8.708-.365 0 .274 1.12 1.463 1.395 1.463.32 0 1.142-.778 1.325-1.258.183-.548.64-.525.64.023 0 .937 1.235 1.372 1.646.595.343-.709.526-4.892.229-6.012-.229-.937-.32-1.028-1.029-1.028-.914 0-1.28.365-1.943 2.011-.526 1.303-.983 1.669-1.188.96-.389-1.189-1.258-2.56-1.898-2.88-.662-.366-.708-.343-1.394.366-.754.823-.64.845-2.674-.389-.297-.206-1.029-.274-1.829-.228-1.234.068-2.057.457-3.725 1.714-.183.137-.732-.16-1.646-.914-1.417-1.143-1.806-1.235-3.269-.823zm2.058 2.057c.068.228.228.594.365.823.343.64.275 2.743-.114 3.04-.16.16-.823.343-1.417.434-1.052.137-1.12.114-1.6-.663-1.12-1.851-.092-4 1.966-4.046.457 0 .73.138.8.412zm8.32.366c.137.388.16 1.28.068 2.011-.137 1.166-.251 1.349-.96 1.691-1.029.48-2.011.183-2.583-.822-.388-.64-.388-.869-.137-1.875.366-1.325 1.051-1.805 2.446-1.737.8.046.983.16 1.165.732zm-15.886-.046c.297.48-.229.937-1.097.937-.869 0-1.44-.526-1.212-1.097.115-.32.366-.366 1.143-.274.549.068 1.074.274 1.166.434zM121.732 66.884c-1.075.548-1.76 1.851-1.44 2.674.251.64 1.508 1.646 2.057 1.646.708 0 2.057.685 2.057 1.074 0 .8-1.737.731-2.857-.137-.823-.64-1.166-.572-1.349.297-.16.663-.251.709-.8.571-.365-.091-1.234-.228-1.965-.32-.938-.114-1.326-.274-1.395-.548-.068-.457.937-.914 1.943-.892.709.023 1.372-.411 1.372-.891 0-.571-1.03-1.074-2.24-1.074-.96 0-1.143-.069-1.075-.412.069-.343.389-.457 1.44-.548 1.486-.137 1.966-.435 1.829-1.12-.069-.389-.343-.435-2.56-.435-2.446 0-2.492 0-3.04.686l-.549.709-.868-.64c-.64-.503-1.235-.686-2.355-.8-1.508-.137-1.531-.137-2.674.845-1.097.96-1.577 1.075-1.577.389 0-.183-.251-.48-.526-.686-.48-.343-.594-.32-1.188.023-.64.366-.709.366-1.12 0-.595-.548-3.772-.571-5.029-.046-.8.32-.891.32-1.097 0-.16-.274-.64-.365-2.217-.365-2.469 0-3.177.274-3.383 1.348-.068.457-.228.8-.343.8-.274 0-1.188-.96-1.188-1.257 0-.366-1.646-.891-2.789-.891-2.606 0-4.114 1.897-3.771 4.777.137 1.143.297 1.486 1.143 2.331 1.348 1.372 2.834 1.623 4.411.777.571-.297 1.189-.754 1.349-.96.434-.64.914-.617 1.074.023.137.48.343.64.96.686.937.091 1.211-.206 1.211-1.303.023-.914.32-1.188 1.577-1.417 1.28-.229 1.806-.526 1.806-1.029 0-.662-.503-1.005-1.44-1.005-.457 0-1.006-.092-1.188-.206-.503-.343-.07-.754.777-.754.411 0 1.12-.092 1.531-.229.571-.16.8-.137.8.069.091 2.72.48 5.303.823 5.691.617.663 1.211.229 1.531-1.074.297-1.143.8-1.577 1.783-1.577.732 0 1.189-.526 1.097-1.257-.068-.412-.251-.549-.8-.618-1.325-.114-1.805-.297-1.805-.64 0-.251.251-.365.868-.365.48 0 1.303-.115 1.806-.275.503-.16 1.006-.205 1.074-.137.092.092.137 1.212.137 2.515-.045 2.674.252 3.542 1.143 3.542.412 0 .709-.228.96-.731.206-.389.412-.754.434-.823.046-.046.503.32 1.029.846.96.914 1.006.937 2.72.937 1.554 0 1.829-.069 2.537-.663l.8-.686.503.618c.48.571.663.617 2.88.662 2.263.069 2.377.046 2.857-.525l.503-.595 1.348.686c1.098.549 1.51.64 2.492.526 2.08-.229 3.314-1.6 2.811-3.086-.343-.96-1.188-1.851-1.737-1.851-.228 0-.48-.092-.548-.206-.069-.114-.458-.274-.846-.366-.434-.068-.732-.297-.732-.503 0-.48 1.509-.502 1.92 0 .343.412 1.098.48 1.326.092.366-.594-.16-1.463-1.143-1.897-1.28-.595-1.988-.572-3.085 0zm-10.446 2.194c.48.366.846.457 1.349.366.617-.115.731-.069.845.411.092.32.115.892.069 1.257-.069.595-.16.686-.732.617-.457-.045-.914.115-1.394.526-.891.754-2.377.869-2.903.229-.183-.229-.32-.937-.32-1.692 0-1.097.092-1.394.572-1.76.731-.617 1.714-.594 2.514.046zm-23.086.457c.618.823.663 2.446.092 3.086-.48.526-1.874.686-2.514.274-.686-.434-.915-1.486-.595-2.606.435-1.462.503-1.508 1.6-1.44.709.046 1.075.229 1.417.686zM74.35 67.89c-.527.64-.618.937-.527 1.69.092.64-.023 1.258-.32 1.944-.571 1.234-.594 1.92-.091 2.674.571.846 1.623 1.12 3.703.914l1.805-.183.069-1.531c.069-1.623-.183-2.194-.983-2.194-.434 0-.457-.115-.32-1.189.183-1.303-.228-2.468-.937-2.743-.937-.365-1.76-.137-2.4.617zm1.576 4.982c0 .137-.183.252-.366.252-.205 0-.365-.115-.365-.252 0-.114.16-.228.365-.228.183 0 .366.114.366.228zm-45.6-5.005c-.48.297-.89.617-.937.731-.137.389-.777.914-1.12.914-.183 0-.365-.274-.388-.64-.114-.823-1.074-1.074-1.577-.411-.366.526-.435 5.28-.069 6.217.366.983 1.212.731 1.783-.526.274-.571.64-1.028.846-1.028.205 0 .685.434 1.051.96.731 1.028 1.623 1.44 2.194.96.275-.206.549-.229 1.097-.046.618.229.8.206 1.189-.206.411-.411.48-.8.48-2.88v-2.4h.937c.526 0 1.029.115 1.12.252.069.16.16 1.257.183 2.468.023 1.212.137 2.355.229 2.515.114.16.457.297.8.297.822 0 1.097-.892 1.005-3.246-.023-1.051 0-2.034.115-2.194.091-.137.48-.32.891-.412.914-.183 1.143-.731.594-1.348-.343-.389-.731-.48-2.011-.48-.869 0-2.08.137-2.652.274-.594.137-1.531.251-2.08.229-1.211-.046-1.28.137-1.28 3.268-.022 3.132-.114 3.246-1.348 1.463-1.166-1.646-1.189-1.714-.754-2.149.525-.548 1.371-2.034 1.371-2.422 0-.206-.16-.435-.389-.526-.457-.183-.32-.206-1.28.366zm12.824-.092c-.39.206-1.03.846-1.395 1.417-.617.937-.686 1.235-.549 2.24.32 2.423 1.852 4.092 3.726 4.092.869 0 2.88-.892 3.063-1.349.16-.411.731-.16.869.412.114.365.297.48.8.411.594-.069.708-.206.868-1.166.206-1.28.731-1.714 1.874-1.623.8.069.823.115.96 1.212.16 1.326.435 1.691 1.212 1.577.388-.046.617-.297.754-.846.206-.845.663-1.074.663-.343 0 .252.228.732.503 1.075.457.594.64.64 2.331.64 1.417 0 2.034-.115 2.629-.48 1.371-.823.96-1.257-1.372-1.44-1.188-.092-1.577-.206-1.645-.503-.069-.457 1.028-.937 2.148-.937.412 0 .754-.183.914-.457.366-.686-.708-1.463-2.011-1.463-.571 0-1.097-.069-1.166-.16-.343-.343.412-.8 1.28-.8 1.303 0 2.149-.366 2.149-.937 0-.709-.412-.846-2.4-.892-1.92-.023-3.36.389-3.36.96 0 .594-.686.663-.754.069-.069-.412-.252-.526-.915-.526-.8 0-.845.046-.914.891-.114 1.143-.503 1.44-1.783 1.349-1.028-.069-1.028-.091-1.165-1.097-.07-.549-.206-1.074-.298-1.166-.32-.32-1.302.16-1.577.777l-.297.64-.64-.663c-.731-.708-2.24-1.325-3.177-1.28-.32 0-.914.183-1.326.366zm3.016 2.126c.549.388 1.075.571 1.555.526.685-.069.708-.023.8.982.068.983.023 1.052-.457.915-.595-.137-1.623.297-2.126.914-.457.526-1.783.457-2.286-.114-.343-.366-.411-.732-.32-1.669.206-2.103 1.28-2.697 2.834-1.554zm9.395.388c-.229.229-.275.16-.275-.297 0-.434.046-.503.275-.274.228.229.228.343 0 .571zm7.154-2.217c-.343.64-.137 6.172.251 6.629.8.96 1.669 0 1.669-1.829 0-1.051.32-1.234.754-.411.16.297.412.64.549.777.16.137.571.64.937 1.143.754 1.028 1.371 1.143 2.103.411.457-.48.48-.708.388-3.497-.114-2.948-.32-3.703-1.028-3.703-.617 0-1.052.755-1.052 1.783 0 .572-.068 1.097-.16 1.166-.068.091-.64-.526-1.257-1.326-.96-1.303-1.234-1.508-1.988-1.554-.709-.069-.96.023-1.166.411zm35.04 35.132c0 .64.548 1.6.891 1.6.526 0 .274-1.212-.343-1.623-.48-.32-.548-.32-.548.023zm-19.68 11.976c-.549.298-.595.48-.64 1.99-.023.913.045 3.565.183 5.873.251 4.846.251 4.846.137 8.092-.046 1.348-.137 2.514-.206 2.605-.183.16-.823.206-3.726.138l-2.445-.046-3.017-2.994c-1.669-1.646-3.36-3.155-3.749-3.36-.389-.206-.686-.48-.686-.595 0-.137-.388-.662-.845-1.165-.458-.503-.846-1.12-.846-1.372 0-.228.434-.777.96-1.234 1.006-.869 1.257-1.829.663-2.423-.617-.617-3.246-.046-3.726.823-.137.206-.709.891-1.303 1.486a19.349 19.349 0 0 0-3.474 5.074c-1.44 2.994-1.532 3.908-.549 4.526.457.274.595.251 1.097-.206.32-.297.778-1.12 1.052-1.829.8-2.125 1.417-3.2 2.057-3.497.869-.388 2.24.32 3.063 1.6.343.572 1.051 1.326 1.531 1.669.503.343 1.92 1.691 3.155 3.017 1.257 1.326 2.354 2.4 2.468 2.4.137 0 .549.251.937.548l.709.526 17.714-.046c9.714 0 18.628.069 19.771.206 1.349.137 2.492.137 3.155-.023.571-.114 5.302-.228 10.49-.251 5.212-.023 9.807-.137 10.218-.274.96-.275 1.531-1.418 1.029-2.012-.503-.617-1.28-.8-2.332-.571-.64.16-1.211.137-1.646-.046-.388-.137-2.994-.297-5.828-.366-2.857-.068-5.486-.114-5.897-.137-.389-.023-6.492.069-13.554.206-14.743.251-22.766.183-23.223-.183-.366-.32-.389-4.068-.069-8.137.297-3.451 0-9.234-.503-9.714-.502-.503-1.462-.64-2.125-.297zm-16.412 37.486c-.32.252-.571.297-.891.137-.594-.32-3.429-.297-3.749.023-.16.16-.754.297-1.325.32l-1.029.023-.16 1.646c-.183 1.942-.503 2.422-1.143 1.668-.251-.32-.434-.983-.457-1.806-.068-1.645-.457-2.08-1.508-1.69-.617.228-.846.205-1.257-.07-.275-.205-1.03-.365-1.715-.365-1.051 0-1.325.114-1.988.754-.686.686-.755.891-.755 2.171 0 1.19.092 1.51.663 2.149.549.617.915.777 1.852.869.983.091 1.348 0 2.08-.503l.891-.595.96.709c1.189.846 1.349.846 2.994.114 1.143-.503 1.372-.525 1.783-.228.64.434 1.097.228 1.509-.686.274-.617.571-.823 1.623-1.097 1.44-.412 1.714-.252 1.714.937 0 .937.434 1.166 2.08 1.166 1.234 0 1.6-.092 2.217-.617l.731-.618.732.732c.937.937 2.08 1.166 3.108.64a2.344 2.344 0 0 1 1.509-.252c.617.115.937.023 1.486-.457.868-.754.982-.754 1.897 0 .548.48.891.595 1.44.48.388-.068.891-.137 1.097-.137.228 0 .594-.366.823-.846.48-1.028 1.143-1.097 1.828-.137.366.526.755.732 1.577.846.595.069 1.578.206 2.195.274 1.485.206 2.583-.365 3.223-1.668.571-1.189.571-1.395-.023-2.537-.663-1.326-1.303-1.692-2.88-1.692-1.486 0-1.715.115-2.149.937l-.32.595-.571-.709c-.526-.663-.663-.708-2.195-.708-2.171 0-2.445.25-2.445 2.08 0 1.988-.366 1.828-1.212-.526-.434-1.189-.708-1.463-1.417-1.372-.457.046-.754.343-1.211 1.212-.64 1.211-.96 1.417-.96.617 0-.274-.366-.869-.823-1.303-.709-.708-.96-.823-1.989-.823-.937 0-1.325.137-2.057.732l-.891.731-.549-.617c-.457-.526-.777-.64-2.217-.754-1.257-.092-1.783-.023-2.126.251zm24.732 2.057c.571 1.12-.777 2.514-1.737 1.806-.32-.229-.389-.526-.275-1.326.069-.571.275-1.12.435-1.211.434-.274 1.257.114 1.577.731zm-27.04-.48c0 .137-.114.229-.252.229-.137 0-.182-.092-.114-.229.092-.137.206-.251.252-.251.068 0 .114.114.114.251zm4.8 0c0 .137-.114.229-.252.229-.137 0-.182-.092-.114-.229.092-.137.206-.251.252-.251.068 0 .114.114.114.251zm6.446.503c.297.526.297.754.045 1.371-.343.87-.777 1.075-1.577.755-.526-.183-.594-.366-.594-1.372 0-1.394.114-1.531 1.074-1.44.48.046.823.275 1.052.686zm9.165-.503c0 .137-.137.229-.274.229s-.183-.092-.092-.229c.069-.137.183-.251.252-.251.046 0 .114.114.114.251zm-29.005.389c.114.068.205.365.205.663 0 .411-.274.662-1.165 1.074-.64.274-1.326.503-1.532.503-.48 0-.96-1.303-.754-2.08.137-.595.183-.595 1.6-.435.8.092 1.554.206 1.646.275zm31.885.8c0 1.028-.228 1.211-.731.617-.366-.457-.115-1.577.365-1.577.252 0 .366.274.366.96zm-17.92 1.188c.069.115.069.252 0 .343-.183.183-.8-.091-.8-.343 0-.274.64-.274.8 0zm58.583 35.749c-.869.525-1.555 1.508-1.555 2.217 0 .891 1.486 2.057 2.88 2.263.755.091 1.28.297 1.372.525.32.846-1.509 1.075-2.606.298-.846-.618-1.508-.526-1.6.205-.16 1.143 1.417 2.194 3.337 2.194 1.12 0 1.326-.068 2.195-.96.845-.822.937-1.05.8-1.714-.206-1.074-1.486-2.354-2.355-2.354-1.371 0-2.217-.983-1.12-1.326.297-.091.709.023 1.097.297.343.229.778.526.96.663.275.183.48.069.892-.411.571-.732 1.257-.846 1.966-.32.365.274.48.754.594 2.628.206 2.858.754 3.68 1.806 2.629.342-.343.388-.731.274-2.171-.183-2.24.091-3.018 1.12-3.383 1.326-.48 1.348-.457 1.326 1.805 0 1.166.114 2.4.251 2.72.594 1.303 3.063 2.126 4.594 1.509 1.006-.411 1.509-1.029 1.76-2.194.092-.412.275-.777.389-.777.251 0 .297.228.228 1.485-.068 1.486.96 2.057 3.223 1.783 1.074-.137 1.463-.343 2.446-1.234 1.166-1.052 1.166-1.074 1.257-2.812.069-1.691.069-1.76-.731-2.605-1.166-1.212-1.623-1.417-3.498-1.417-1.714 0-2.445.388-2.445 1.257 0 .205-.16.503-.366.663-.274.251-.366.16-.548-.48-.23-.915-.87-1.44-1.28-1.029-.39.389-.686 1.943-.686 3.611-.023 1.555-.366 2.218-1.189 2.218-.983 0-1.257-.526-1.44-2.835-.114-1.394-.32-2.354-.525-2.56-.435-.434-5.509-.891-6.766-.617-.48.114-1.052.389-1.28.617-.343.343-.434.343-.777.046-.503-.434-1.852-.891-2.652-.869-.343 0-.96.183-1.348.435zm23.177 2.125c.411.549.48.869.365 1.715-.182 1.463-.502 1.76-1.668 1.668l-.983-.068-.069-1.44c-.114-2.149.023-2.537 1.006-2.537.617 0 .96.182 1.349.662zm2.743-2.08c-.252.412.114 1.486.845 2.4.709.915 1.44 2.766 1.44 3.68 0 .778.549 1.212 1.143.892.457-.252.777-1.189.777-2.332 0-.32.206-.891.435-1.234 1.965-2.88 2.125-3.474.982-3.611-.457-.046-.777.16-1.371.914-.434.526-.891.96-1.029.96-.137 0-.64-.434-1.142-.96-.892-.937-1.76-1.234-2.08-.709zm111.679-24.799c-.183.228-.64 1.234-1.006 2.217-.366 1.005-.8 2.08-.983 2.4l-.32.617-.137-.617c-.068-.32-.183-1.417-.274-2.446-.092-1.189-.274-1.943-.503-2.126-.526-.434-1.12 0-1.303.915-.228 1.074-.434 1.28-1.257 1.257-1.006 0-1.234-.16-1.691-1.257-.412-1.006-.96-1.326-1.463-.915-.343.297-.503 4-.229 5.829.252 1.646 2.012 1.303 2.012-.389 0-.96.365-1.348 1.348-1.348.892 0 1.257.388 1.463 1.554.183 1.166.617 1.509 1.394 1.097.457-.251.663-.251.892-.046.434.435.617.366 1.645-.685 1.235-1.212 1.966-1.257 2.629-.137.571.982.983 1.165 2.034.982.457-.091.846-.045.937.115.389.617 4.458.091 4.458-.595 0-.434-.755-.822-1.6-.845-1.258 0-1.395-.252-1.532-2.88-.091-1.326-.251-2.515-.366-2.629-.137-.137-.502-.251-.822-.297l-.595-.069-.068 2.469c-.069 1.966-.137 2.446-.435 2.446-.182 0-.342-.183-.342-.412 0-.228-.32-.914-.709-1.508-.411-.572-.731-1.189-.731-1.349 0-.48-1.212-1.76-1.669-1.76-.229 0-.571.183-.777.412zm10.788-.115c-.48.389-.708 3.863-.388 5.509.32 1.486.663 1.737 2.423 1.668 1.851-.045 2.354-.205 2.354-.754 0-.457-1.074-.96-2.034-.96-.915 0-1.097-.457-1.097-2.788 0-1.692-.092-2.309-.366-2.606-.457-.434-.412-.434-.892-.069zm-8.686 12.503c-.274.709-.48.846-1.462 1.029-1.554.274-2.103 1.051-2.217 3.04-.092 1.188-.023 1.6.343 1.988.754.869 1.44 1.097 2.422.846a92.37 92.37 0 0 0 1.555-.366c.365-.068.8-.411.983-.777l.32-.64.16.64c.114.457.32.64.731.64.48 0 .594-.16.731-.983.138-.823.206-.937.503-.686.206.16.366.595.366.96 0 .755.64 1.12 1.12.64.183-.182.411-1.005.503-1.851.183-1.691.663-2.263 1.371-1.669.32.252.366.572.252 1.486-.252 1.874.617 2.789 1.44 1.509.32-.48.48-.549.731-.343.183.16.343.434.343.617 0 .503.846.366 1.234-.206l.343-.525.526.525c.297.297.64.526.754.526.32 0 .64-.686.823-1.806.366-2.217.411-2.285 1.006-2.285.617 0 .754.457.891 2.651.046.937.137 1.097.617 1.166.297.045.732-.092.96-.297.343-.32.457-.298.937.091l.549.457-.503.457c-.457.435-.48.549-.183 1.166.274.594.48.686 1.509.754.754.046 1.508-.068 2.08-.343 1.097-.48 1.257-1.051 1.257-4.342 0-1.806-.069-2.286-.434-2.698-.663-.708-2.583-.662-3.84.092l-.938.594-.982-.571c-.572-.32-1.6-.617-2.423-.709-1.28-.137-1.532-.091-1.92.343-.389.434-.48.457-.983.114-.777-.503-.891-.457-1.394.412-.457.754-.457.754-.846.274-.709-.869-1.371-1.074-2.949-.891-.822.091-1.645.251-1.805.388-.183.16-.526.16-.96 0-.435-.16-.846-.16-1.097-.023-.549.32-.869.069-.869-.663 0-.8-.411-1.53-.846-1.53-.205 0-.503.365-.708.8zm-.136 3.017c.16.32.16.686-.023 1.143-.32.846-.663 1.074-1.235.777-.434-.228-.571-1.234-.274-1.988.206-.549 1.234-.48 1.532.068zm21.074-.16c.16.16.297.64.297 1.074 0 .686-.092.778-.594.778-.823 0-1.258-.8-.846-1.578.343-.64.708-.731 1.143-.274zm-.617 4.069c-.229.228-.366.228-.595 0-.205-.229-.16-.297.297-.297.458 0 .503.068.298.297z"/>
	<path d="M265.41 179.409c-.228.365.572.868.87.571.136-.137.182-.366.09-.526-.205-.297-.776-.342-.96-.045zm47.955.114c-.16.434-.069 1.006.388 2.789.297 1.211.206 2.742-.251 4.228-.343 1.097-.183 1.852.32 1.646.183-.069.64-.8 1.006-1.623 1.188-2.629.845-5.486-.8-6.971-.458-.412-.526-.412-.663-.069zm-73.485.594c-.183.526-.503.755-1.555 1.075-.731.228-1.463.571-1.623.777-.388.48-.64.457-1.463-.252-1.12-.937-3.04-.663-4.137.572l-.457.525-.64-.754c-.48-.594-.868-.777-1.76-.868-1.051-.115-1.234-.069-1.943.617-.754.731-.777.754-1.165.274-.915-1.051-1.623-.32-1.623 1.646 0 .708-.137 1.28-.32 1.44-.503.411-.869-.183-1.052-1.646-.182-1.531-.8-2.4-1.44-2.011-.342.205-.434.64-.502 2.217-.046 1.714 0 2.08.457 2.72l.525.731 1.806-.16c1.189-.114 1.897-.297 2.08-.526.229-.32.412-.274 1.394.275 1.303.731 2.446.685 3.178-.137.548-.595 1.325-.595 1.85 0 .8.937 3.315.525 3.818-.595.366-.8.686-.754 1.463.229.914 1.143 1.988 1.326 3.36.571.983-.548 1.028-.617 1.188-1.988.183-1.6 0-4.343-.32-4.983-.32-.617-.845-.503-1.12.251zm-.275 3.475c.389.731.137 1.44-.594 1.577-.983.183-1.44-1.097-.686-1.943.48-.549.8-.457 1.28.366zm-13.577.845c0 .435-.457.366-.548-.091-.069-.252.022-.366.228-.297.183.068.32.251.32.388zm47.452-4.571c.045.228.228.411.434.411.205 0 .388-.183.434-.411.046-.297-.069-.434-.434-.434-.366 0-.48.137-.435.434zm-55.315.48c-.754.846-1.143 2.24-1.188 4.206-.046 1.805 0 2.057.64 2.994.845 1.211 1.737 1.44 1.463.366-.503-2.08-.503-3.52 0-6.972.182-1.143-.206-1.371-.915-.594zm34.515.777c-.595.114-1.143.434-1.486.869-.686.845-.686.914-.069 1.805.503.663.503.686.023.686-.526 0-.754-.434-.754-1.531 0-.96-.595-1.555-1.76-1.738-1.943-.32-3.383.572-2.743 1.692.183.32.137.617-.137 1.12-.96 1.623.023 3.314 1.76 2.971a9.233 9.233 0 0 1 1.508-.137c.366.023.892-.091 1.166-.228.366-.206.891-.206 2.011 0 1.258.251 1.6.228 2.218-.069 1.097-.571 1.348-1.737.64-2.766-.298-.411-.32-.617-.138-.823.412-.411.32-1.074-.205-1.622-.503-.503-.572-.503-2.035-.229zm.845 3.954c0 .206-.206.366-.457.366s-.594-.16-.754-.366c-.252-.297-.183-.365.457-.365.503 0 .754.137.754.365zm37.235-4.023c-.687.275-1.007 1.44-.847 3.178.229 2.56 1.189 2.925 1.738.662.502-2.057.525-2.102.96-2.102.365 0 .457.251.548 1.485.137 1.897.823 2.606 2.56 2.606.96 0 1.257-.114 1.829-.731.388-.389.777-.709.868-.709.069 0 .549.32 1.052.709 1.097.891 2.285.96 3.474.228.731-.457.914-.48 1.737-.206 1.143.389 1.394.183 1.554-1.234.183-1.76.32-2.148.686-2.148.48 0 .846 1.005.8 2.148-.046 1.097.137 1.463.754 1.463s.915-.64.915-1.989c0-1.302.16-1.622.777-1.622.388 0 .48.182.48.937 0 1.92.8 2.971 1.623 2.148.411-.411.365-2.445-.069-3.474-.594-1.394-.891-1.509-4.069-1.509-2.628 0-2.902.023-3.428.503l-.549.526-.937-.526c-1.211-.663-2.194-.663-3.543.069l-1.074.571-1.097-.571c-1.189-.64-2.446-.754-3.177-.297-.366.228-.64.228-1.28 0-.823-.297-1.737-.343-2.286-.115zm5.713 1.989c.595.594.618 1.371.092 1.966-.503.548-.777.548-1.326.045-.548-.502-.571-1.462-.046-2.057.503-.548.686-.548 1.28.046zm5.738.114c.16.183.25.64.228 1.006-.069.571-.206.686-.846.754-.64.069-.777-.023-1.005-.663-.137-.411-.183-.914-.115-1.097.16-.457 1.372-.457 1.737 0zm-30.217-94.742c-1.852.137-2.515.777-1.326 1.303.548.251.594.411.663 2.331.068 1.966.091 2.08.64 2.149.845.137 1.074-.274 1.12-2.103.091-2.354.388-2.606.731-.617.412 2.171 1.349 3.246 2.88 3.246 1.052 0 2.08-.343 2.766-.892.32-.274.434-.251.685.046.16.206.55.366.87.366.433 0 .593-.183.753-.778.16-.594.343-.8.846-.868.503-.046.754.114 1.28.914 1.143 1.737 2.149 1.074 1.166-.754-.48-.937-.526-1.166-.297-2.034.228-.823.205-1.098-.115-1.578-.32-.502-.64-.617-1.76-.708-2.125-.183-2.468-.046-2.765 1.097l-.275.983-.32-.64c-.183-.343-.731-.869-1.188-1.166-.709-.434-1.052-.503-1.874-.343-1.28.229-2.08.252-2.675.092-.274-.069-1.074-.092-1.805-.046zm5.69 2.057c.732.8.847 1.372.435 2.012-.411.617-1.714.777-2.24.274-.457-.457-.343-1.806.206-2.354.617-.618.983-.618 1.6.068zm5.464-.068c0 .434-.777.617-1.12.274-.137-.114-.183-.366-.069-.503.229-.389 1.189-.206 1.189.229zm-15.84-1.692c-.069.137-.457.252-.823.252-.709 0-1.509.754-1.829 1.691-.228.754-.662.526-1.302-.663l-.595-1.143-1.325-.023c-1.898-.045-2.126.046-2.4 1.098a15.623 15.623 0 0 1-.732 2.011c-.48 1.074-.526 1.097-1.508 1.097-.572 0-1.143-.114-1.303-.274-.183-.16-.297-.983-.297-1.92 0-1.303-.092-1.692-.389-1.806-.914-.343-1.166.229-1.166 2.514 0 2.972.229 3.223 2.835 3.132 1.622-.046 2.011-.137 2.514-.594 1.006-.938 1.486-.96 2.217-.069.549.686.686.731 1.143.48.297-.16.868-.206 1.348-.114.503.091.869.045.983-.137.092-.16.435-.206.869-.115.526.115.846.023 1.417-.457.411-.343.846-.64.96-.64.137 0 .571.343.983.732.891.845 1.188.891 1.76.251.297-.343.366-.571.183-.777-.137-.183-.595-1.12-1.006-2.103-.411-.983-.937-1.989-1.143-2.217-.411-.48-1.166-.572-1.394-.206zm18.4.732c-.206.617-.183.754.205.96.618.342 1.143 1.371 1.349 2.674.091.571.274 1.12.411 1.211.412.275 1.12-.525 1.12-1.257 0-.366.343-1.371.732-2.24.411-.868.686-1.691.594-1.828-.274-.435-.823-.252-1.486.48l-.64.731-.754-.731c-.937-.915-1.211-.915-1.531 0zm106.011 48.708c-.526.411-.572.617-.572 2.857 0 1.303-.068 2.469-.183 2.583-.091.091-.594-.754-1.12-1.874-1.234-2.629-1.783-3.315-2.651-3.315-.594 0-.754.16-1.28 1.257-.32.686-.709 1.692-.892 2.218-.16.525-.457 1.28-.64 1.668-.457.892-.777.457-.8-1.074 0-1.097-.548-3.749-.822-4.023-.092-.091-.343-.023-.549.114-.343.206-.411.663-.411 2.88 0 1.417-.092 2.743-.206 2.903-.252.389.228 1.006.754 1.006.206 0 .572-.16.8-.389.412-.365.48-.365.892 0 .64.595 1.371.48 1.942-.297.755-1.074 1.783-1.097 2.812-.091.64.64.914.777 1.348.64.298-.115 1.006-.206 1.6-.206.983 0 1.098-.069 1.303-.731.435-1.486.777-1.76 1.943-1.463.389.114.663.457.914 1.165.435 1.303 1.166 1.509 1.715.458.297-.572.32-.869.114-1.463-.16-.435-.206-1.257-.114-1.966.16-1.189.137-1.234-.892-2.263-1.051-1.051-1.074-1.074-2.743-1.074-1.302 0-1.828.114-2.262.48zm3.497 1.348c.594.252.457 1.029-.229 1.212-1.394.343-2.491-.617-1.257-1.097.663-.275.983-.297 1.486-.115zm3.542-.982c-.388.502-.434.868-.342 3.062.068 1.349.228 2.72.388 3.04.366.778 1.394 1.029 3.132.755 1.142-.206 1.6-.412 2.262-1.075.732-.731.846-1.028.938-2.24.091-1.211.022-1.554-.503-2.4-.96-1.508-1.44-1.737-3.566-1.737-1.669 0-1.874.046-2.309.595zm3.726 1.211c.32.229.617.823.8 1.669.274 1.188.252 1.371-.137 1.805-.229.252-.8.549-1.28.64-1.234.229-1.714-.457-1.714-2.423 0-.822.137-1.6.297-1.76.388-.411 1.417-.365 2.034.069zm-40.891-1.257a2.761 2.761 0 0 0-.731.617c-.549.663-.32 6.103.274 6.697.068.069.983.183 2.034.252l1.874.114.983-.892c.96-.868 1.486-.96 1.486-.251 0 .183.229.457.48.594.434.229.617.16 1.189-.457.365-.411.754-.754.845-.754.092 0 .275.343.412.731l.251.709h1.966c1.645 0 2.057-.069 2.4-.434.388-.435.388-.48-.137-.846-.298-.206-.938-.389-1.418-.389-1.12 0-1.417-.343-1.462-1.668 0-.595-.138-1.692-.298-2.4-.48-2.355-1.577-1.692-1.577.96 0 .64-.114 1.211-.228 1.303-.229.137-.343-.275-.64-2.195-.183-1.257-.686-1.76-1.212-1.234-.48.48-.8 1.966-.64 2.971.092.526.023.823-.137.823-.388 0-.754-.845-.754-1.783 0-.594-.206-1.074-.663-1.577-.548-.617-.914-.754-2.263-.914-.937-.114-1.783-.114-2.034.023zm2.971 1.988c.183.526-.388.869-1.12.686-.8-.183-.845-.274-.502-.686.411-.502 1.417-.48 1.622 0zm-.228 2.903c.663.16.708.686.068 1.029-.594.32-.8.32-1.325-.092-.389-.274-.412-.388-.137-.708.342-.412.571-.457 1.394-.229zm11.84-4.663c-.16.183-.252 1.212-.252 2.606 0 1.303-.114 2.629-.251 2.949-.183.525-.114.685.411 1.097 1.143.891 4.869.571 4.869-.434 0-.389-.823-.755-1.783-.755-1.074 0-1.303-.434-1.577-2.834-.092-1.006-.252-2.034-.343-2.24-.229-.526-.731-.709-1.074-.389zm7.291 10.766c-.251.137-.823.663-1.257 1.143-.571.663-.846.823-1.097.64-.183-.137-.8-.594-1.372-1.029-.845-.64-1.234-.777-2.24-.777-1.508.023-3.177.732-3.542 1.532-.435.937-.846.937-1.349-.046-.251-.48-.731-1.029-1.029-1.189-.754-.411-3.702-.182-4.48.32-.525.343-.548.48-.548 3.452 0 2.765.046 3.131.434 3.337.64.366 1.029-.023 1.189-1.143.251-2.034 2.331-1.92 2.948.16.48 1.577 1.006 1.623 1.966.229.274-.389.389-.366 1.577.434 1.372.937 2.012 1.051 3.566.617.708-.183 1.234-.571 1.76-1.234.411-.526.868-.96 1.006-.96.137 0 .685.434 1.211.96 1.92 1.92 4.617 1.92 5.851-.023.709-1.12 1.12-1.166 1.418-.137.297 1.005.982 1.143 1.37.251.16-.366.32-.731.344-.777.046-.046.297.183.571.549 1.052 1.325 2.286 1.302 2.857-.069.389-.914.686-.96.777-.114.115.914.778 1.28 1.326.731.366-.366.412-.8.366-3.085-.092-3.063-.252-3.566-1.28-3.566-.549 0-.777.16-.983.663-.937 2.263-1.303 2.948-1.554 2.948-.137 0-.503-.594-.8-1.303-.526-1.302-1.44-2.537-1.897-2.537-.115 0-.549.32-.937.709-.412.411-.778.731-.869.731-.069 0-.594-.32-1.143-.708-1.166-.823-3.314-1.189-4.16-.709zm-4.891 1.874c.48.389.571.686.571 1.783-.023 1.532-.457 2.194-1.6 2.446-.96.206-1.783-.389-2.103-1.509-.411-1.508-.32-1.92.64-2.56 1.075-.731 1.737-.777 2.492-.16zm7.52-.297c.571.206 1.097 1.372 1.097 2.423 0 .709-.16 1.074-.709 1.6-.594.571-.823.663-1.554.526-1.829-.343-2.469-2.652-1.12-4 .686-.686 1.463-.869 2.286-.549zm-15.314.435c.25.617-.39 1.12-1.326 1.028-.914-.068-1.326-.777-.709-1.166.549-.342 1.897-.251 2.034.138zm2.422 3.657c-.068.228-.114.114-.114-.298-.023-.388.046-.57.091-.41.07.16.07.48.023.708zM290.6 124.78c-.23.138-.732.183-1.098.092-1.074-.206-1.417.343-1.417 2.149 0 1.21-.092 1.577-.434 1.76-.869.457-1.258-.092-1.258-1.783 0-1.052-.114-1.623-.365-1.897-.48-.458-.48-.458-.937 0-.48.48-.503 2.925-.046 4.022.366.869 1.303 1.6 2.08 1.6.297 0 .937-.228 1.463-.525.777-.435 1.028-.48 1.417-.252.731.48 1.166.343 1.646-.457.274-.411.914-.937 1.485-1.211 1.212-.526 1.417-.777 1.417-1.783 0-1.052-.8-1.692-2.308-1.829-.686-.068-1.417 0-1.646.115zM27.195 138.998c-.183.228-.526.297-.937.205-.549-.091-.777.023-1.211.549-.458.594-.526.868-.39 1.92.092.891.047 1.303-.205 1.508-.548.458-1.005-.274-1.188-1.92-.206-2.102-.892-2.742-1.692-1.6-.434.618-.525 3.543-.137 4.275.366.685 1.509 1.188 2.72 1.188.869 0 1.189-.114 1.554-.594.572-.731.686-.754 1.212-.114.526.64 1.143.411 1.577-.595.206-.525.594-.868 1.12-1.074 2.034-.754 2.56-1.531 1.874-2.811-.571-1.075-3.634-1.737-4.297-.937zm2.286 1.348c.228.343-.412.754-.686.457-.229-.228-.023-.731.32-.731.114 0 .297.137.366.274zm1.394 47.657c-.686.137-.869.617-.937 2.354a66.76 66.76 0 0 1-.114 2.537c-.092 1.189.365 2.629.822 2.629.572-.023.938-.457 1.075-1.349.137-.8.251-.937.845-1.005 1.303-.16 1.738.114 1.966 1.188.274 1.257.937 1.737 1.463 1.052.251-.343.32-.892.251-1.92-.091-1.349.343-2.766.846-2.766.092 0 .32.526.503 1.166.457 1.531 1.189 2.925 1.829 3.497.457.434.571.434 1.28.114.571-.274.937-.32 1.44-.114.594.206.754.16 1.394-.526 1.097-1.166 2.537-1.006 3.2.343.32.709.48.823.914.686a35.79 35.79 0 0 1 1.509-.297c1.12-.16 1.303-.366 1.303-1.532.022-1.508.525-1.577 1.53-.206 1.075 1.44 1.875 2.012 2.538 1.783.617-.183.709-.571.937-3.588l.16-2.4.732.068c1.211.137 1.371.503 1.417 3.017.023 2.469.274 3.109 1.051 2.652.777-.503 1.12-1.577 1.052-3.406-.023-1.6 0-1.76.548-2.103.892-.594 1.394-.365 1.623.732.229 1.143.914 1.645 2.789 2.057 1.577.32 1.965.777 1.142 1.303-.708.457-1.302.32-2.308-.526-.777-.663-1.372-.663-1.76-.023-.366.549.434 1.6 1.646 2.194 1.165.549 2.994.435 3.748-.228 1.852-1.646.937-4.069-1.691-4.457-1.052-.183-1.463-.48-1.463-1.143 0-.48 1.623-.16 2.263.457.434.389.594.434.937.183.64-.48.206-1.646-.823-2.172-.96-.525-2.994-.411-3.954.229-.549.366-.617.366-.915-.023-.434-.617-4.274-.8-5.554-.274-.571.251-1.211.343-1.623.228-.891-.182-1.12.16-1.12 1.646 0 .617-.114 1.189-.251 1.257-.114.069-.732-.571-1.372-1.417-1.188-1.623-1.645-1.943-2.33-1.668-.64.251-.847 1.12-.847 3.337 0 1.12-.091 2.034-.182 2.034-.115 0-.503-.777-.892-1.737-1.417-3.452-1.943-3.954-3.36-3.086-.8.503-.8.503-.937.023-.137-.594-.914-.617-1.44-.046-.229.252-.571.937-.777 1.555-.617 1.805-.937 1.851-1.692.251-.342-.777-.8-1.6-1.005-1.829-.457-.502-1.143-.525-1.44-.045-.183.343-.412.297-2.035-.229-1.691-.571-2.697-.686-3.93-.457zm3.269 2.354c.228.275.182.389-.229.595-.754.411-1.554.228-1.646-.412-.068-.457.046-.548.755-.548.457 0 .96.16 1.12.365zm-16.366-1.965c-.891.365-1.371 1.417-1.12 2.537.251 1.074.754 1.508 2.446 2.057 1.417.434 1.805.868 1.211 1.371-.297.252-.594.183-1.646-.365-1.44-.755-2.125-.755-2.24.022-.091.778.389 1.509 1.303 1.898 1.44.594 4.915-.229 4.915-1.166 0-.16.274.068.64.503.662.777.685.777 2.88.8 2.217.023 2.948-.206 2.948-.892 0-.731-.754-1.12-1.897-.96-1.257.183-2.126-.251-1.874-.914.114-.297.457-.411 1.303-.411 1.874 0 2.994-1.143 1.622-1.669-.342-.137-1.097-.251-1.668-.251-1.989 0-1.623-.8.457-1.029 1.6-.16 2.331-.64 1.897-1.303-.457-.754-4.731-.548-5.531.252-.183.182-.32.914-.32 1.737-.023.8-.069 1.623-.137 1.851-.115.389-.16.389-.549-.091-.229-.275-1.051-.755-1.829-1.052-1.417-.503-1.874-1.097-1.005-1.28.251-.045.685.092 1.005.297.32.229.8.389 1.075.389.708 0 .663-1.189-.092-2.011-.503-.526-.777-.618-1.874-.595-.686 0-1.554.137-1.92.275zm22.012 10.445c-.48.32-1.075 1.349-1.075 1.829.023.571-1.463 3.703-1.737 3.725-.114 0-.183-.662-.183-1.485.046-2.126-.114-3.52-.411-3.817-.48-.48-1.12-.115-1.326.754-.252.983-.96 1.668-1.76 1.668-.663 0-.846-.25-1.189-1.554-.183-.663-.388-.983-.731-1.005-1.006-.138-1.189.25-1.257 2.97-.092 3.247.045 4.092.731 4.298.663.206 1.052-.32 1.257-1.691.16-1.166.503-1.418 1.692-1.189.731.137.777.206.891 1.349.137 1.485.434 1.828 1.349 1.485.503-.205.777-.183 1.097.046.571.411 1.348.046 1.874-.869.594-1.051 1.669-.982 2.743.16.594.618 1.074.892 1.829.983 1.782.252 4.914.183 5.28-.114.25-.229.434-.206.8.069.48.365 2.217.434 3.817.16.8-.138.96-.275 1.028-.823.069-.572-.046-.663-.868-.892-.526-.137-1.12-.183-1.326-.114-.572.229-.777-.526-.869-3.017-.023-1.257-.114-2.354-.16-2.469-.16-.251-1.234-.228-1.394.046-.068.114-.137 1.006-.16 1.966 0 .983-.137 2.24-.297 2.811l-.274 1.029-1.44-.16c-.8-.092-1.532-.275-1.646-.435-.091-.137-.114-.891-.046-1.645.252-2.377-.548-4.114-1.623-3.52-.342.206-.411.617-.411 2.514 0 1.874-.069 2.263-.366 2.263-.205 0-.434-.183-.503-.412-.068-.228-.388-1.028-.685-1.76-.32-.708-.64-1.622-.732-2.01-.228-1.052-1.211-1.647-1.92-1.144zm110.421 33.554c-.525.526-.342 1.989.503 4.046.709 1.714 1.783 2.903 2.766 3.109.389.068 1.029.342 1.394.617.366.274.777.48.915.48.137 0 1.142.434 2.24.96 1.097.525 2.24.96 2.582.96.846 0 2.172-.96 2.172-1.6.023-.549-1.463-2.012-2.034-2.012-.663 0-3.52-1.508-3.909-2.08-.869-1.257-2.08-2.514-2.789-2.88-.411-.205-1.051-.663-1.462-1.028-.96-.915-1.852-1.12-2.378-.572zm119.634 4.755-.571.594.662 1.508c1.258 2.903 2.72 4.755 3.795 4.755.48 0 1.28.525 2.651 1.76 1.143 1.028 1.943 1.371 3.611 1.508 1.19.114 1.555.069 1.806-.228.663-.8.16-1.235-4.48-3.932-.183-.114-.434-.685-.548-1.28-.252-1.165-1.44-2.651-2.743-3.405a18.478 18.478 0 0 1-1.669-1.143c-1.188-.869-1.805-.892-2.514-.137zm35.52 8.799c-.777.32-1.875 1.35-2.309 2.195-.457.868-.754.845-1.005-.092-.343-1.303-1.075-1.645-3.658-1.668a160.77 160.77 0 0 0-2.765-.023c-.252.023-1.555-.023-2.88-.092-1.875-.114-2.469-.068-2.675.183-.297.389-.8 5.372-.64 6.263.275 1.417 1.418.96 1.875-.731.205-.663.434-.937.914-1.075.366-.091.937-.274 1.303-.365 1.097-.297.891-1.075-.343-1.372-1.189-.297-1.714-.731-1.371-1.097.365-.366 3.68-.937 3.84-.663.091.115.091.937 0 1.829-.16 1.668.251 4.137.708 4.274.48.16.869-.343 1.006-1.303.137-1.074.503-1.303 1.76-1.028.64.114.823.343 1.166 1.234.32.846.525 1.074 1.028 1.143.572.068.686-.046.914-.914.229-.823.32-.938.595-.709.205.137.411.457.48.663.068.228.502.663.96.983.731.48 1.051.548 2.4.457 1.531-.092 1.6-.137 2.651-1.28 1.029-1.143 1.074-1.166 1.44-.732.183.252.366.663.366.915 0 .228.16.503.388.594.549.206 1.28-.754 1.28-1.737 0-.457.092-.869.229-.937.206-.137 1.394 1.211 1.897 2.194.389.754 1.371.96 1.966.411.411-.365.48-.708.457-2.605-.046-2.652.251-3.589 1.028-3.383.298.091.709.206.938.274.64.183.868 1.074.662 2.857-.182 1.715-.068 2.172.64 2.766.64.549 1.075-.297 1.075-2.194 0-2.606.16-3.063 1.211-3.497 1.052-.412 1.28-1.166.389-1.349-1.372-.274-5.006-.206-5.372.114-.228.16-.731.32-1.143.32-.685 0-.754.069-.868 1.029-.252 1.783-.572 1.806-2.103.091-1.097-1.211-1.509-1.508-1.966-1.44-.411.046-.617.275-.777.846-.114.434-.297.777-.411.777-.137 0-.64-.366-1.143-.846-1.486-1.417-2.789-1.805-4.137-1.28zm2.468 2.15c.549.433.64.685.64 1.828 0 1.142-.091 1.417-.708 2.011-1.075 1.074-2.309.846-2.972-.571-.343-.732-.365-1.029-.137-1.966.434-1.737 1.874-2.332 3.177-1.303zm-7.84.113c.206.526-.365 1.075-1.142 1.075-.709 0-1.212-.572-1.006-1.143.16-.435 1.966-.389 2.148.068zm-207.587-1.805c-1.44.274-1.463.32-1.234 4 .228 3.245.228 3.314.8 3.405.663.092.983-.297.983-1.188 0-.8.685-1.417 1.6-1.417.411 0 1.143-.275 1.645-.618 1.28-.868 1.555-.662 1.555 1.212 0 1.28.091 1.623.525 2.034.48.457.732.48 3.177.343 2.652-.137 2.652-.137 3.338-.96.937-1.097 1.828-1.097 3.062.023.869.777 1.006.823 2.08.708 1.669-.205 1.692-.228 2.012-1.348.16-.572.411-1.097.526-1.189.137-.091.731.389 1.348 1.052.8.868 1.28 1.211 1.76 1.211 1.303 0 1.394-.297 1.212-3.748-.07-1.738-.252-3.292-.366-3.429-.549-.709-1.623.503-1.623 1.829 0 .228-.16.548-.343.708-.274.206-.48.069-1.074-.754-1.052-1.486-1.486-1.874-2.08-1.874-.732 0-1.189.64-1.212 1.645-.068 2.766-.137 3.383-.342 3.383-.138 0-.32-.183-.389-.411a47.73 47.73 0 0 0-.686-1.623 31.946 31.946 0 0 1-.845-1.943c-.183-.526-.48-.8-.915-.891-1.165-.206-1.394.068-3.017 3.725-.206.48-.388.983-.388 1.12 0 .16-.206.48-.458.732-.365.365-.685.434-1.508.343-1.554-.183-1.874-.709-1.874-2.995 0-2.765-.595-3.497-1.852-2.331-.48.48-.594.48-.96.16-1.211-1.006-2.537-1.303-4.457-.914zm2.629 2.034c.205.548-.389 1.12-1.097 1.028-.686-.068-.983-.845-.458-1.165.503-.343 1.395-.252 1.555.137zm-28.137-1.714c-1.257.48-1.783.96-2.149 1.965-.846 2.4-.137 4.846 1.646 5.646 1.554.709 2.468.594 4.114-.503.8-.526 1.532-.937 1.669-.937.114 0 .685.366 1.257.846 1.028.845 1.44.96 3.428.868.663-.045 1.052-.297 2.057-1.394 1.235-1.326 1.715-1.417 1.418-.274-.183.754.411 1.257 1.211 1.051.389-.114.64-.366.731-.823.32-1.44.549-1.737 1.395-1.737 1.005 0 1.28.32 1.508 1.646.183 1.257.915 1.6 1.6.731.366-.457.412-.731.275-1.508-.115-.549-.206-1.76-.229-2.72-.046-2.537-.777-3.086-4.114-3.063-1.737.023-2.24.366-2.24 1.486 0 .434-.115.8-.275.8-.137 0-.662-.458-1.165-1.006-.892-1.029-.915-1.029-2.789-1.12-1.806-.069-1.943-.046-2.903.663-.571.411-1.12.731-1.234.731-.114 0-.617-.297-1.143-.663-1.097-.8-2.948-1.12-4.068-.685zm10.308 1.851c.526.411.64.686.64 1.669 0 1.737-.32 2.354-1.303 2.537-1.28.228-1.783-.046-2.08-1.12-.411-1.577-.228-2.4.709-3.04 1.006-.663 1.234-.663 2.034-.046zm-7.543.274c.48.457.526.663.412 1.852-.16 1.554-.732 2.171-1.943 2.171-1.12 0-1.6-.64-1.737-2.331-.137-1.303-.092-1.463.434-1.829.8-.548 2.149-.503 2.834.137zm15.223-.16c.092.252-.068.457-.48.595-1.143.457-2.217.137-1.943-.572.206-.526 2.217-.548 2.423-.023zm110.902-.96-1.325 1.097-.252-.73c-.457-1.28-1.508-.87-1.806.73-.342 1.76-.754 1.715-2.034-.274-.846-1.348-1.6-1.668-2.491-1.097-.572.366-.617.366-1.097-.091-.343-.366-.64-.458-1.029-.32-.274.091-1.234.137-2.103.114-1.257-.046-1.691.046-2.171.411-.549.457-.572.572-.526 3.612.023 2.08.137 3.268.32 3.52.229.251.869.343 2.56.343 2.126 0 2.309-.046 2.834-.618.549-.594.595-.594 1.189-.205.8.503 1.257.183 1.463-1.052.32-1.851.32-1.851 1.211-1.005.434.434.914 1.074 1.074 1.44.709 1.737 2.789 1.188 2.903-.755.023-.457.046-.48.137-.114.16.594 1.189 1.531 2.149 1.966 1.303.571 3.109 0 4.251-1.349.732-.868.8-1.326.183-1.646-.663-.365-1.44-.045-1.851.732-.297.548-.503.686-1.189.686-.754 0-.891-.115-1.348-1.029-.457-.96-.48-1.12-.16-2.217.32-1.143.365-1.189 1.234-1.28.594-.046 1.189.114 1.76.434 1.006.594 1.531.503 1.531-.297 0-.96-1.737-2.103-3.222-2.103-.64 0-1.166.274-2.195 1.097zm-8.434 1.715c.229 1.577.183 3.497-.068 3.908-.16.274-.39.274-1.258.046-.571-.137-1.417-.297-1.874-.32-.663-.069-.846-.183-.846-.549 0-.388.298-.548 1.44-.845 2.286-.572 1.898-1.76-.525-1.623-.823.068-.915 0-.915-.549 0-.548.092-.594 1.486-.708.823-.069 1.554-.206 1.669-.298.434-.434.754-.114.891.938zM7.31 247.363c-1.532.96-2.012 1.554-2.218 2.902-.251 1.623.092 2.903 1.143 4l.8.846 2.24-.114c2.354-.092 2.926-.32 3.269-1.257.16-.435.205-.412.525.228.572 1.189 1.098 1.052 1.76-.457.526-1.166.686-1.348 1.28-1.348.846 0 1.738.617 1.738 1.234 0 1.371 1.12 1.874 1.691.754.183-.366.366-.708.389-.777.045-.046.411.251.8.686 1.668 1.828 5.44 1.28 6.628-1.006.412-.8.8-.846.8-.091 0 .822.914 1.508 2.377 1.828 1.669.343 2.652.023 3.612-1.12.64-.777.731-.823.868-.411.274.868.503 1.188.983 1.257.64.091 1.097-.526 1.257-1.692.16-1.142.64-1.44.96-.617.229.595 2.012 2.355 2.4 2.355.114 0 .48-.229.823-.503l.64-.48.549.594c.685.8 2.674 1.029 4.022.48 1.006-.411 2.218-2.034 2.492-3.383.228-1.006-.274-2.56-1.029-3.268-1.234-1.12-4.525-1.509-5.463-.618-.502.48-.548.48-1.142.092-.686-.457-1.509-.297-1.646.32-.046.228 0 .891.114 1.463.114.663.092 1.165-.068 1.325-.229.229-.32.138-1.555-1.645-.548-.777-1.417-1.463-2.194-1.692-.731-.205-1.12.549-1.303 2.515l-.137 1.554-.046-1.509c-.045-1.805-.32-2.445-1.097-2.445-.754 0-.868.365-.868 2.88.022 2.445-.206 2.788-1.555 2.537-1.051-.206-1.303-.709-1.303-2.629 0-2.034-.32-2.857-1.028-2.743-.412.046-.572.275-.663.915-.16 1.097-.8 1.234-1.303.251-.503-.937-1.988-1.691-3.337-1.691-1.28 0-2.057.365-2.926 1.417l-.662.777-.663-.732c-.892-.982-1.6-1.234-3.566-1.234-2.217 0-2.491.252-2.606 2.332-.114 2.308-.205 2.422-.891 1.645-.457-.548-.526-.777-.32-1.211.343-.754-.092-1.44-1.44-2.286-1.303-.823-2.034-.891-3.132-.228zm39.176 1.691c.526.411.64.686.64 1.646 0 1.531-.708 2.491-1.782 2.377-.663-.069-.755-.16-.938-1.166-.205-1.234 0-2.903.389-3.154.48-.32 1.029-.206 1.691.297zm-36.64.389c.32.48.298.548-.342.845-.937.435-1.029 1.44-.206 1.829.8.366.777.663-.069 1.097-1.417.731-2.377-.571-2.01-2.743.136-.777.342-1.143.776-1.371.8-.412 1.44-.297 1.852.343zm15.178 0c1.188 1.508.228 4.045-1.463 3.885-1.463-.16-2.263-2.468-1.326-3.885.594-.915 2.08-.915 2.789 0zm-7.703.274c.068.526 0 .548-.96.48-.892-.069-1.052-.16-1.12-.64-.069-.503 0-.549.96-.48.868.068 1.051.183 1.12.64zm36.205-2.4c-.365.388-.411.891-.365 3.657.068 2.766.137 3.2.502 3.451.618.366 1.372-.594 1.372-1.691 0-.869.068-.937 1.463-1.166 1.211-.183 1.76-.64 1.554-1.28-.137-.411-.389-.503-1.417-.571-.914-.046-1.257-.183-1.303-.48-.091-.434 1.806-1.166 2.834-1.052.572.046.595.115.777 2.789.092 1.509.229 2.88.275 3.017.16.412 3.543.686 4.183.343 1.12-.594.297-1.691-1.303-1.691-.777 0-1.052-.64-1.052-2.355 0-1.623-.365-2.857-.937-3.131-.206-.114-1.691-.229-3.291-.252-2.583-.045-2.926 0-3.292.412zm114.857-.206c-.846.366-.983.937-.892 3.954.069 2.126.183 2.949.435 3.223.502.48 1.005.046 1.371-1.188.251-.823.389-.937 1.44-1.189 2.011-.48 2.126-1.508.229-1.806-1.189-.205-1.555-.457-1.372-.914.114-.297.48-.388 1.417-.388 1.326 0 1.875-.275 1.875-.983 0-.457-.48-.595-2.652-.8-.731-.069-1.554-.023-1.851.091zm6.423.114c-.435.16-.892.526-1.006.8-.092.298-.206 1.738-.229 3.2-.023 2.172.046 2.743.366 3.063.549.549 1.051.16 1.577-1.165.457-1.166.914-1.395 1.966-.983.411.16.663.48.754.96.206.983 1.257 1.531 1.714.891.435-.571.298-5.303-.16-5.828-.891-1.098-3.314-1.555-4.982-.938zm3.222 2.172c0 .388-.182.503-.982.548-.64.046-1.075-.045-1.28-.274-.48-.594-.046-.891 1.142-.823.938.069 1.12.16 1.12.549zm29.44-1.829c-.297.297-.503.709-.503.96 0 .869-1.325 1.6-2.285 1.235-.435-.16-.617-.48-.777-1.258-.16-.777-.32-1.05-.709-1.097a.736.736 0 0 0-.777.389c-.297.571-.434 5.486-.183 6.24.32.891 1.12.594 1.509-.549.434-1.234.982-1.805 1.76-1.805.96 0 1.302.342 1.257 1.302-.023.709.068.915.571 1.143.503.229.663.206 1.006-.137.366-.343.411-.846.366-3.314-.046-2.172-.138-2.994-.39-3.269-.296-.297-.41-.274-.845.16zm183.565 1.28c-.732.115-2.286.252-3.474.32l-2.172.092-.868 1.028c-.48.572-.938.983-.983.915a40.536 40.536 0 0 0-.732-.983c-.663-.915-.548-.892-4.205-1.349-2.172-.251-2.926.64-2.926 3.452 0 1.782-.229 1.965-1.554 1.417-.823-.343-.983-.869-.252-.869.16 0 .549-.183.869-.434l.548-.434-.777-.572-.754-.548.731-.458c1.143-.685.869-1.234-.731-1.394-1.303-.16-1.897-.023-2.697.549-.343.228-.549.205-1.12-.115-.869-.525-2.446-.548-3.429-.045-.594.32-.868.343-1.371.114-.526-.251-.663-.229-1.029.229-.251.297-.434.685-.434.868 0 .594-.686.343-1.371-.503-.755-.96-1.372-1.051-2.103-.365-.526.48-.549.48-1.097.045-1.098-.868-2.172-1.097-3.132-.685-.48.205-1.006.548-1.166.754-.411.503-.617.457-1.645-.229a3.157 3.157 0 0 0-1.852-.617c-.823 0-1.12.16-1.874.914-.823.869-.869 1.006-.869 2.492 0 1.737.206 2.08 1.646 2.583 1.12.365 2.24.343 2.789-.092.594-.434 1.371-.457 1.76-.068.183.183.891.297 1.874.274 1.211-.023 1.737-.16 2.286-.571.663-.48.731-.503 1.165-.115.458.435 1.418.297 1.44-.205 0-.16.092-.435.229-.64.183-.298.366-.206 1.074.48.777.754 1.029.845 2.355.914 2.24.114 3.29.114 4.617.046.663-.046 1.92.022 2.834.114 1.486.183 1.668.137 2.194-.343.48-.457.64-.48 1.074-.251.709.365 1.189.137 1.486-.709.16-.457.48-.8.823-.869.731-.182.983-.022 1.143.869.274 1.394 1.463 1.12 1.737-.389.206-1.142.526-1.234.937-.297.526 1.257 1.189 1.737 2.354 1.669.549-.023 1.28-.252 1.623-.48 1.029-.754 1.417-.777 2.4-.206.755.434 1.029.48 1.395.252.274-.16.57-.183.777-.069.571.366 1.394.251 1.645-.229.138-.251.252-.982.252-1.577 0-1.348.343-2.08.868-1.874.252.091.32.32.229.663-.069.297.046 1.097.251 1.783.297 1.074.503 1.325 1.189 1.6 1.577.663 2.08.663 3.063 0 1.005-.686 1.394-.755 2.057-.343.526.32 1.234-.046 1.234-.663 0-.411 1.234-1.257 1.372-.937.32.891.937 1.897 1.188 1.988.412.138.846-.845 1.006-2.331.091-.96.251-1.326.503-1.326.434 0 1.417 1.897 1.417 2.789.023.343.183.686.366.777.525.183 1.028-.434 1.211-1.531.091-.526.48-1.418.869-1.966.365-.572.685-1.166.685-1.303.023-.503-.663-.549-1.28-.069-.754.595-1.234.572-1.851-.045-.366-.366-.709-.48-1.257-.389-.412.046-1.189-.046-1.692-.228-1.463-.503-3.017-.412-3.68.205l-.571.549-1.006-.549a4.344 4.344 0 0 0-3.497-.251c-.617.206-.914.183-1.577-.137-.434-.206-.891-.366-1.006-.343-.114.023-.8.137-1.531.251zm-.846 1.692c.389.571.48 1.783.16 2.285-.114.183-.411-.16-.846-1.028-.365-.709-.594-1.417-.502-1.554.251-.412.777-.275 1.188.297zm-37.645.434c.457.274.822.709.822.937 0 .48-1.531 1.92-2.034 1.92-.503 0-.891-.594-1.028-1.623-.115-.8-.046-1.005.434-1.325.708-.503.846-.503 1.806.091zm4.96-.046c.685.732.777 1.829.205 2.4-.297.297-.663.503-.868.503-.915 0-1.463-2.217-.709-2.971.503-.503.892-.48 1.372.068zm40.136.137c.48.732.252 1.715-.525 2.218-.709.457-1.143.182-1.532-1.029-.228-.709-.205-.914.137-1.303.595-.64 1.463-.594 1.92.114zm-26.994.503c0 .389-.228.435-.822.206-.595-.229-.458-.571.205-.571.389 0 .617.137.617.365zm-4.571.732c0 .205-.114.297-.251.228-.138-.091-.183-.251-.092-.388.206-.32.343-.275.343.16zm1.943.594c.64.343.571.709-.137.709-.617 0-.96-.343-.732-.732.183-.297.297-.297.869.023zm-67.268 5.257c-.915.183-1.257.389-2.446 1.44l-.663.617-.64-.754c-.366-.411-.891-.869-1.166-1.029-.777-.388-4.045-.342-4.457.069-.48.48-.777 6.377-.343 6.789.275.274 1.6.41 3.338.342.708-.022 1.142-.251 1.965-.982.572-.526 1.143-.96 1.28-.96s.457.365.732.822c.434.732 1.188 1.235 2.537 1.669.8.274 2.171-.297 3.154-1.28.503-.526 1.029-.983 1.166-.983.114 0 .663.366 1.211.823 1.326 1.074 2.354 1.577 3.246 1.577 1.028 0 2.491-1.028 3.04-2.148.251-.526.526-.96.617-.96.183 0 .663 1.554.663 2.08.023.457.48.64.846.32.182-.138.411-.595.48-.983.205-.915 1.074-1.463 2.08-1.372.685.069.8.183.96.892.091.434.388 1.028.64 1.303.434.41.548.434.914.137.32-.275.366-.617.251-2.195-.091-1.028-.045-2.125.069-2.445.228-.617-.206-1.715-.892-2.24-.228-.183-1.165-.297-2.468-.297-1.714 0-2.149.068-2.469.434-.228.251-.388.617-.388.846 0 .777-.64.662-1.623-.275-.823-.777-1.212-.983-2.332-1.12-1.737-.205-2.194-.045-3.52 1.235l-1.12 1.074-.502-.846c-.915-1.554-2.08-2.011-4.16-1.6zm-5.852 1.829c.915.914.617 3.497-.48 4-.8.365-1.76.045-2.034-.686-.297-.777-.091-2.4.389-3.154.411-.64 1.554-.732 2.125-.16zm8.229.343c.16.32.297 1.165.297 1.851 0 1.051-.092 1.303-.617 1.737-.914.709-1.692.617-2.629-.32-.914-.914-1.028-1.668-.457-2.788.64-1.235 2.857-1.555 3.406-.48zm7.771.022c.457.458.503.709.389 1.943-.16 1.692-.64 2.355-1.737 2.355-1.098 0-1.829-.892-1.989-2.378-.091-1.028-.023-1.257.526-1.805.777-.8 2.08-.846 2.811-.115zm6.652-.228c1.005.343.96.868-.092 1.303-.663.274-.937.297-1.211.091-.412-.343-.435-.983-.046-1.371.366-.366.411-.366 1.349-.023zm-109.371-.526c-1.212.686-1.326.709-1.737.343a1.04 1.04 0 0 0-1.029-.229c-.48.115-.663.389-.891 1.235-.343 1.371-.869 1.348-1.349-.069-.228-.731-.503-1.074-.891-1.166-1.052-.274-1.417-.022-1.897 1.258-.252.754-.549 1.211-.732 1.142-.16-.068-.526-.662-.8-1.302-.548-1.326-1.12-1.555-1.828-.732-.412.434-.458.434-1.669-.137-.686-.297-1.623-.571-2.103-.571-.983 0-2.674.754-3.131 1.394-.64.868-.915.823-2.012-.183s-1.28-1.051-3.954-1.006c-.8 0-1.646.64-1.988 1.509-.092.228-.298.114-.709-.366-.891-1.074-1.486-.8-1.577.754-.114 1.852-.663 1.692-2.537-.754-.549-.754-.8-.891-1.44-.823-.617.069-.755.183-.823.732-.092.868-.594.845-.937-.069-.206-.526-.412-.708-.869-.708-.343 0-.686.114-.754.251-.092.114-.549.16-1.052.091-.8-.137-.96-.068-1.302.458-.229.342-.412.891-.412 1.211 0 1.074-.617.891-1.211-.343-.869-1.851-1.943-1.897-2.812-.114-.617 1.234-.937 1.371-1.165.434-.343-1.508-1.326-2.217-1.966-1.44-.457.549 1.211 6.309 1.943 6.697.708.366 1.371-.023 1.851-1.12.252-.571.549-1.097.686-1.188.297-.183 1.006.754 1.006 1.325 0 .206.182.572.434.778.914.822 1.988.274 2.308-1.166.435-1.92 1.189-3.932 1.372-3.657.091.16.183 1.188.183 2.24 0 1.623.091 2.08.503 2.583.685.868 1.44.502 1.44-.663 0-.435.137-1.143.32-1.577l.32-.778.16 1.395c.182 1.531.457 2.011 1.12 2.011.502 0 .982-1.326.891-2.491-.091-1.097.411-.983 1.211.274 1.052 1.714 1.669 2.263 2.378 2.171.525-.045.662-.251.937-1.257.388-1.463.411-2.423.091-2.994-.16-.32-.137-.526.092-.709.274-.228.365.138.502 2.035.206 2.88.48 3.223 2.423 3.223 1.646 0 2.675-.412 3.749-1.532.457-.48.914-.868 1.005-.868.07 0 .412.41.732.937.708 1.143 1.828 1.577 3.566 1.394 1.051-.091 1.348-.251 2.125-1.074.572-.617.937-1.28 1.052-1.897.068-.503.205-1.189.274-1.509l.114-.617.343.617c.183.32.389 1.12.48 1.76.206 1.326.846 2.126 1.623 2.034.366-.068.731-.503 1.234-1.577.823-1.668 1.12-1.691 1.555-.137.274 1.051 1.051 1.989 1.622 1.989.526 0 1.235-1.44 1.418-2.858.068-.731.251-1.531.365-1.76.297-.571.983-.525 1.372.092.16.274 1.12.868 2.103 1.326 1.622.731 1.76.868 1.53 1.302-.228.389-.41.458-1.142.32-.503-.091-1.188-.411-1.554-.731-1.212-1.006-1.874-.023-.914 1.349 1.097 1.53 4.365 1.462 5.325-.092.64-1.074.549-1.76-.411-2.948-.709-.846-1.006-1.052-1.669-1.052-.891 0-1.28-.366-.845-.777.205-.229.457-.183 1.005.137.389.229.869.412 1.029.412.548 0 .891-.64.708-1.303-.183-.8-.891-1.28-2.125-1.463-.8-.114-1.212 0-2.263.594zm-13.28 2.126c.16.206.297 1.006.297 1.783 0 1.783-.526 2.4-1.966 2.285-1.257-.091-1.851-.822-1.92-2.377-.091-1.737.709-2.377 2.56-2.171.412.068.869.274 1.029.48zm-8.229.046c.64.685.64 3.04.023 3.497-.663.48-1.76.434-2.011-.069-.297-.594-.549-2.628-.366-3.086.32-.822 1.737-1.028 2.354-.342zm225.919 29.347c-.869.298-2.011.847-2.514 1.212-1.212.823-3.063 2.972-3.612 4.16-.228.503-.548 1.097-.731 1.326-.526.617-.48 3.611.068 5.6.252.914.8 2.286 1.258 3.04.754 1.303 3.085 3.611 4.548 4.503 2.034 1.234 5.554 1.691 7.383.937a32.19 32.19 0 0 1 1.92-.686c1.074-.32 2.034-1.143 3.726-3.154 1.348-1.623 2.56-4.526 2.788-6.789.137-1.485.114-1.6-.868-3.405-1.44-2.629-1.966-3.292-3.292-4.069-.64-.366-1.257-.8-1.394-.937-.777-.891-3.566-1.828-6.354-2.148-1.029-.092-1.669-.023-2.926.41zm2.743 2.012a2.83 2.83 0 0 1-1.074 0c-.298-.045-.046-.091.548-.091.572 0 .823.046.526.091zm-5.303 2.606c-.411.457-.754 1.006-.754 1.166 0 .388-.915 1.577-1.212 1.577-.434 0-.228-.777.503-2.057.8-1.417 1.623-2.149 1.989-1.783.137.137-.046.548-.526 1.097zm8.823 1.143c1.645.8 2.56 3.497 1.965 5.874-.32 1.234-1.737 2.926-2.445 2.926-.229 0-.526.16-.663.343-.16.183-.823.411-1.486.48-1.005.137-1.44.068-2.514-.412-1.143-.525-1.371-.777-2.011-2.057-.846-1.668-.938-2.88-.343-4.388 1.005-2.515 2.514-3.406 5.348-3.178.869.069 1.829.252 2.149.412zm-10.834 3.566c-.138.457-.663.525-.663.114 0-.229.16-.389.388-.389.206 0 .32.137.275.275zm.045 2.308c0 .572-.045.594-.251.229-.137-.229-.183-.526-.092-.663.252-.389.366-.252.343.434zm7.749 6.217a.884.884 0 0 1-.594 0c-.16-.068-.023-.114.297-.114s.457.046.297.114zm-37.92-10.994c-.183.114-.617.8-.983 1.531l-.663 1.349-.434-1.166c-.457-1.303-.914-1.805-1.463-1.6-.548.229-.434 2.012.274 4.16.343 1.029.732 2.08.846 2.309.389.731 1.212.388 2.012-.846.388-.617.822-1.097.96-1.051.137.023.48.571.777 1.188.48.96.64 1.12 1.257 1.12.594 0 .8-.16 1.188-.937.275-.526.686-1.668.938-2.583.228-.891.548-1.645.685-1.691.366-.137.549 1.211.389 2.788-.274 2.766.274 3.269 3.337 2.995 1.463-.115 1.92-.252 2.126-.595.297-.571-.366-.937-1.692-.937-1.165 0-1.92-.343-1.92-.845 0-.435.937-.823 1.989-.846 1.28 0 1.874-.983.823-1.326-.297-.114-.823-.16-1.189-.137-.411.046-.846-.137-1.166-.457-.525-.526-.525-.549-.091-.869.229-.183 1.006-.32 1.714-.32 1.372 0 1.829-.388 1.257-1.074-.342-.411-2.88-.503-4.411-.137-.594.137-1.097.137-1.371-.023-.709-.366-1.349.16-1.806 1.486-.252.64-.503 1.188-.572 1.188-.068 0-.388-.457-.708-1.005-.572-1.029-1.303-1.875-1.623-1.875-.091 0-.32.092-.48.206zm12.594 1.897a40.482 40.482 0 0 0-.114 2.217c0 .32-.091 1.052-.229 1.623-.411 1.6-.068 1.829 2.56 1.943 1.372.046 2.309-.023 2.515-.183.228-.183.502-.206.96-.023.982.366 4.091.297 4.434-.091.388-.48-.297-1.12-1.189-1.12-1.257 0-1.668-.686-1.668-2.857 0-2.217-.275-3.132-.937-3.132-.252 0-.549.115-.64.252-.069.137-.183 1.508-.206 3.063l-.046 2.811-.96-.069c-1.371-.114-2.468-.502-2.743-1.028-.114-.229-.228-1.349-.228-2.446 0-2.057-.206-2.583-.983-2.583-.343 0-.434.297-.526 1.623z"/>
</svg>
